<svg width="282" height="282" viewBox="0 0 282 282" fill="none" xmlns="http://www.w3.org/2000/svg">
<g clip-path="url(#clip0_92_586)">
<rect width="304" height="304" fill="url(#paint0_linear_92_586)"/>
<path fill-rule="evenodd" clip-rule="evenodd" d="M140.626 82.2725C140.101 82.2725 139.558 82.2945 139.06 82.3154L139.056 82.3155L139.052 82.3157C127.488 82.8835 117.574 90.788 114.362 102.008C113.646 104.455 113.279 107.007 113.257 109.578L113.257 109.583V109.776C113.257 111.893 113.718 114.298 114.075 115.887L114.078 115.898L114.081 115.909C114.108 116.017 114.14 116.123 114.19 116.24C114.406 117.065 114.653 117.878 114.943 118.691C114.513 119.537 113.717 120.836 112.782 122.269C111.722 123.894 110.53 125.621 109.611 126.911C109.551 126.986 109.515 127.051 109.5 127.076C109.485 127.103 109.471 127.13 109.46 127.151C108.302 129.114 108.315 131.578 109.427 133.542L109.428 133.544L109.429 133.546C110.572 135.547 112.686 136.776 114.956 136.776H138.768L138.814 136.778C139.287 136.798 139.768 136.818 140.25 136.818C147.493 136.818 154.308 134 159.469 128.828C164.628 123.678 167.493 116.821 167.536 109.551V109.548V109.356C167.536 107.922 167.337 106.189 166.93 104.229L166.918 104.17L166.899 104.113C166.899 104.113 166.898 104.112 166.898 104.109C166.897 104.106 166.895 104.101 166.894 104.096C166.89 104.084 166.886 104.07 166.881 104.051L166.879 104.045C166.874 104.027 166.867 104.003 166.859 103.975C166.649 102.914 166.36 101.86 166.021 100.84C166.052 100.761 166.076 100.685 166.096 100.616C166.159 100.405 166.372 99.9528 166.753 99.273C167.119 98.6195 167.595 97.8338 168.124 96.9975C169.18 95.326 170.423 93.4868 171.354 92.1648L171.399 92.0999L171.417 92.065C171.43 92.0434 171.452 92.0096 171.474 91.968C172.636 89.9845 172.626 87.5405 171.515 85.5531C170.39 83.5408 168.27 82.3145 165.983 82.3145H142.109L142.063 82.3126C141.589 82.2927 141.109 82.2725 140.626 82.2725ZM119.138 103.222C121.772 94.1042 129.852 87.6841 139.318 87.2241C139.781 87.2029 140.216 87.1832 140.626 87.1832C141.036 87.1832 141.472 87.203 141.913 87.2241L141.937 87.2252H166.025C166.542 87.2252 167.039 87.5203 167.299 87.981C167.55 88.4275 167.558 88.9652 167.32 89.4169C166.214 90.9922 165.254 92.6674 164.324 94.2893L164.3 94.3314C163.345 95.9961 162.422 97.603 161.371 99.0854C160.87 99.7744 160.77 100.641 161.049 101.414L161.052 101.422L161.055 101.431C161.512 102.631 161.873 103.92 162.134 105.215L162.139 105.237L162.145 105.26C162.159 105.319 162.174 105.37 162.184 105.405L162.185 105.409C162.189 105.422 162.192 105.434 162.195 105.444C162.197 105.453 162.2 105.461 162.201 105.469C162.503 107.016 162.656 108.362 162.656 109.377V109.542C162.575 121.867 152.518 131.907 140.271 131.907C139.861 131.907 139.425 131.887 138.985 131.866L138.96 131.865H114.977C114.443 131.865 113.955 131.577 113.703 131.13L113.7 131.125L113.697 131.12C113.456 130.705 113.439 130.168 113.668 129.705C113.701 129.657 113.739 129.604 113.779 129.547C114.37 128.705 115.638 126.902 116.867 125.018C117.54 123.985 118.209 122.918 118.752 121.964C119.274 121.046 119.73 120.148 119.927 119.472C120.105 118.917 120.066 118.333 119.854 117.825C119.458 116.827 119.139 115.804 118.878 114.755L118.868 114.716L118.81 114.541C118.388 112.606 118.178 110.984 118.178 109.776V109.613C118.199 107.502 118.498 105.416 119.096 103.392L119.138 103.247V103.222Z" fill="white"/>
<path fill-rule="evenodd" clip-rule="evenodd" d="M131.188 109.818C131.188 115.006 135.387 119.232 140.542 119.232C145.698 119.232 149.896 115.006 149.896 109.818C149.896 104.629 145.698 100.403 140.542 100.403C135.387 100.403 131.188 104.629 131.188 109.818ZM136.241 109.818C136.241 107.419 138.159 105.489 140.542 105.489C142.894 105.489 144.843 107.421 144.843 109.818C144.843 112.217 142.925 114.147 140.542 114.147C138.159 114.147 136.241 112.217 136.241 109.818Z" fill="white"/>
<path d="M138.767 96.3069C140.139 96.1317 141.11 94.8706 140.936 93.4901C140.762 92.1095 139.509 91.1323 138.137 91.3074C136.503 91.5159 134.901 91.9428 133.374 92.5794C131.124 93.5171 129.08 94.8916 127.358 96.6242C126.38 97.6083 126.38 99.2037 127.358 100.188C128.336 101.172 129.921 101.172 130.899 100.188C132.156 98.923 133.648 97.9198 135.291 97.2354C136.405 96.7706 137.575 96.4591 138.767 96.3069Z" fill="white"/>
<path d="M143.506 93.7715C143.971 92.4609 145.404 91.778 146.706 92.2462C150.308 93.5407 153.423 95.9241 155.626 99.0697C157.829 102.215 159.012 105.97 159.012 109.818C159.012 111.21 157.891 112.338 156.508 112.338C155.125 112.338 154.004 111.21 154.004 109.818C154.004 107.009 153.141 104.269 151.532 101.973C149.924 99.6766 147.65 97.9369 145.021 96.992C143.719 96.5239 143.04 95.082 143.506 93.7715Z" fill="white"/>
<path d="M155.529 115.918C156.717 116.631 157.106 118.177 156.398 119.373C155.43 121.005 154.227 122.47 152.835 123.723C151.805 124.651 150.222 124.563 149.299 123.526C148.377 122.489 148.465 120.896 149.495 119.968C150.511 119.053 151.39 117.984 152.096 116.793C152.804 115.597 154.341 115.206 155.529 115.918Z" fill="white"/>
<path d="M131.486 123.424C132.064 122.16 133.552 121.608 134.808 122.19C137.08 123.242 139.597 123.641 142.081 123.341C143.454 123.175 144.701 124.161 144.865 125.543C145.03 126.925 144.05 128.179 142.677 128.345C139.275 128.755 135.826 128.209 132.713 126.767C131.457 126.185 130.908 124.689 131.486 123.424Z" fill="white"/>
<path d="M127.565 105.711C127.982 104.384 127.251 102.968 125.932 102.549C124.614 102.129 123.207 102.864 122.79 104.191C122.078 106.455 121.801 108.84 121.979 111.219C122.082 112.607 123.285 113.647 124.664 113.542C126.043 113.438 127.077 112.228 126.973 110.841C126.843 109.104 127.045 107.363 127.565 105.711Z" fill="white"/>
<path d="M41 196.73L53.3898 166.511H61.8941L74.1113 196.73H66.0818L63.3188 189.434H51.5334L48.7274 196.73H41ZM53.7782 183.52H61.1172L57.4908 173.85L53.7782 183.52Z" fill="white"/>
<path d="M81.9422 173.893V187.016C81.9422 188.254 82.3163 189.261 83.0646 190.038C83.8418 190.786 84.8489 191.161 86.0864 191.161C86.9787 191.161 87.7702 191.002 88.4609 190.686C89.1514 190.369 89.7271 189.923 90.1877 189.347V173.893H97.1811V196.729H90.1877V195.175C89.353 195.808 88.4034 196.298 87.3385 196.643C86.3023 196.988 85.2087 197.161 84.0576 197.161C81.3811 197.161 79.1937 196.298 77.4956 194.571C75.7978 192.844 74.9487 190.642 74.9487 187.966V173.893H81.9422Z" fill="white"/>
<path d="M104.75 189.779V179.721H100.131V173.893H104.75V168.022L111.744 166.511V173.893H118.133V179.721H111.744V188.398C111.744 189.405 111.96 190.125 112.391 190.556C112.852 190.959 113.643 191.161 114.766 191.161C115.312 191.161 115.83 191.132 116.32 191.074C116.809 190.988 117.341 190.859 117.917 190.686V196.341C117.284 196.543 116.478 196.701 115.499 196.816C114.521 196.96 113.701 197.032 113.039 197.032C110.305 197.032 108.232 196.428 106.822 195.219C105.441 193.981 104.75 192.168 104.75 189.779Z" fill="white"/>
<path d="M120.863 196.73V166.511L127.856 165V175.447C128.691 174.814 129.626 174.325 130.662 173.979C131.727 173.634 132.835 173.461 133.987 173.461C136.663 173.461 138.85 174.325 140.548 176.051C142.246 177.778 143.095 179.98 143.095 182.656V196.73H136.102V183.606C136.102 182.369 135.713 181.376 134.936 180.628C134.188 179.85 133.195 179.462 131.958 179.462C131.065 179.462 130.274 179.62 129.583 179.937C128.892 180.253 128.317 180.699 127.856 181.275V196.73H120.863Z" fill="white"/>
<path d="M157.831 196.816C156.219 196.816 154.693 196.514 153.254 195.91C151.844 195.305 150.621 194.485 149.585 193.449C148.549 192.384 147.729 191.146 147.124 189.736C146.52 188.297 146.218 186.772 146.218 185.16C146.218 183.549 146.52 182.038 147.124 180.627C147.758 179.217 148.607 177.994 149.671 176.958C150.736 175.922 151.988 175.102 153.427 174.497C154.895 173.893 156.449 173.591 158.089 173.591C159.126 173.591 160.133 173.72 161.111 173.979C162.09 174.238 162.997 174.612 163.831 175.102V173.893H170.738V196.514C170.738 199.594 169.717 201.953 167.673 203.594C165.63 205.263 162.709 206.098 158.91 206.098C157.097 206.098 155.355 205.925 153.686 205.58C152.017 205.234 150.506 204.745 149.153 204.112L151.484 198.673C152.722 199.248 153.945 199.68 155.154 199.968C156.363 200.255 157.572 200.399 158.78 200.399C160.421 200.399 161.658 200.068 162.493 199.406C163.327 198.744 163.745 197.752 163.745 196.428V195.003C162.881 195.579 161.946 196.025 160.939 196.341C159.932 196.658 158.895 196.816 157.831 196.816ZM153.082 185.16C153.082 186.801 153.657 188.182 154.809 189.305C155.96 190.398 157.37 190.945 159.039 190.945C159.989 190.945 160.852 190.801 161.629 190.514C162.435 190.226 163.14 189.808 163.745 189.261V181.189C163.14 180.671 162.435 180.268 161.629 179.98C160.824 179.663 159.974 179.505 159.082 179.505C157.413 179.505 155.989 180.052 154.809 181.146C153.657 182.239 153.082 183.577 153.082 185.16Z" fill="white"/>
<path d="M195.974 193.708C194.535 194.917 193.052 195.795 191.527 196.342C190.03 196.888 188.332 197.162 186.433 197.162C184.706 197.162 183.08 196.86 181.555 196.256C180.029 195.651 178.706 194.816 177.583 193.752C176.49 192.687 175.612 191.435 174.95 189.996C174.317 188.528 174 186.974 174 185.333C174 183.693 174.302 182.153 174.907 180.714C175.54 179.246 176.389 177.98 177.454 176.915C178.518 175.85 179.77 175.016 181.209 174.411C182.677 173.807 184.246 173.505 185.915 173.505C187.584 173.505 189.124 173.821 190.534 174.455C191.944 175.088 193.153 175.951 194.16 177.045C195.196 178.138 196.002 179.462 196.578 181.016C197.154 182.542 197.441 184.197 197.441 185.981V187.708H181.166C181.627 188.773 182.346 189.651 183.325 190.341C184.303 191.003 185.455 191.334 186.778 191.334C187.728 191.334 188.591 191.19 189.369 190.902C190.146 190.586 190.807 190.154 191.354 189.607L195.974 193.708ZM185.785 179.203C184.634 179.203 183.641 179.52 182.807 180.153C181.972 180.786 181.382 181.678 181.037 182.829H190.577C190.203 181.736 189.584 180.858 188.721 180.196C187.886 179.534 186.908 179.203 185.785 179.203Z" fill="white"/>
<path d="M208.006 197.118C205.589 197.118 203.603 196.456 202.049 195.132C200.495 193.808 199.718 192.11 199.718 190.038C199.718 187.88 200.538 186.196 202.178 184.987C203.847 183.779 206.164 183.174 209.129 183.174C210.021 183.174 210.899 183.232 211.762 183.347C212.625 183.462 213.474 183.62 214.309 183.822V182.699C214.309 181.548 213.935 180.699 213.187 180.152C212.467 179.577 211.388 179.289 209.949 179.289C209.057 179.289 208.049 179.433 206.927 179.721C205.805 180.008 204.51 180.469 203.042 181.102L200.538 175.965C202.38 175.13 204.179 174.511 205.934 174.108C207.719 173.677 209.474 173.461 211.201 173.461C214.367 173.461 216.827 174.224 218.583 175.749C220.339 177.245 221.216 179.361 221.216 182.095V196.729H214.309V195.348C213.388 195.981 212.41 196.442 211.374 196.729C210.366 196.988 209.244 197.118 208.006 197.118ZM206.366 189.909C206.366 190.628 206.682 191.189 207.316 191.592C207.949 191.995 208.826 192.197 209.949 192.197C210.784 192.197 211.561 192.11 212.28 191.938C213.028 191.765 213.705 191.492 214.309 191.117V188.182C213.647 188.009 212.971 187.88 212.28 187.793C211.589 187.707 210.884 187.664 210.165 187.664C208.956 187.664 208.021 187.865 207.359 188.268C206.697 188.642 206.366 189.189 206.366 189.909Z" fill="white"/>
<path d="M225.372 196.73V173.893H232.366V176.181C233.115 175.289 233.993 174.598 235 174.109C236.008 173.62 237.13 173.375 238.366 173.375C239.028 173.404 239.56 173.461 239.964 173.548C240.368 173.605 240.713 173.735 241 173.936V180.023C240.539 179.822 240.023 179.663 239.445 179.548C238.869 179.404 238.281 179.332 237.675 179.332C236.583 179.332 235.56 179.591 234.611 180.109C233.691 180.628 232.941 181.333 232.366 182.225V196.73H225.372Z" fill="white"/>
</g>
<defs>
<linearGradient id="paint0_linear_92_586" x1="152" y1="0" x2="152" y2="295.304" gradientUnits="userSpaceOnUse">
<stop stop-color="#1270FF"/>
<stop offset="1" stop-color="#0551C4"/>
</linearGradient>
<clipPath id="clip0_92_586">
<rect width="282" height="282" rx="12" fill="white"/>
</clipPath>
</defs>
</svg>
