<svg width="17" height="15" viewBox="0 0 17 15" fill="none" xmlns="http://www.w3.org/2000/svg">
  <path d="M5.22515 8.08033L3.80908 9.02437L6.16919 11.3845L8.05728 9.4964V2.0067C8.05728 1.45072 7.60656 1 7.05058 1C6.54601 1 6.11939 1.37352 6.0527 1.87365L5.22515 8.08033Z" fill="white" stroke="#828282" />
  <path d="M0.71259 10.768L3.28839 8.31464L6.67177 11.8426L4.18009 14.2933L0.71259 10.768Z" fill="white" stroke="#828282" />
  <path d="M11.3286 8.08033L12.7446 9.02437L10.3845 11.3845L8.49643 9.4964V2.0067C8.49643 1.45072 8.94715 1 9.50313 1C10.0077 1 10.4343 1.37352 10.501 1.87365L11.3286 8.08033Z" fill="white" stroke="#828282" />
  <path d="M15.8411 10.768L13.2653 8.31464L9.88194 11.8426L12.3736 14.2933L15.8411 10.768Z" fill="white" stroke="#828282" />
</svg>
