<svg width="9" height="13" viewBox="0 0 9 13" fill="none" xmlns="http://www.w3.org/2000/svg">
<path d="M8.5 8.432C8.5 9.93593 7.95087 10.9342 7.20597 11.5643C6.44703 12.2062 5.44333 12.5 4.5 12.5C3.55667 12.5 2.55297 12.2062 1.79403 11.5643C1.04913 10.9342 0.5 9.93593 0.5 8.432C0.5 7.95294 0.688722 7.29147 1.03142 6.50796C1.3686 5.7371 1.83192 4.89841 2.33067 4.08123C3.1091 2.80577 3.95702 1.60948 4.51359 0.83621C5.08763 1.60471 5.93817 2.8268 6.70982 4.12072C7.20123 4.94474 7.65448 5.78768 7.98336 6.55412C8.31827 7.33461 8.5 7.98163 8.5 8.432Z" stroke="#828282"/>
</svg>
