<svg width="282" height="282" viewBox="0 0 282 282" fill="none" xmlns="http://www.w3.org/2000/svg">
<g clip-path="url(#clip0_92_558)">
<rect width="304" height="304" fill="url(#paint0_linear_92_558)"/>
<path d="M143.414 146.418H118.58C115.008 146.418 112.102 143.51 112.102 139.937V90.2495C112.102 86.6763 115.008 83.7686 118.58 83.7686H143.414C151.778 83.7686 159.642 87.0274 165.555 92.9434C171.469 98.8594 174.727 106.726 174.727 115.093C174.727 123.46 171.469 131.327 165.555 137.243C159.642 143.159 151.778 146.418 143.414 146.418ZM118.58 89.7094C118.282 89.7094 118.04 89.9514 118.04 90.2495V139.937C118.04 140.235 118.282 140.477 118.58 140.477H143.414C150.192 140.477 156.563 137.837 161.356 133.042C166.149 128.247 168.788 121.873 168.788 115.093C168.788 108.313 166.149 101.938 161.356 97.1441C156.563 92.3493 150.192 89.7094 143.414 89.7094H118.58Z" fill="white"/>
<path d="M126.119 104.64C124.798 103.318 124.798 101.175 126.119 99.8529C127.441 98.5308 129.583 98.5308 130.905 99.8529L135.991 104.942C137.313 106.264 137.313 108.407 135.991 109.729C134.67 111.051 132.527 111.051 131.206 109.729L126.119 104.64Z" fill="white"/>
<path d="M146.737 125.269C145.415 123.947 145.415 121.804 146.737 120.482C148.058 119.16 150.201 119.16 151.522 120.482L156.609 125.57C157.931 126.893 157.931 129.036 156.609 130.358C155.287 131.68 153.145 131.68 151.823 130.358L146.737 125.269Z" fill="white"/>
<path d="M151.823 99.8539C153.145 98.5318 155.287 98.5318 156.609 99.8539C157.931 101.176 157.931 103.319 156.609 104.641L151.522 109.73C150.201 111.052 148.058 111.052 146.737 109.73C145.415 108.408 145.415 106.265 146.737 104.942L151.823 99.8539Z" fill="white"/>
<path d="M131.206 120.482C132.527 119.16 134.67 119.16 135.991 120.482C137.313 121.804 137.313 123.947 135.991 125.269L130.905 130.358C129.583 131.68 127.441 131.68 126.119 130.358C124.798 129.036 124.798 126.893 126.119 125.57L131.206 120.482Z" fill="white"/>
<path d="M139.06 111.865L138.124 112.801C136.859 114.067 136.859 116.119 138.124 117.384L139.06 118.321C140.325 119.586 142.376 119.586 143.641 118.321L144.577 117.384C145.842 116.119 145.842 114.067 144.577 112.801L143.641 111.865C142.376 110.6 140.325 110.6 139.06 111.865Z" fill="white"/>
<path d="M38 202.743V170.029H64.0408V176.993H46.0557V183.115H58.0464V189.845H46.0557V202.743H38Z" fill="white"/>
<path d="M62.8467 190.407C62.8467 188.631 63.1902 186.964 63.8774 185.406C64.5956 183.817 65.5475 182.446 66.7339 181.293C67.9524 180.141 69.3724 179.237 70.9968 178.583C72.6514 177.897 74.4159 177.555 76.2895 177.555C78.163 177.555 79.911 177.897 81.5344 178.583C83.1899 179.237 84.6099 180.141 85.7973 181.293C87.0149 182.446 87.9668 183.817 88.6539 185.406C89.3722 186.964 89.7313 188.631 89.7313 190.407C89.7313 192.183 89.3722 193.865 88.6539 195.454C87.9668 197.012 87.0149 198.367 85.7973 199.52C84.6099 200.673 83.1899 201.576 81.5344 202.231C79.911 202.885 78.162 203.212 76.2895 203.212C74.4169 203.212 72.6514 202.885 70.9968 202.231C69.3724 201.576 67.9524 200.673 66.7339 199.52C65.5475 198.367 64.5956 197.012 63.8774 195.454C63.1902 193.865 62.8467 192.183 62.8467 190.407ZM76.2895 196.669C77.9752 196.669 79.3961 196.062 80.5514 194.846C81.7378 193.631 82.3305 192.151 82.3305 190.407C82.3305 188.662 81.7378 187.135 80.5514 185.92C79.3961 184.705 77.9752 184.098 76.2895 184.098C74.6038 184.098 73.1662 184.705 71.9798 185.92C70.8246 187.135 70.2474 188.631 70.2474 190.407C70.2474 192.183 70.8246 193.631 71.9798 194.846C73.1662 196.062 74.6028 196.669 76.2895 196.669Z" fill="white"/>
<path d="M93.2896 202.743V178.021H100.877V180.498C101.689 179.532 102.642 178.784 103.734 178.254C104.827 177.725 106.045 177.46 107.387 177.46C108.106 177.491 108.683 177.553 109.121 177.647C109.558 177.709 109.932 177.849 110.245 178.068V184.657C109.745 184.439 109.183 184.268 108.558 184.143C107.933 183.987 107.294 183.909 106.638 183.909C105.452 183.909 104.343 184.19 103.312 184.751C102.314 185.311 101.502 186.075 100.877 187.041V202.743H93.2896Z" fill="white"/>
<path d="M113.506 202.744V178.021H121.094V179.61C121.968 178.925 122.921 178.411 123.95 178.068C125.012 177.725 126.121 177.554 127.276 177.554C128.806 177.554 130.196 177.865 131.445 178.488C132.725 179.08 133.786 179.906 134.629 180.965C135.629 179.875 136.815 179.034 138.189 178.442C139.563 177.85 141.062 177.554 142.685 177.554C145.496 177.554 147.791 178.488 149.571 180.358C151.381 182.227 152.287 184.611 152.287 187.508V202.744H144.7V188.536C144.7 187.197 144.325 186.122 143.575 185.312C142.857 184.47 141.889 184.05 140.671 184.05C139.828 184.05 139.063 184.221 138.376 184.564C137.689 184.875 137.096 185.327 136.596 185.919C136.628 186.168 136.644 186.433 136.644 186.714C136.675 186.963 136.691 187.228 136.691 187.508V202.744H129.103V188.536C129.103 187.197 128.728 186.122 127.979 185.312C127.261 184.47 126.292 184.05 125.075 184.05C124.232 184.05 123.467 184.206 122.78 184.517C122.124 184.798 121.562 185.234 121.094 185.826V202.744H113.506Z" fill="white"/>
<path d="M201.976 195.31C203.16 195.31 204.172 195.746 205.013 196.618C205.885 197.459 206.321 198.472 206.321 199.656C206.321 200.84 205.885 201.868 205.013 202.74C204.172 203.582 203.16 204.002 201.976 204.002C200.793 204.002 199.765 203.582 198.893 202.74C198.052 201.868 197.632 200.84 197.632 199.656C197.632 198.472 198.052 197.459 198.893 196.618C199.765 195.746 200.793 195.31 201.976 195.31Z" fill="white"/>
<path d="M218.225 203.909C215.609 203.909 213.46 203.193 211.778 201.76C210.096 200.326 209.255 198.488 209.255 196.245C209.255 194.002 210.143 192.086 211.918 190.777C213.725 189.468 216.232 188.814 219.44 188.814C220.405 188.814 221.355 188.876 222.289 189.001C223.224 189.126 224.142 189.297 225.046 189.515V188.3C225.046 187.054 224.641 186.135 223.831 185.543C223.052 184.92 221.885 184.608 220.327 184.608C219.362 184.608 218.272 184.764 217.057 185.075C215.842 185.387 214.441 185.885 212.853 186.571L210.143 181.009C212.136 180.106 214.083 179.436 215.983 179C217.914 178.533 219.813 178.299 221.682 178.299C225.108 178.299 227.771 179.124 229.671 180.776C231.57 182.396 232.52 184.686 232.52 187.646V203.489H225.046V201.993C224.049 202.679 222.99 203.177 221.869 203.489C220.779 203.769 219.564 203.909 218.225 203.909ZM216.45 196.105C216.45 196.884 216.792 197.491 217.478 197.927C218.163 198.364 219.113 198.582 220.327 198.582C221.23 198.582 222.071 198.488 222.85 198.301C223.66 198.114 224.392 197.818 225.046 197.413V194.235C224.329 194.048 223.597 193.908 222.85 193.815C222.103 193.721 221.339 193.675 220.561 193.675C219.253 193.675 218.241 193.893 217.524 194.329C216.808 194.734 216.45 195.326 216.45 196.105Z" fill="white"/>
<path d="M240.803 176.476C239.65 176.476 238.669 176.071 237.86 175.261C237.05 174.451 236.645 173.469 236.645 172.317C236.645 171.164 237.05 170.182 237.86 169.372C238.669 168.562 239.65 168.157 240.803 168.157C241.955 168.157 242.936 168.562 243.746 169.372C244.556 170.182 244.961 171.164 244.961 172.317C244.961 173.469 244.556 174.451 243.746 175.261C242.936 176.071 241.955 176.476 240.803 176.476ZM244.587 178.766V203.489H237.019V178.766H244.587Z" fill="white"/>
<path d="M166.921 202.451H157.872L170.045 185.861L158.422 170.282H167.84L174.731 179.979L181.621 170.282H190.672L179.233 185.861L191.636 202.451H182.219L174.548 191.697L166.921 202.451Z" fill="white"/>
</g>
<defs>
<linearGradient id="paint0_linear_92_558" x1="-46" y1="-75.0001" x2="329.422" y2="-25.9467" gradientUnits="userSpaceOnUse">
<stop stop-color="#0CA389"/>
<stop offset="1" stop-color="#28D1B3"/>
</linearGradient>
<clipPath id="clip0_92_558">
<rect width="282" height="282" rx="12" fill="white"/>
</clipPath>
</defs>
</svg>
