<svg width="12" height="8" viewBox="0 0 12 8" fill="none" xmlns="http://www.w3.org/2000/svg">
<path fill-rule="evenodd" clip-rule="evenodd" d="M6 7.31429C8.20036 7.31429 10.1924 6.02857 11.2625 4C10.1924 1.97143 8.20036 0.685714 6 0.685714C3.79964 0.685714 1.80764 1.97143 0.737455 4C1.80764 6.02857 3.79964 7.31429 6 7.31429ZM6 0C8.62255 0 10.8938 1.62743 12 4C10.8938 6.37257 8.62255 8 6 8C3.37745 8 1.10618 6.37257 0 4C1.10618 1.62743 3.37745 0 6 0ZM6 5.6C6.40506 5.6 6.79353 5.43143 7.07995 5.13137C7.36636 4.83131 7.52727 4.42435 7.52727 4C7.52727 3.57565 7.36636 3.16869 7.07995 2.86863C6.79353 2.56857 6.40506 2.4 6 2.4C5.59494 2.4 5.20647 2.56857 4.92005 2.86863C4.63364 3.16869 4.47273 3.57565 4.47273 4C4.47273 4.42435 4.63364 4.83131 4.92005 5.13137C5.20647 5.43143 5.59494 5.6 6 5.6ZM6 6.28571C5.42135 6.28571 4.86639 6.0449 4.45722 5.61624C4.04805 5.18759 3.81818 4.60621 3.81818 4C3.81818 3.39379 4.04805 2.81241 4.45722 2.38376C4.86639 1.9551 5.42135 1.71429 6 1.71429C6.57865 1.71429 7.13361 1.9551 7.54278 2.38376C7.95195 2.81241 8.18182 3.39379 8.18182 4C8.18182 4.60621 7.95195 5.18759 7.54278 5.61624C7.13361 6.0449 6.57865 6.28571 6 6.28571Z" fill="#BDBDBD"/>
</svg>
