<svg width="12" height="9" viewBox="0 0 12 9" fill="none" xmlns="http://www.w3.org/2000/svg">
<path fill-rule="evenodd" clip-rule="evenodd" d="M6 7.81429C8.20036 7.81429 10.1924 6.52857 11.2625 4.5C10.1924 2.47143 8.20036 1.18571 6 1.18571C3.79964 1.18571 1.80764 2.47143 0.737455 4.5C1.80764 6.52857 3.79964 7.81429 6 7.81429ZM6 0.5C8.62255 0.5 10.8938 2.12743 12 4.5C10.8938 6.87257 8.62255 8.5 6 8.5C3.37745 8.5 1.10618 6.87257 0 4.5C1.10618 2.12743 3.37745 0.5 6 0.5ZM6 6.1C6.40506 6.1 6.79353 5.93143 7.07995 5.63137C7.36636 5.33131 7.52727 4.92435 7.52727 4.5C7.52727 4.07565 7.36636 3.66869 7.07995 3.36863C6.79353 3.06857 6.40506 2.9 6 2.9C5.59494 2.9 5.20647 3.06857 4.92005 3.36863C4.63364 3.66869 4.47273 4.07565 4.47273 4.5C4.47273 4.92435 4.63364 5.33131 4.92005 5.63137C5.20647 5.93143 5.59494 6.1 6 6.1ZM6 6.78571C5.42135 6.78571 4.86639 6.5449 4.45722 6.11624C4.04805 5.68759 3.81818 5.10621 3.81818 4.5C3.81818 3.89379 4.04805 3.31241 4.45722 2.88376C4.86639 2.4551 5.42135 2.21429 6 2.21429C6.57865 2.21429 7.13361 2.4551 7.54278 2.88376C7.95195 3.31241 8.18182 3.89379 8.18182 4.5C8.18182 5.10621 7.95195 5.68759 7.54278 6.11624C7.13361 6.5449 6.57865 6.78571 6 6.78571Z" fill="white"/>
</svg>
