<svg width="86" height="68" viewBox="0 0 86 68" fill="none" xmlns="http://www.w3.org/2000/svg">
  <mask id="path-1-inside-1" fill="white">
    <path fill-rule="evenodd" clip-rule="evenodd" d="M65.0585 13.6721C65.925 13.5454 66.8002 13.4817 67.6772 13.4817C77.6768 13.4817 85.7831 21.588 85.7831 31.5876V33.8914C85.7831 45.1634 76.6454 54.3011 65.3734 54.3011H14.4428C6.47999 54.3011 0.0249023 47.846 0.0249023 39.8832V38.8772C0.0249023 31.47 6.02956 25.4654 13.4367 25.4654C13.8502 25.4654 14.2631 25.4463 14.6741 25.4082C15.4798 11.2404 27.2239 0 41.5933 0C51.6519 0 60.4241 5.50783 65.0585 13.6721Z" />
  </mask>
  <path d="M65.0585 13.6721L63.3192 14.6594L63.9944 15.8489L65.3478 15.651L65.0585 13.6721ZM14.6741 25.4082L14.8587 27.3996L16.5732 27.2408L16.6709 25.5217L14.6741 25.4082ZM65.3478 15.651C66.1185 15.5384 66.897 15.4817 67.6772 15.4817V11.4817C66.7033 11.4817 65.7314 11.5525 64.7693 11.6931L65.3478 15.651ZM67.6772 15.4817C76.5722 15.4817 83.7831 22.6926 83.7831 31.5876H87.7831C87.7831 20.4834 78.7814 11.4817 67.6772 11.4817V15.4817ZM83.7831 31.5876V33.8914H87.7831V31.5876H83.7831ZM83.7831 33.8914C83.7831 44.0588 75.5408 52.3011 65.3734 52.3011V56.3011C77.75 56.3011 87.7831 46.2679 87.7831 33.8914H83.7831ZM65.3734 52.3011H14.4428V56.3011H65.3734V52.3011ZM14.4428 52.3011C7.58457 52.3011 2.0249 46.7414 2.0249 39.8832H-1.9751C-1.9751 48.9506 5.37542 56.3011 14.4428 56.3011V52.3011ZM2.0249 39.8832V38.8772H-1.9751V39.8832H2.0249ZM2.0249 38.8772C2.0249 32.5746 7.13413 27.4654 13.4367 27.4654V23.4654C4.92499 23.4654 -1.9751 30.3655 -1.9751 38.8772H2.0249ZM13.4367 27.4654C13.9118 27.4654 14.3863 27.4434 14.8587 27.3996L14.4896 23.4167C14.1398 23.4491 13.7885 23.4654 13.4367 23.4654V27.4654ZM16.6709 25.5217C17.4167 12.4066 28.2904 2 41.5933 2V-2C26.1573 -2 13.5429 10.0742 12.6774 25.2946L16.6709 25.5217ZM41.5933 2C50.9033 2 59.0256 7.09552 63.3192 14.6594L66.7978 12.6848C61.8227 3.92014 52.4006 -2 41.5933 -2V2Z" fill="white" mask="url(#path-1-inside-1)" />
  <path d="M27.7368 39.6956L42.7164 27.7119L57.696 39.6956" stroke="white" stroke-width="2" />
  <path d="M42.7173 27.7119V67.0334" stroke="white" stroke-width="2" />
</svg>
