<svg width="45" height="36" viewBox="0 0 45 36" fill="none" xmlns="http://www.w3.org/2000/svg">
<mask id="path-1-inside-1_381_3324" fill="white">
<path fill-rule="evenodd" clip-rule="evenodd" d="M34.0415 7.66237C34.4927 7.59642 34.9486 7.56323 35.4054 7.56323C40.6145 7.56323 44.8373 11.7861 44.8373 16.9952V18.1953C44.8373 24.0672 40.0772 28.8274 34.2052 28.8274H7.67382C3.52575 28.8274 0.163086 25.4647 0.163086 21.3166V20.7925C0.163086 16.9339 3.2911 13.8059 7.14971 13.8059C7.36518 13.8059 7.58035 13.7959 7.79455 13.7761C8.21418 6.3956 14.3321 0.540039 21.8176 0.540039C27.0575 0.540039 31.6273 3.40929 34.0415 7.66237Z"/>
</mask>
<path d="M34.0415 7.66237L32.3021 8.64966L32.9773 9.83912L34.3307 9.64135L34.0415 7.66237ZM7.79455 13.7761L7.97914 15.7676L9.69359 15.6086L9.79133 13.8896L7.79455 13.7761ZM34.3307 9.64135C34.6863 9.58938 35.0454 9.56323 35.4054 9.56323V5.56323C34.8517 5.56323 34.2992 5.60346 33.7523 5.68339L34.3307 9.64135ZM35.4054 9.56323C39.5099 9.56323 42.8373 12.8906 42.8373 16.9952H46.8373C46.8373 10.6815 41.719 5.56323 35.4054 5.56323V9.56323ZM42.8373 16.9952V18.1953H46.8373V16.9952H42.8373ZM42.8373 18.1953C42.8373 22.9627 38.9726 26.8274 34.2052 26.8274V30.8274C41.1817 30.8274 46.8373 25.1718 46.8373 18.1953H42.8373ZM34.2052 26.8274H7.67382V30.8274H34.2052V26.8274ZM7.67382 26.8274C4.63032 26.8274 2.16309 24.3601 2.16309 21.3166H-1.83691C-1.83691 26.5693 2.42118 30.8274 7.67382 30.8274V26.8274ZM2.16309 21.3166V20.7925H-1.83691V21.3166H2.16309ZM2.16309 20.7925C2.16309 18.0385 4.39567 15.8059 7.14971 15.8059V11.8059C2.18654 11.8059 -1.83691 15.8294 -1.83691 20.7925H2.16309ZM7.14971 15.8059C7.42687 15.8059 7.70364 15.7931 7.97914 15.7676L7.60996 11.7846C7.45707 11.7988 7.30349 11.8059 7.14971 11.8059V15.8059ZM9.79133 13.8896C10.1511 7.56182 15.3986 2.54004 21.8176 2.54004V-1.45996C13.2655 -1.45996 6.27725 5.22939 5.79778 13.6626L9.79133 13.8896ZM21.8176 2.54004C26.3088 2.54004 30.2288 4.99697 32.3021 8.64966L35.7808 6.67507C33.0258 1.82161 27.8062 -1.45996 21.8176 -1.45996V2.54004Z" fill="#0043E0" mask="url(#path-1-inside-1_381_3324)"/>
<path d="M14.5991 21.219L22.4025 14.9763L30.2058 21.219" stroke="#0043E0" stroke-width="2"/>
<path d="M22.4023 14.9763V35.4601" stroke="#0043E0" stroke-width="2"/>
</svg>
