<svg width="16" height="13" viewBox="0 0 16 13" fill="none" xmlns="http://www.w3.org/2000/svg">
<mask id="path-1-inside-1_349_4682" fill="white">
<path fill-rule="evenodd" clip-rule="evenodd" d="M2.62201 5.04855C2.76616 2.51226 4.86855 0.5 7.44092 0.5C9.24162 0.5 10.812 1.48604 11.6416 2.94764C11.7968 2.92494 11.9536 2.91351 12.1107 2.91351C13.9008 2.91351 15.3519 4.36465 15.3519 6.15472V6.56714C15.3519 8.58497 13.7161 10.2208 11.6983 10.2208H2.581C1.15555 10.2208 0 9.0652 0 7.63976V7.45965C0 6.13368 1.07492 5.05876 2.40089 5.05876C2.47478 5.05876 2.54856 5.05534 2.62201 5.04855Z"/>
</mask>
<path d="M2.62201 5.04855L2.7141 6.0443L3.57153 5.965L3.6204 5.1053L2.62201 5.04855ZM11.6416 2.94764L10.7719 3.44126L11.1096 4.0361L11.7863 3.93711L11.6416 2.94764ZM3.6204 5.1053C3.73463 3.09536 5.40182 1.5 7.44092 1.5V-0.5C4.33527 -0.5 1.79769 1.92917 1.62362 4.99181L3.6204 5.1053ZM7.44092 1.5C8.86727 1.5 10.1127 2.27988 10.7719 3.44126L12.5113 2.45402C11.5113 0.692214 9.61597 -0.5 7.44092 -0.5V1.5ZM11.7863 3.93711C11.8937 3.92141 12.0021 3.91351 12.1107 3.91351V1.91351C11.9051 1.91351 11.7 1.92846 11.4969 1.95817L11.7863 3.93711ZM12.1107 3.91351C13.3485 3.91351 14.3519 4.91694 14.3519 6.15472H16.3519C16.3519 3.81237 14.4531 1.91351 12.1107 1.91351V3.91351ZM14.3519 6.15472V6.56714H16.3519V6.15472H14.3519ZM14.3519 6.56714C14.3519 8.03269 13.1638 9.22076 11.6983 9.22076V11.2208C14.2684 11.2208 16.3519 9.13726 16.3519 6.56714H14.3519ZM11.6983 9.22076H2.581V11.2208H11.6983V9.22076ZM2.581 9.22076C1.70784 9.22076 1 8.51292 1 7.63976H-1C-1 9.61749 0.603268 11.2208 2.581 11.2208V9.22076ZM1 7.63976V7.45965H-1V7.63976H1ZM1 7.45965C1 6.68596 1.6272 6.05876 2.40089 6.05876V4.05876C0.522633 4.05876 -1 5.58139 -1 7.45965H1ZM2.40089 6.05876C2.50558 6.05876 2.6101 6.05392 2.7141 6.0443L2.52991 4.0528C2.48702 4.05677 2.44397 4.05876 2.40089 4.05876V6.05876Z" fill="#828282" mask="url(#path-1-inside-1_349_4682)"/>
<path d="M4.96094 7.60618L7.64249 5.46094L10.3241 7.60618" stroke="#828282"/>
<path d="M7.64258 5.46094V12.5" stroke="#828282"/>
</svg>
