<svg width="55" height="54" viewBox="0 0 55 54" fill="none" xmlns="http://www.w3.org/2000/svg">
<g clip-path="url(#clip0_79_286)">
<path d="M46.1669 20.3866C46.0106 20.597 45.8783 20.8302 45.6956 21.0142C42.9737 23.7589 40.2446 26.4976 37.5156 29.2363C37.4134 29.3385 37.3124 29.4455 37.1958 29.5272C36.7293 29.8506 36.1005 29.615 35.9647 29.0644C35.925 28.9033 35.9214 28.7301 35.9214 28.563C35.9178 27.1792 35.919 25.7955 35.919 24.3263C35.2974 24.3768 34.6975 24.3828 34.1132 24.4814C31.5068 24.9202 29.5087 26.3545 27.9181 28.3947C27.3434 29.1329 26.8625 29.9456 26.3528 30.7319C26.0462 31.2043 25.7757 31.3751 25.3669 31.2993C24.987 31.2296 24.7935 30.9699 24.6913 30.4265C24.1226 27.3896 24.547 24.5031 26.0582 21.8064C27.8099 18.6794 30.4115 16.7234 34.0074 16.198C34.6254 16.1078 35.2481 16.0405 35.919 15.9564C35.919 15.8445 35.919 15.7159 35.919 15.5873C35.919 14.3225 35.9142 13.0578 35.9214 11.793C35.925 11.157 36.2929 10.7663 36.8339 10.8541C37.0311 10.8865 37.2451 11.0067 37.3893 11.1498C40.2062 13.9366 43.0146 16.7318 45.8194 19.5306C45.9601 19.6713 46.0526 19.86 46.1669 20.0259V20.3878V20.3866ZM37.5588 13.6252C37.5588 14.6712 37.5612 15.6221 37.5588 16.5731C37.5564 17.2848 37.2727 17.5782 36.5622 17.613C36.3818 17.6215 36.1991 17.6082 36.0212 17.6287C35.1976 17.7272 34.3645 17.7789 33.5566 17.9509C32.192 18.2418 30.9201 18.7552 29.8453 19.6989C28.0191 21.3003 26.8217 23.2696 26.3347 25.65C26.1785 26.4158 26.1292 27.2045 26.0318 27.9823C26.0715 27.992 26.1099 28.0028 26.1496 28.0124C26.2482 27.8813 26.348 27.7515 26.4466 27.6205C27.4889 26.2415 28.7176 25.0693 30.2168 24.1941C32.1788 23.0484 34.2888 22.5639 36.5538 22.7863C37.322 22.862 37.5588 23.1349 37.56 23.9068C37.56 24.7736 37.56 25.6416 37.5612 26.5084C37.5612 26.6046 37.5757 26.7008 37.5769 26.7152C39.7661 24.5536 41.9662 22.3811 44.0954 20.2784C41.9362 18.0807 39.7794 15.8854 37.56 13.6252H37.5588Z" fill="black"/>
<path d="M26.5659 43.1553C22.1465 43.1553 17.7258 43.1602 13.3064 43.1529C11.3287 43.1493 9.74297 41.9098 9.28491 40.0127C9.20076 39.6664 9.1695 39.2986 9.1695 38.9403C9.16349 32.5696 9.16349 26.199 9.16469 19.8283C9.16469 17.3637 10.9007 15.6145 13.3605 15.6013C15.1434 15.5916 16.9251 15.5964 18.7081 15.6013C19.3008 15.6025 19.635 15.8694 19.6747 16.3515C19.7143 16.8335 19.3633 17.2038 18.8235 17.2123C17.9927 17.2255 17.162 17.2111 16.33 17.2183C15.1867 17.2279 14.0398 17.193 12.9024 17.2784C11.7615 17.3637 10.9043 18.3279 10.8202 19.4652C10.8081 19.6215 10.7997 19.7778 10.7997 19.9341C10.7997 26.2326 10.8033 32.5312 10.7949 38.8297C10.7937 39.9093 11.1652 40.7761 12.1631 41.2498C12.5502 41.4337 13.0179 41.5215 13.4495 41.5227C22.2054 41.5383 30.9601 41.5371 39.716 41.5311C41.345 41.5311 42.3477 40.5152 42.3573 38.891C42.3633 37.916 42.3573 36.9398 42.3609 35.9648C42.3609 35.7976 42.3729 35.6269 42.4054 35.4634C42.4763 35.1016 42.7781 34.8539 43.1435 34.8383C43.509 34.8226 43.8336 35.0426 43.9334 35.3961C43.9755 35.544 43.9911 35.7039 43.9911 35.859C43.9959 36.8941 43.9971 37.9304 43.9923 38.9655C43.9815 41.3917 42.2202 43.1505 39.7881 43.1529C35.3807 43.1577 30.9721 43.1541 26.5647 43.1541L26.5659 43.1553Z" fill="black"/>
</g>
<defs>
<clipPath id="clip0_79_286">
<rect width="37.0013" height="32.3137" fill="white" transform="translate(9.16602 10.8428)"/>
</clipPath>
</defs>
</svg>
