<svg width="55" height="54" viewBox="0 0 55 54" fill="none" xmlns="http://www.w3.org/2000/svg">
<g clip-path="url(#clip0_79_260)">
<path d="M4.08545 7.5165C4.26623 7.51061 4.44823 7.5 4.62901 7.5C19.7359 7.5 34.8416 7.5 49.9485 7.5H50.5855V8.00444C50.5855 17.6796 50.5855 27.3548 50.5855 37.0299C50.5855 38.4678 49.7653 39.261 48.2753 39.261C42.3726 39.261 36.4686 39.261 30.5659 39.261H29.9556C30.0927 39.7466 30.2164 40.1909 30.3438 40.6329C30.4919 41.1421 30.6617 41.6442 30.7867 42.158C30.8619 42.468 31.0051 42.5682 31.3388 42.5658C33.7605 42.5505 36.1823 42.5576 38.604 42.5576C40.1559 42.5576 40.9566 43.3343 40.9579 44.8346C40.9579 45.3768 40.9579 45.919 40.9579 46.4941H36.8969V45.2189H39.5917C39.5917 44.9513 39.6062 44.7345 39.588 44.5199C39.5601 44.1664 39.3454 43.9566 38.9911 43.8965C38.8285 43.8694 38.6586 43.8811 38.4924 43.8811C31.0755 43.8811 23.6585 43.8811 16.2416 43.8811C15.169 43.8811 14.9761 44.098 15.1144 45.1906H37.3345V46.5012H13.6742C13.7203 45.6502 13.6766 44.7792 13.8368 43.9448C14.003 43.0809 14.8693 42.5623 15.8642 42.5599C18.3163 42.554 20.7684 42.5576 23.2205 42.5576C23.3855 42.5576 23.5505 42.5576 23.7544 42.5576C24.0735 41.4756 24.3889 40.409 24.7274 39.261C24.5139 39.261 24.3428 39.261 24.1718 39.261C18.3442 39.261 12.5167 39.2433 6.68921 39.2752C5.4213 39.2822 4.52103 38.8886 4.08545 37.6899V18.1027H5.44557V32.6208H49.1865V14.145H5.46255V19.7917H4.08545V7.5165ZM49.2217 34.0009H5.44799C5.44799 34.9733 5.44799 35.9126 5.44799 36.8519C5.44799 37.7783 5.60694 37.9363 6.54361 37.9374C20.4056 37.9374 34.2689 37.9374 48.1309 37.9374C48.2668 37.9374 48.4051 37.9469 48.5398 37.9316C48.9584 37.8856 49.2144 37.6628 49.2193 37.2444C49.2302 36.1731 49.2217 35.1017 49.2217 34.0009ZM5.47469 8.84243V12.7589H49.1974V8.84243H5.47469ZM25.1885 42.5234H29.4824C29.1791 41.4815 28.8927 40.4797 28.5846 39.4838C28.5542 39.3871 28.3783 39.274 28.2655 39.2704C27.6455 39.2492 27.0255 39.2492 26.4055 39.2704C26.2938 39.274 26.1179 39.3871 26.0876 39.4838C25.7782 40.4797 25.493 41.4815 25.1885 42.5234Z" fill="black"/>
<path d="M45.826 10.1826H35.5942C35.2377 10.1826 34.9487 10.4633 34.9487 10.8096C34.9487 11.1559 35.2377 11.4367 35.5942 11.4367H45.826C46.1825 11.4367 46.4715 11.1559 46.4715 10.8096C46.4715 10.4633 46.1825 10.1826 45.826 10.1826Z" fill="black"/>
<path d="M18.2753 16.084C21.3535 16.084 24.4329 16.084 27.511 16.084C28.2621 16.084 28.4526 16.2702 28.4526 17.0045C28.4526 21.073 28.4526 25.1404 28.4526 29.2089C28.4526 29.9385 28.2596 30.1235 27.505 30.1235C21.3474 30.1235 15.1911 30.1235 9.03357 30.1235C8.28254 30.1235 8.09326 29.9373 8.09326 29.203C8.09326 25.1345 8.09326 21.0671 8.09326 16.9986C8.09326 16.2678 8.28375 16.0852 9.04085 16.0852C12.119 16.0852 15.1984 16.0852 18.2765 16.0852L18.2753 16.084ZM9.44246 17.3793V27.3114C9.565 27.1381 9.64508 27.0309 9.72031 26.9201C10.9251 25.1628 12.1287 23.4031 13.336 21.647C13.7412 21.0577 14.2581 21.0565 14.6633 21.6423C15.327 22.6017 15.9834 23.5646 16.6459 24.5251C16.709 24.6171 16.7866 24.7008 16.8776 24.8139C16.9917 24.6454 17.0827 24.5145 17.1676 24.3814C18.2766 22.6582 19.3831 20.9339 20.492 19.2108C20.9762 18.4577 21.4785 18.4589 21.9638 19.2144C23.5872 21.7377 25.2082 24.2611 26.8316 26.7833C26.9068 26.9 26.9929 27.0096 27.1179 27.1864V17.3781H9.44246V17.3793ZM26.6035 28.8294C24.8029 26.0326 23.0303 23.2794 21.2285 20.4802C19.4146 23.2994 17.6468 26.0479 15.8584 28.8294H26.6047H26.6035ZM14.0045 22.9753C12.6504 24.9506 11.3328 26.8717 9.97874 28.8459C11.4189 28.8459 12.7693 28.8494 14.1198 28.8388C14.2156 28.8388 14.3479 28.754 14.4025 28.6715C14.94 27.8571 15.469 27.0367 15.9846 26.2094C16.038 26.1245 16.0295 25.9465 15.9725 25.8617C15.3403 24.9176 14.6937 23.9818 14.0045 22.9765V22.9753Z" fill="black"/>
<path d="M35.0189 24.0422C33.7607 24.0422 32.5013 24.0434 31.2431 24.0422C30.725 24.0422 30.4253 23.803 30.4253 23.4046C30.4253 23.0062 30.7238 22.767 31.2418 22.767C33.7595 22.7646 43.2075 22.7658 45.7239 22.767C46.242 22.767 46.5429 23.0051 46.5429 23.4034C46.5429 23.8006 46.242 24.0411 45.7251 24.0422C44.4669 24.0446 36.2771 24.0422 35.0189 24.0422Z" fill="black"/>
<path d="M34.9776 26.6584C33.7328 26.6584 32.4879 26.6596 31.2431 26.6584C30.725 26.6584 30.4253 26.4192 30.4253 26.0208C30.4253 25.6225 30.725 25.3844 31.2431 25.3832C33.7607 25.3808 43.2087 25.382 45.7251 25.3832C46.2432 25.3832 46.5429 25.6225 46.5441 26.0196C46.5441 26.4168 46.2432 26.6561 45.7263 26.6573C44.4536 26.6596 36.2516 26.6573 34.9788 26.6573L34.9776 26.6584Z" fill="black"/>
<path d="M36.6231 21.4886C35.9121 21.4886 35.1999 21.4922 34.4889 21.4875C34.006 21.4839 33.7124 21.2376 33.7124 20.851C33.7124 20.4621 34.0036 20.2157 34.4889 20.2146C35.9388 20.211 44.3191 20.211 45.769 20.2146C46.2519 20.2157 46.5468 20.4644 46.5468 20.851C46.5468 21.2364 46.2519 21.4851 45.7702 21.4886C45.0313 21.4934 37.362 21.4898 36.6231 21.4898V21.4886Z" fill="black"/>
<path d="M31.3984 21.4892C31.3305 21.4892 31.2613 21.4904 31.1934 21.4892C30.7141 21.4786 30.4205 21.2311 30.4254 20.8433C30.4314 20.4556 30.7214 20.2222 31.2104 20.2139C31.3742 20.2116 31.5392 20.208 31.703 20.2151C32.1191 20.2352 32.3946 20.4968 32.3897 20.8586C32.3848 21.2181 32.107 21.468 31.686 21.488C31.5901 21.4927 31.4943 21.488 31.3984 21.488V21.4892Z" fill="black"/>
<path d="M9.32616 11.4433C9.25821 11.4433 9.18906 11.4445 9.12111 11.4433C8.64185 11.4327 8.34823 11.1852 8.35309 10.7974C8.35915 10.4097 8.64913 10.1763 9.1381 10.168C9.30189 10.1657 9.4669 10.1621 9.6307 10.1692C10.0469 10.1893 10.3223 10.4509 10.3174 10.8127C10.3126 11.1722 10.0347 11.4221 9.61371 11.4421C9.51786 11.4468 9.42201 11.4421 9.32616 11.4421V11.4433Z" fill="black"/>
</g>
<defs>
<clipPath id="clip0_79_260">
<rect width="46.5" height="39" fill="white" transform="translate(4.0835 7.5)"/>
</clipPath>
</defs>
</svg>
