<svg width="54" height="54" viewBox="0 0 54 54" fill="none" xmlns="http://www.w3.org/2000/svg">
<g clip-path="url(#clip0_79_234)">
<path d="M40.4996 26.9938C40.4996 33.3169 40.4996 39.6401 40.4996 45.9632C40.4996 47.7026 39.6212 48.581 37.8805 48.581C30.6214 48.581 23.3623 48.581 16.1044 48.581C14.3887 48.581 13.5003 47.6976 13.5003 45.9957C13.499 33.3344 13.499 20.6719 13.499 8.01064C13.499 6.30128 14.3825 5.41657 16.0943 5.41657C23.3685 5.41657 30.6439 5.41532 37.9181 5.41657C39.6187 5.41657 40.4996 6.30879 40.4996 8.02441C40.4996 14.3475 40.4996 20.6707 40.4996 26.9938ZM39.1482 40.4897V12.6044H14.8367V40.4897H39.1482ZM39.1832 41.8537H14.818C14.818 43.3979 14.7917 44.9108 14.843 46.4212C14.8517 46.6802 15.1421 46.9968 15.3873 47.1582C15.5951 47.2959 15.9254 47.2759 16.202 47.2759C23.3973 47.2809 30.5939 47.2809 37.7892 47.2796C37.9757 47.2796 38.1646 47.2796 38.3498 47.2546C38.8203 47.1883 39.1707 46.8542 39.1757 46.3824C39.1945 44.8858 39.1832 43.3879 39.1832 41.855V41.8537ZM14.8192 11.2392H39.1845C39.1845 10.0103 39.2183 8.81026 39.1582 7.61396C39.1444 7.33866 38.8541 7.01081 38.6013 6.83562C38.3999 6.69546 38.0632 6.72299 37.7867 6.72299C30.5939 6.71799 23.3998 6.71924 16.207 6.72049C16.0042 6.72049 15.7978 6.71674 15.6013 6.75303C15.1521 6.83562 14.8417 7.12343 14.8305 7.57016C14.7992 8.78273 14.8192 9.99781 14.8192 11.2379V11.2392Z" fill="black"/>
<path d="M22.2259 25.0149C20.7443 25.0149 19.2615 25.0174 17.7798 25.0149C17.0929 25.0136 16.8801 24.8021 16.8789 24.1252C16.8776 21.2082 16.8776 18.2901 16.8789 15.3731C16.8789 14.7099 17.0778 14.5097 17.7436 14.5097C20.7393 14.5072 23.7338 14.5072 26.7296 14.5097C27.4241 14.5097 27.613 14.6999 27.613 15.4094C27.6155 18.3113 27.6168 21.2132 27.613 24.1151C27.613 24.7984 27.3941 25.0149 26.7183 25.0161C25.2204 25.0199 23.7226 25.0161 22.2259 25.0161V25.0149ZM18.2053 23.6734H26.2728V15.8461H18.2053V23.6734Z" fill="black"/>
<path d="M27.2799 27.8202C30.3682 27.8202 33.4566 27.8202 36.5462 27.8202C36.7176 27.8202 36.8903 27.8139 37.0605 27.8352C37.4009 27.8778 37.5936 28.0855 37.6161 28.4246C37.6374 28.7612 37.476 28.999 37.1456 29.0853C36.9829 29.1279 36.8065 29.1304 36.6363 29.1304C30.3808 29.1329 24.1264 29.1329 17.8709 29.1304C17.7007 29.1304 17.5243 29.1266 17.3616 29.0841C17.0337 28.9965 16.8661 28.7587 16.8923 28.4221C16.9186 28.088 17.1151 27.879 17.4542 27.8365C17.6231 27.8152 17.7971 27.8214 17.9685 27.8214C21.0731 27.8214 24.1765 27.8214 27.2811 27.8214L27.2799 27.8202Z" fill="black"/>
<path d="M19.8502 31.7861C20.5835 31.7861 21.3168 31.7811 22.0501 31.7873C22.5907 31.7923 22.8397 32.0176 22.8435 32.5494C22.856 34.0323 22.856 35.5151 22.8435 36.998C22.8385 37.5223 22.5845 37.7576 22.0451 37.7613C20.5935 37.7688 19.142 37.7688 17.6916 37.7613C17.1085 37.7588 16.882 37.5173 16.8807 36.9229C16.877 35.4876 16.877 34.051 16.8807 32.6157C16.882 32.0213 17.1085 31.7923 17.6966 31.7873C18.4149 31.7811 19.1319 31.7861 19.8502 31.7861ZM18.2185 33.1125V36.4236H21.5008V33.1125H18.2185Z" fill="black"/>
<path d="M24.2759 34.779C24.2759 34.0457 24.2709 33.3124 24.2772 32.5791C24.2822 32.0197 24.5124 31.7895 25.0793 31.787C26.5296 31.782 27.9812 31.782 29.4315 31.787C29.9934 31.7895 30.2299 32.0172 30.2337 32.5853C30.2437 34.0369 30.2437 35.4872 30.2337 36.9388C30.2299 37.527 29.9922 37.7585 29.4003 37.761C27.965 37.7672 26.5296 37.7685 25.0943 37.761C24.5049 37.7585 24.2784 37.5219 24.2747 36.9326C24.2697 36.2143 24.2747 35.4972 24.2747 34.779H24.2759ZM28.896 36.4308V33.1297H25.6199V36.4308H28.896Z" fill="black"/>
<path d="M34.6346 31.7861C35.3679 31.7861 36.1012 31.7811 36.8345 31.7873C37.3788 31.7923 37.6191 32.0113 37.6229 32.5469C37.6341 34.0285 37.6341 35.5114 37.6229 36.993C37.6191 37.5236 37.3751 37.7576 36.8357 37.7601C35.3692 37.7688 33.9026 37.7701 32.4372 37.7601C31.9066 37.7563 31.6776 37.5098 31.6751 36.9717C31.6701 35.5051 31.6689 34.0385 31.6751 32.5719C31.6776 32.0138 31.9104 31.7911 32.4823 31.7873C33.1993 31.7811 33.9176 31.7861 34.6346 31.7861ZM33.0053 36.4236H36.2939V33.1213H33.0053V36.4236Z" fill="black"/>
<path d="M34.0264 22.5795C34.9624 22.5795 35.8972 22.5757 36.8332 22.5807C37.3463 22.5832 37.6241 22.8235 37.6166 23.2352C37.6103 23.6281 37.3375 23.8796 36.8582 23.8809C34.9712 23.8884 33.0854 23.8884 31.1983 23.8809C30.7303 23.8784 30.455 23.6081 30.46 23.2139C30.465 22.8135 30.7278 22.5857 31.2196 22.582C32.1556 22.5757 33.0904 22.5807 34.0264 22.5795Z" fill="black"/>
<path d="M34.0503 15.6308C34.97 15.6308 35.8898 15.6258 36.8095 15.6333C37.3338 15.6371 37.6116 15.8648 37.6179 16.269C37.6242 16.6744 37.3388 16.936 36.8333 16.9385C34.9775 16.9472 33.123 16.946 31.2672 16.9385C30.7467 16.936 30.4676 16.6957 30.4601 16.2915C30.4526 15.8636 30.7304 15.6358 31.291 15.6321C32.2108 15.6258 33.1305 15.6308 34.0503 15.6308Z" fill="black"/>
<path d="M34.0715 19.1058C34.9762 19.1058 35.8797 19.1033 36.7844 19.1058C37.3388 19.1083 37.6228 19.3373 37.6166 19.7603C37.6103 20.167 37.33 20.4035 36.8119 20.406C34.9562 20.411 33.1017 20.4123 31.2459 20.406C30.7366 20.4048 30.455 20.1507 30.46 19.7415C30.465 19.3298 30.7353 19.1096 31.2659 19.1071C32.2019 19.1021 33.1367 19.1058 34.0727 19.1058H34.0715Z" fill="black"/>
<path d="M26.9768 45.2003C26.2447 45.2003 25.5114 45.2065 24.7794 45.1978C24.3139 45.1928 24.0198 44.9325 24.0186 44.5546C24.0186 44.1754 24.3089 43.9026 24.7756 43.9001C26.256 43.8914 27.7363 43.8914 29.2167 43.9001C29.6847 43.9026 29.975 44.1717 29.9775 44.5508C29.98 44.9287 29.6835 45.1915 29.2205 45.1978C28.4722 45.2065 27.7251 45.2003 26.9768 45.2003Z" fill="black"/>
<path d="M25.6032 9.65297C25.3542 9.65297 25.1027 9.67299 24.8562 9.64796C24.467 9.60917 24.2192 9.3176 24.2543 8.95221C24.2906 8.56804 24.5196 8.36281 24.9012 8.3528C25.368 8.34154 25.836 8.33654 26.3015 8.35531C26.6819 8.37032 26.9097 8.58681 26.9247 8.97348C26.9397 9.36265 26.7169 9.58915 26.3478 9.64171C26.1038 9.67674 25.851 9.64796 25.602 9.64796C25.602 9.64796 25.602 9.65047 25.602 9.65172L25.6032 9.65297Z" fill="black"/>
<path d="M28.9727 9.6562C28.5347 9.64493 28.2244 9.35337 28.2419 8.9717C28.2594 8.59129 28.5735 8.34227 29.0278 8.34977C29.4845 8.35728 29.7648 8.62007 29.7473 9.02551C29.731 9.41969 29.4257 9.66871 28.9727 9.65745V9.6562Z" fill="black"/>
</g>
<defs>
<clipPath id="clip0_79_234">
<rect width="27.0019" height="43.1657" fill="white" transform="translate(13.499 5.41699)"/>
</clipPath>
</defs>
</svg>
