<svg width="54" height="54" viewBox="0 0 54 54" fill="none" xmlns="http://www.w3.org/2000/svg">
<g clip-path="url(#clip0_79_274)">
<path d="M33.1588 17.487C33.8022 16.7121 34.4455 15.9385 35.0888 15.1637C37.3851 12.3978 39.6779 9.62957 41.9789 6.86839C42.6962 6.00787 43.8901 5.81299 44.8915 6.36476C45.7403 6.832 46.2216 8.05762 45.8964 8.99798C45.8025 9.26916 45.6405 9.52509 45.4715 9.75988C42.7983 13.4919 40.1181 17.2193 37.4403 20.9478C36.0621 22.8661 34.6838 24.7867 33.3009 26.7015C33.1506 26.9093 33.0226 27.0971 33.126 27.3742C33.1694 27.4904 33.1377 27.636 33.1377 27.7674C33.1377 33.4894 33.1377 39.2125 33.1377 44.9344C33.1377 47.3117 31.5446 48.8966 29.1579 48.8966C23.4196 48.8966 17.6812 48.8966 11.9428 48.8966C9.61247 48.8966 8.0053 47.3094 8.0053 44.9849C8.00295 33.001 8.00295 21.0171 8.0053 9.03202C8.0053 7.0304 9.13114 5.56059 10.9402 5.19078C11.2102 5.13561 11.4943 5.12504 11.7714 5.12504C16.3065 5.1133 20.8415 5.10508 25.3766 5.10156C26.6527 5.10156 27.93 5.1133 29.2061 5.12269C31.5329 5.13913 33.0579 6.66412 33.0637 8.99211C33.0696 11.6476 33.0649 14.3032 33.0649 16.9599C33.0649 17.1195 33.0649 17.2804 33.0649 17.44C33.0966 17.4553 33.1271 17.4717 33.1588 17.487ZM31.7395 43.0667V28.8851C31.23 29.5918 30.7815 30.2046 30.346 30.8256C30.2309 30.99 30.1124 31.1731 30.0666 31.3645C29.5712 33.4436 28.4359 35.1212 26.7971 36.4478C25.0889 37.8307 23.0568 38.487 20.919 38.8439C20.4013 38.9307 20.0632 38.4482 20.1864 37.88C20.5738 36.0909 20.9988 34.3088 21.3205 32.5079C21.5917 30.9947 22.0472 29.5836 23.011 28.3673C23.6168 27.6031 24.3435 27.0126 25.305 26.7426C25.4458 26.7027 25.5902 26.5958 25.6853 26.4819C27.6318 24.1504 29.5723 21.8166 31.5059 19.4745C31.6174 19.3395 31.7031 19.1376 31.7043 18.9662C31.716 15.5922 31.7219 12.217 31.7066 8.84301C31.7019 7.64908 30.8367 6.62538 29.6522 6.52559C28.5639 6.43402 12.8843 6.47628 11.9768 6.47628C10.2746 6.47628 9.36241 7.38494 9.36124 9.07898C9.36124 20.2435 9.36124 31.4079 9.36124 42.5724C9.36124 42.7297 9.36124 42.887 9.36124 43.0678H31.7395V43.0667ZM9.38589 44.4907C9.2861 45.3993 9.42229 46.1918 10.0715 46.8386C10.6186 47.3833 11.2901 47.5442 12.0402 47.543C17.2632 47.536 22.4862 47.5395 27.7093 47.5383C28.2669 47.5383 28.8245 47.5536 29.3822 47.5324C31.0022 47.469 32.0447 46.1166 31.7195 44.4907H9.38589ZM21.8406 37.2754C23.3327 36.8869 24.7215 36.3633 25.9189 35.4382C27.3277 34.3499 28.3092 32.9482 28.76 31.2178C29.0722 30.0203 28.5627 28.9989 27.4392 28.3943C26.3967 27.8332 25.3766 27.987 24.5266 28.8792C23.7659 29.6763 23.2294 30.6049 23.0134 31.7026C22.8244 32.6641 22.6224 33.6232 22.4205 34.5824C22.235 35.464 22.0413 36.3457 21.8417 37.2743L21.8406 37.2754ZM29.8729 29.1351C31.8076 26.4444 33.6906 23.8288 35.5655 21.2073C35.6406 21.1016 35.6899 20.9291 35.6641 20.8058C35.441 19.721 35.198 18.6398 34.9421 17.4729C32.3288 20.6191 29.7625 23.7078 27.1763 26.8212C28.3784 27.2732 29.3258 27.9201 29.8729 29.1363V29.1351ZM36.8005 19.4463C36.905 19.3266 36.9566 19.2773 36.9977 19.2198C39.4701 15.7777 41.9437 12.3368 44.4137 8.89232C44.726 8.45678 44.6555 7.87566 44.2799 7.59038C43.8936 7.29689 43.3336 7.37202 42.9862 7.78996C40.7427 10.4842 38.5028 13.1808 36.271 15.8845C36.1748 16.0007 36.1125 16.2109 36.1419 16.3564C36.3391 17.359 36.5657 18.3569 36.8017 19.4475L36.8005 19.4463Z" fill="black"/>
<path d="M20.5382 14.1255C22.0198 14.1255 23.5013 14.1243 24.9829 14.1255C25.692 14.1255 25.9009 14.3357 25.9009 15.0436C25.9033 16.7153 25.9033 18.387 25.9009 20.06C25.9009 20.762 25.6884 20.9686 24.9723 20.9698C22.0092 20.9721 19.0449 20.9721 16.0818 20.9698C15.3704 20.9698 15.1697 20.7643 15.1685 20.0506C15.1673 18.3788 15.1673 16.7071 15.1685 15.0342C15.1685 14.3286 15.3739 14.1279 16.0924 14.1267C17.574 14.1243 19.0555 14.1267 20.5371 14.1267L20.5382 14.1255ZM16.5667 19.5645H24.4875V15.5308H16.5667V19.5645Z" fill="black"/>
<path d="M18.8316 23.8961C20.1499 23.8961 21.4683 23.8914 22.7879 23.8984C23.3197 23.9008 23.5885 24.1661 23.5627 24.631C23.5439 24.9667 23.3725 25.178 23.0403 25.2426C22.9264 25.2649 22.8078 25.2708 22.6916 25.2708C20.1136 25.272 17.5343 25.2743 14.9563 25.2708C14.3869 25.2708 14.1357 25.0841 14.0981 24.6662C14.0535 24.179 14.3247 23.9008 14.8776 23.8984C16.196 23.8925 17.5144 23.8961 18.8339 23.8961H18.8316Z" fill="black"/>
<path d="M16.9414 29.4353C16.2523 29.4353 15.5632 29.44 14.8741 29.4342C14.3528 29.4295 14.0934 29.1947 14.0934 28.7509C14.0934 28.306 14.3411 28.0677 14.8717 28.0641C16.25 28.0536 17.627 28.0547 19.0053 28.0641C19.5441 28.0677 19.8353 28.3353 19.8212 28.772C19.8071 29.197 19.5277 29.4306 19.0076 29.4353C18.3185 29.4412 17.6294 29.4365 16.9403 29.4365L16.9414 29.4353Z" fill="black"/>
<path d="M16.6327 32.1666C17.2338 32.1666 17.8348 32.1607 18.4359 32.1678C18.9219 32.1736 19.1919 32.4131 19.206 32.8252C19.2201 33.249 18.9395 33.5202 18.4336 33.5237C17.2314 33.5331 16.0293 33.5343 14.8283 33.5237C14.327 33.519 14.0922 33.283 14.0934 32.8463C14.0934 32.4155 14.3434 32.176 14.8306 32.1689C15.4317 32.1596 16.0328 32.1666 16.6339 32.1666H16.6327Z" fill="black"/>
<path d="M20.498 45.2843C21.1144 45.2843 21.7295 45.2796 22.3459 45.2855C22.8272 45.2902 23.0925 45.5355 23.0949 45.9558C23.0972 46.3785 22.8401 46.6285 22.3529 46.632C21.1214 46.6403 19.8887 46.6403 18.6572 46.632C18.17 46.6285 17.9082 46.3808 17.9059 45.9629C17.9036 45.5355 18.1853 45.2878 18.6936 45.2843C19.2947 45.2796 19.8958 45.2843 20.498 45.2843Z" fill="black"/>
<path d="M20.6038 8.08108C21.8963 8.08108 23.1888 8.07873 24.4814 8.08108C25.1423 8.08343 25.4804 8.33818 25.4487 8.83007C25.41 9.41588 25.0097 9.55441 24.5037 9.55324C21.8986 9.55089 19.2924 9.55441 16.6874 9.54972C16.0934 9.54972 15.7412 9.26562 15.7341 8.81951C15.7271 8.36283 16.0675 8.08343 16.6662 8.08108C17.9788 8.07521 19.2924 8.0799 20.6049 8.0799L20.6038 8.08108Z" fill="black"/>
</g>
<defs>
<clipPath id="clip0_79_274">
<rect width="37.9968" height="43.7962" fill="white" transform="translate(8.00159 5.10156)"/>
</clipPath>
</defs>
</svg>
