<svg width="55" height="54" viewBox="0 0 55 54" fill="none" xmlns="http://www.w3.org/2000/svg">
<path d="M4.59006 30.2971H5.24027C11.2035 30.2971 17.1653 30.2971 23.1286 30.2971C23.2825 30.2971 23.4392 30.2889 23.5918 30.3013C24.0661 30.3397 24.3575 30.6421 24.3685 31.0969C24.3795 31.5752 24.0839 31.8981 23.5863 31.9393C23.4159 31.9531 23.2427 31.9448 23.0708 31.9448C17.1255 31.9448 11.1801 31.9448 5.23477 31.9448H4.57906C4.57906 33.3878 4.56119 34.7909 4.59006 36.1926C4.59831 36.5952 4.90211 36.8302 5.30625 36.8824C5.47533 36.9044 5.64991 36.8934 5.82175 36.8934C11.5609 36.8934 17.3001 36.8934 23.0392 36.8934C23.1767 36.8934 23.3141 36.8907 23.4516 36.8934C24.0413 36.9085 24.3644 37.1958 24.3699 37.7056C24.3754 38.2168 24.051 38.5329 23.4722 38.5384C22.2873 38.548 21.101 38.5425 19.9146 38.5425C19.4871 38.5425 19.061 38.5425 18.7943 38.5425C18.3324 39.6886 17.909 40.7413 17.4664 41.842C17.5228 41.842 17.6781 41.842 17.8334 41.842C19.6383 41.842 21.4419 41.842 23.2468 41.842C23.4007 41.842 23.5602 41.8283 23.7087 41.8585C24.1114 41.9423 24.3383 42.2076 24.3575 42.6143C24.3781 43.0417 24.1747 43.3413 23.7527 43.4581C23.6234 43.4939 23.4805 43.4897 23.343 43.4897C20.1813 43.4911 17.0196 43.4911 13.8579 43.4897C13.7205 43.4897 13.5789 43.4966 13.4483 43.4636C13.0263 43.3564 12.8091 43.0692 12.8215 42.6377C12.8338 42.2048 13.0675 41.93 13.4978 41.8558C13.682 41.8242 13.8813 41.8132 14.0628 41.8462C14.8463 41.9918 15.3522 41.6057 15.8031 41.0299C16.3735 40.3015 16.8231 39.532 16.944 38.5411H16.3625C12.805 38.5411 9.24874 38.5411 5.69115 38.5411C3.90961 38.5453 2.91711 37.5503 2.91711 35.7679C2.91711 28.277 2.91711 20.7847 2.91711 13.2938C2.91711 11.4812 3.90411 10.5 5.72552 10.5C16.001 10.5 26.2765 10.5 36.5534 10.5C37.9844 10.5 39.069 11.4125 39.2051 12.7166C39.2711 13.3529 38.9934 13.7569 38.4628 13.7981C37.9858 13.8353 37.6504 13.5604 37.572 13.0671C37.451 12.3167 37.2558 12.1491 36.4833 12.1491C26.2078 12.1491 15.9323 12.1491 5.65541 12.1491C4.86637 12.1491 4.57082 12.4047 4.57082 13.1152C4.56669 18.7509 4.56944 24.3866 4.57082 30.0223C4.57082 30.0896 4.58181 30.157 4.59281 30.2958L4.59006 30.2971Z" fill="black"/>
<path d="M44.1645 20.4193H27.6934V35.2472H28.2186C31.4668 35.2472 34.7151 35.2472 37.9634 35.2472C38.1353 35.2472 38.3085 35.2376 38.4789 35.2582C38.9339 35.3132 39.2364 35.6595 39.2061 36.1033C39.1759 36.5555 38.9312 36.8344 38.4707 36.888C38.3016 36.9086 38.127 36.8963 37.9552 36.8963C34.5529 36.8963 31.1507 36.8963 27.6632 36.8963C27.6632 37.2288 27.6632 37.5463 27.6632 37.8637C27.6632 38.8257 27.6618 39.789 27.6632 40.751C27.6646 41.592 27.9203 41.8449 28.7794 41.8449C31.9067 41.8462 35.0354 41.8476 38.1628 41.8435C38.56 41.8435 38.9216 41.8847 39.1181 42.2942C39.3656 42.8068 39.0824 43.3813 38.5243 43.4775C38.3731 43.5036 38.2164 43.4939 38.061 43.4953C34.9681 43.4953 31.8737 43.4981 28.7808 43.4953C27.0034 43.4953 26.0122 42.4963 26.0109 40.7125C26.0109 33.2202 26.0109 25.7279 26.0109 18.2343C26.0109 16.4478 27.0006 15.4473 28.7753 15.4473C33.5357 15.4459 38.2961 15.4459 43.0579 15.4473C44.8064 15.4473 45.8099 16.4519 45.8113 18.1944C45.8127 19.6896 45.814 21.1847 45.8113 22.6799C45.8099 23.3519 45.5281 23.6954 44.9906 23.6982C44.4545 23.6996 44.1672 23.3533 44.1631 22.6854C44.159 21.9488 44.1631 21.2108 44.1631 20.4207L44.1645 20.4193ZM44.1439 18.7262C44.2195 17.2558 44.0765 17.1005 42.6991 17.1005C38.3525 17.1005 34.0058 17.1005 29.6592 17.1005C29.2647 17.1005 28.8688 17.0909 28.4742 17.1046C28.0412 17.1184 27.7512 17.352 27.6852 17.7753C27.6371 18.0858 27.6756 18.4088 27.6756 18.7262H44.1439Z" fill="black"/>
<path d="M40.8668 34.4229C40.8668 32.2942 40.8654 30.1641 40.8668 28.0355C40.8696 26.3658 41.8909 25.3516 43.5708 25.3502C45.6314 25.3488 47.6919 25.3475 49.7539 25.3502C51.3884 25.353 52.4125 26.3823 52.4139 28.03C52.4166 32.2887 52.4166 36.5474 52.4139 40.8062C52.4139 42.4731 51.387 43.4928 49.7086 43.4969C47.6645 43.501 45.6217 43.501 43.5776 43.4969C41.8744 43.4928 40.8682 42.4759 40.8668 40.7608C40.8654 38.6486 40.8668 36.5364 40.8668 34.4243V34.4229ZM42.5563 30.3181V38.5167H50.7354V30.3181H42.5563ZM42.5219 28.6044H50.7615C50.7615 28.3048 50.778 28.0465 50.7574 27.7908C50.7189 27.314 50.4495 27.0103 49.9684 27.0075C47.7538 26.9938 45.5406 26.9938 43.3261 27.0062C42.8449 27.0089 42.5686 27.2989 42.526 27.7785C42.5027 28.0478 42.5219 28.3199 42.5219 28.6058V28.6044ZM42.5178 40.2139C42.5178 40.5107 42.5082 40.7512 42.5191 40.9903C42.5453 41.5208 42.8284 41.8355 43.3549 41.8382C45.5516 41.8506 47.7483 41.8478 49.945 41.8382C50.4 41.8355 50.6887 41.573 50.7464 41.1209C50.7835 40.824 50.7533 40.519 50.7533 40.2139H42.5164H42.5178Z" fill="black"/>
<path d="M21.0395 35.2459C20.7495 35.2459 20.4581 35.2583 20.168 35.2418C19.6938 35.2157 19.4065 34.9133 19.3941 34.4571C19.3817 34.0036 19.6539 33.6422 20.113 33.6161C20.7426 33.5803 21.3791 33.5762 22.0087 33.6174C22.4637 33.6477 22.696 33.9679 22.7097 34.42C22.7235 34.868 22.4211 35.1896 21.9633 35.2404C21.9289 35.2445 21.8946 35.2445 21.8602 35.2445C21.5866 35.2445 21.3131 35.2445 21.0395 35.2445V35.2459Z" fill="black"/>
<path d="M35.8948 40.19C35.6199 40.19 35.3449 40.2038 35.07 40.1873C34.5724 40.1557 34.2645 39.8286 34.2686 39.3586C34.2741 38.9092 34.5669 38.5739 35.037 38.5547C35.6199 38.5299 36.2055 38.5299 36.7883 38.5547C37.2598 38.5739 37.554 38.9024 37.5623 39.3517C37.5705 39.8217 37.264 40.1557 36.7705 40.1873C36.479 40.2051 36.1862 40.19 35.8948 40.1914V40.19Z" fill="black"/>
</svg>
