<?xml version="1.0" encoding="UTF-8" standalone="no"?>
<svg width="70px" height="70px" viewBox="0 0 70 70" version="1.1" xmlns="http://www.w3.org/2000/svg" xmlns:xlink="http://www.w3.org/1999/xlink">
    <!-- Generator: Sketch 42 (36781) - http://www.bohemiancoding.com/sketch -->
    <title>icon-appsite</title>
    <desc>Created with Sketch.</desc>
    <defs></defs>
    <g id="Slice" stroke="none" stroke-width="1" fill="none" fill-rule="evenodd">
        <g id="Artboard-1-Copy" transform="translate(-590.000000, -141.000000)" fill="#FFFFFF">
            <g id="Group-Copy" transform="translate(594.000000, 144.000000)">
                <path d="M31,62 C48.1208272,62 62,48.1208272 62,31 C62,13.8791728 48.1208272,0 31,0 C13.8791728,0 0,13.8791728 0,31 C0,48.1208272 13.8791728,62 31,62 L31,62 Z M31,60 C14.9837423,60 2,47.0162577 2,31 C2,14.9837423 14.9837423,2 31,2 C47.0162577,2 60,14.9837423 60,31 C60,47.0162577 47.0162577,60 31,60 L31,60 Z" id="Oval-1" fill-rule="nonzero"></path>
                <g id="Page-1" transform="translate(11.000000, 14.000000)">
                    <path d="M14.7178169,6.11762222 C13.8899976,6.11762222 13.2186482,5.44851111 13.2186482,4.62295556 C13.2186482,3.79762222 13.8899976,3.12851111 14.7178169,3.12851111 C15.5456361,3.12851111 16.2169855,3.79762222 16.2169855,4.62295556 C16.2169855,5.44851111 15.5456361,6.11762222 14.7178169,6.11762222 Z M10.3148169,6.11762222 C9.4867747,6.11762222 8.81564819,5.44851111 8.81564819,4.62295556 C8.81564819,3.79762222 9.4867747,3.12851111 10.3148169,3.12851111 C11.1426361,3.12851111 11.8137627,3.79762222 11.8137627,4.62295556 C11.8137627,5.44851111 11.1426361,6.11762222 10.3148169,6.11762222 Z M5.91159398,6.11762222 C5.0837747,6.11762222 4.41264819,5.44851111 4.41264819,4.62295556 C4.41264819,3.79762222 5.0837747,3.12851111 5.91159398,3.12851111 C6.73963614,3.12851111 7.41076265,3.79762222 7.41076265,4.62295556 C7.41076265,5.44851111 6.73963614,6.11762222 5.91159398,6.11762222 Z" id="Stroke-1"></path>
                    <path d="M21.5299481,24.611194 C22.8232249,24.611194 23.8703556,23.5672079 23.8703556,22.2806676 C23.8703556,20.994351 22.8231972,19.9503924 21.5299481,19.9503924 C20.236699,19.9503924 19.1895406,20.994351 19.1895406,22.2806676 C19.1895406,23.5672079 20.2366712,24.611194 21.5299481,24.611194 Z M21.5299481,26.511194 C19.1886073,26.511194 17.2895406,24.6178302 17.2895406,22.2806676 C17.2895406,19.943706 19.1886574,18.0503924 21.5299481,18.0503924 C23.8712387,18.0503924 25.7703556,19.943706 25.7703556,22.2806676 C25.7703556,24.6178302 23.8712889,26.511194 21.5299481,26.511194 Z M32.1962004,19.5469536 L32.1962004,25.0146328 L29.9753183,25.0146328 C29.8310343,25.457844 29.6517599,25.8882965 29.4394663,26.3025326 L31.0111262,27.8691927 L27.1350475,31.7332468 L25.5649175,30.1678319 C25.1482058,30.380356 24.7150483,30.5597651 24.2690347,30.7040461 L24.2690347,32.9177419 L18.7908614,32.9177419 L18.7908614,30.7040461 C18.3448479,30.5597651 17.9116904,30.380356 17.4949787,30.1678319 L15.9248487,31.7332468 L12.0487699,27.8691927 L13.6204299,26.3025326 C13.4081362,25.8882965 13.2288618,25.457844 13.0845778,25.0146328 L10.8636958,25.0146328 L10.8636958,19.5469536 L13.0845659,19.5469536 C13.2288569,19.1036771 13.4081301,18.6731855 13.6203934,18.2590174 L12.0488035,16.6924271 L15.9248752,12.8279953 L17.4949679,14.3936529 C17.9115859,14.1811573 18.3447446,14.0017801 18.7908614,13.8575033 L18.7908614,11.6438444 L24.2690347,11.6438444 L24.2690347,13.8575033 C24.7151516,14.0017801 25.1483103,14.1811573 25.5649282,14.3936529 L27.1350209,12.8279953 L31.0110926,16.6924271 L29.4395028,18.2590174 C29.6517661,18.6731855 29.8310393,19.1036771 29.9753302,19.5469536 L32.1962004,19.5469536 Z M30.2962004,21.4469536 L28.4989916,21.4469536 L28.3287224,20.7111216 C28.1556215,19.9630523 27.8584756,19.2517764 27.4510988,18.6022444 L27.0482485,17.9599294 L28.3199165,16.6923069 L27.1351408,15.5110891 L25.8627911,16.7798448 L25.2231493,16.3810768 C24.5715434,15.9748502 23.8575297,15.6784609 23.1060863,15.505622 L22.3690347,15.3360933 L22.3690347,13.5438444 L20.6908614,13.5438444 L20.6908614,15.3360933 L19.9538099,15.505622 C19.2023664,15.6784609 18.4883528,15.9748502 17.8367469,16.3810768 L17.197105,16.7798448 L15.9247553,15.5110891 L14.7399797,16.6923069 L16.0116477,17.9599294 L15.6087973,18.6022444 C15.2014206,19.2517764 14.9042747,19.9630523 14.7311737,20.7111216 L14.5609045,21.4469536 L12.7636958,21.4469536 L12.7636958,23.1146328 L14.5609045,23.1146328 L14.7311737,23.8504647 C14.9042297,24.5983398 15.2013184,25.3094232 15.6088756,25.9594669 L16.0115623,26.6017421 L14.7400133,27.869246 L15.9247819,29.0503391 L17.1970281,27.7819134 L17.8365473,28.1803852 C18.4887283,28.5867462 19.2028533,28.8832375 19.9538099,29.0559644 L20.6908614,29.225493 L20.6908614,31.0177419 L22.3690347,31.0177419 L22.3690347,29.225493 L23.1060863,29.0559644 C23.8570429,28.8832375 24.5711679,28.5867462 25.2233488,28.1803852 L25.8628681,27.7819134 L27.1351143,29.0503391 L28.3198829,27.869246 L27.0483339,26.6017421 L27.4510205,25.9594669 C27.8585777,25.3094232 28.1556664,24.5983398 28.3287224,23.8504647 L28.4989916,23.1146328 L30.2962004,23.1146328 L30.2962004,21.4469536 Z" id="Stroke-9" fill-rule="nonzero"></path>
                    <path d="M2.16593735,32.8948667 L0.265937349,32.8948667 L0.265937349,5.54464444 C0.265937349,2.60533328 2.6546885,0.223755556 5.59999157,0.223755556 L38.920088,0.223755556 L38.920088,9.02242222 L2.16593735,9.02242222 L2.16593735,32.8948667 Z M37.020088,7.12242222 L37.020088,2.12375556 L5.59999157,2.12375556 C3.70275247,2.12375556 2.16593735,3.65595561 2.16593735,5.54464444 L2.16593735,7.12242222 L37.020088,7.12242222 Z" id="Stroke-11" fill-rule="nonzero"></path>
                </g>
            </g>
        </g>
    </g>
</svg>