<svg width="60" height="60" viewBox="0 0 60 60" fill="none" xmlns="http://www.w3.org/2000/svg">
  <circle opacity="0.1" cx="30" cy="30" r="29.5" fill="#0043E0" stroke="#0043E0" />
  <path d="M31.4627 28.3693C31.7923 28.7924 31.9403 29.3291 31.8742 29.8614C31.8082 30.3937 31.5333 30.8779 31.1102 31.2075C30.6871 31.5372 30.1504 31.6852 29.6181 31.6191C29.0858 31.553 28.6016 31.2782 28.272 30.8551C27.9423 30.432 27.7943 29.8952 27.8604 29.363C27.9265 28.8307 28.2013 28.3465 28.6244 28.0169C29.0475 27.6872 29.5843 27.5392 30.1165 27.6053C30.6488 27.6714 31.133 27.9462 31.4627 28.3693L31.4627 28.3693Z" stroke="#0043E0" stroke-linecap="round" />
  <path d="M34.8907 22.1943C36.3086 23.1545 37.4215 24.5009 38.0978 26.0741" stroke="#0043E0" stroke-linecap="round" />
  <path d="M38.6356 27.7745C38.8875 28.9768 38.8895 30.2181 38.6415 31.4212" stroke="#0043E0" stroke-linecap="round" />
  <path d="M37.7334 33.8998C36.8265 35.5636 35.4154 36.897 33.703 37.7082C31.9905 38.5195 30.065 38.767 28.2031 38.415" stroke="#0043E0" stroke-linecap="round" />
  <path d="M24.5863 36.8489C23.1038 35.7671 21.9894 34.2562 21.3936 32.5204" stroke="#0043E0" stroke-linecap="round" />
  <path d="M21.0719 27.9084C21.4099 26.1638 22.259 24.5592 23.5113 23.2985C24.7637 22.0377 26.3626 21.1779 28.1049 20.8284" stroke="#0043E0" stroke-linecap="round" />
  <path d="M31.0879 20.7369C32.0191 20.8649 32.9243 21.1387 33.7703 21.5482" stroke="#0043E0" stroke-linecap="round" />
  <path d="M33.6779 25.2311C34.3571 25.8219 34.8896 26.5626 35.2333 27.3946" stroke="#0043E0" stroke-linecap="round" />
  <path d="M33.6779 25.2311C34.3571 25.8219 34.8896 26.5626 35.2333 27.3946" stroke="#0043E0" stroke-linecap="round" />
  <path d="M35.5941 28.656C35.809 29.944 35.5834 31.2669 34.9538 32.4108C34.3242 33.5548 33.3274 34.4532 32.1243 34.9608" stroke="#0043E0" stroke-linecap="round" />
  <path d="M30.2266 35.4063C28.792 35.4952 27.3754 35.0488 26.2509 34.1535" stroke="#0043E0" stroke-linecap="round" />
  <path d="M25.2291 33.1035C24.5076 32.1452 24.1007 30.987 24.0642 29.788C24.0277 28.589 24.3636 27.4082 25.0255 26.4078" stroke="#0043E0" stroke-linecap="round" />
  <path d="M26.7988 24.6828C27.4226 24.2945 28.1143 24.0281 28.8374 23.8978" stroke="#0043E0" stroke-linecap="round" />
  <path d="M29.9064 42.2197L29.8944 41.7199L28.3906 41.7561L29.6168 42.6273L29.9064 42.2197ZM41.4317 25.2443L41.0086 24.9778L40.8773 25.1863L40.9626 25.4174L41.4317 25.2443ZM43.7272 21.5984L44.1503 21.8648V21.8648L43.7272 21.5984ZM29.2814 17V16.5H27.7144L28.9918 17.4076L29.2814 17ZM29.2866 17.0037L29.2987 17.5036L30.8023 17.4673L29.5762 16.5961L29.2866 17.0037ZM17.7617 33.9793L18.1848 34.2457L18.3161 34.0372L18.2308 33.8061L17.7617 33.9793ZM15.4661 37.6252L15.043 37.3588H15.043L15.4661 37.6252ZM29.9119 42.2237V42.7237H31.479L30.2015 41.8161L29.9119 42.2237ZM29.9185 42.7196C37.0113 42.5486 42.7084 36.7456 42.7084 29.6117H41.7084C41.7084 36.2013 36.4458 41.562 29.8944 41.7199L29.9185 42.7196ZM42.7084 29.6117C42.7084 28.0164 42.4233 26.4866 41.9007 25.0711L40.9626 25.4174C41.4448 26.7236 41.7084 28.1363 41.7084 29.6117H42.7084ZM41.8548 25.5107L44.1503 21.8648L43.3041 21.332L41.0086 24.9778L41.8548 25.5107ZM44.1503 21.8648C45.6178 19.5341 43.9427 16.5 41.1885 16.5V17.5C43.1558 17.5 44.3523 19.6672 43.3041 21.332L44.1503 21.8648ZM41.1885 16.5H29.5967V17.5H41.1885V16.5ZM29.5967 16.5H29.2814V17.5H29.5967V16.5ZM28.9918 17.4076L28.997 17.4113L29.5762 16.5961L29.571 16.5924L28.9918 17.4076ZM29.2746 16.5039C22.1819 16.675 16.4849 22.478 16.4849 29.6117H17.4849C17.4849 23.0222 22.7474 17.6617 29.2987 17.5036L29.2746 16.5039ZM16.4849 29.6117C16.4849 31.2071 16.7701 32.737 17.2926 34.1525L18.2308 33.8061C17.7485 32.4999 17.4849 31.0872 17.4849 29.6117H16.4849ZM17.3386 33.7129L15.043 37.3588L15.8892 37.8916L18.1848 34.2457L17.3386 33.7129ZM15.043 37.3588C13.5755 39.6895 15.2506 42.7237 18.0048 42.7237V41.7237C16.0375 41.7237 14.841 39.5564 15.8892 37.8916L15.043 37.3588ZM18.0048 42.7237H29.9119V41.7237H18.0048V42.7237ZM30.2015 41.8161L30.196 41.8121L29.6168 42.6273L29.6224 42.6313L30.2015 41.8161Z" fill="#0043E0" />
</svg>
