<svg width="60" height="60" viewBox="0 0 60 60" fill="none" xmlns="http://www.w3.org/2000/svg">
  <circle opacity="0.5" cx="29.7973" cy="29.7973" r="29.2973" stroke="white" />
  <path d="M31.2477 28.18C31.5745 28.5995 31.7213 29.1317 31.6558 29.6595C31.5902 30.1873 31.3177 30.6674 30.8982 30.9943C30.4786 31.3212 29.9464 31.468 29.4186 31.4024C28.8909 31.3369 28.4107 31.0644 28.0839 30.6448C27.757 30.2253 27.6102 29.6931 27.6757 29.1653C27.7413 28.6375 28.0138 28.1574 28.4333 27.8305C28.8529 27.5037 29.3851 27.3568 29.9129 27.4224C30.4407 27.4879 30.9208 27.7604 31.2477 28.18L31.2477 28.18Z" stroke="white" stroke-linecap="round" />
  <path d="M34.6535 22.0474C36.0612 23.0008 37.1662 24.3376 37.8377 25.8995" stroke="white" stroke-linecap="round" />
  <path d="M38.3716 27.5879C38.6218 28.7816 38.6238 30.014 38.3775 31.2086" stroke="white" stroke-linecap="round" />
  <path d="M37.4758 33.6695C36.5754 35.3214 35.1744 36.6452 33.4742 37.4507C31.774 38.2562 29.8621 38.5019 28.0135 38.1524" stroke="white" stroke-linecap="round" />
  <path d="M24.4225 36.5975C22.9506 35.5234 21.8441 34.0233 21.2527 32.2998" stroke="white" stroke-linecap="round" />
  <path d="M20.9333 27.7208C21.2688 25.9887 22.1118 24.3954 23.3552 23.1437C24.5986 21.892 26.1862 21.0383 27.9161 20.6913" stroke="white" stroke-linecap="round" />
  <path d="M30.8778 20.6004C31.8023 20.7276 32.701 20.9994 33.541 21.406" stroke="white" stroke-linecap="round" />
  <path d="M33.4483 25.0638C34.1225 25.6503 34.6511 26.3855 34.9923 27.2114" stroke="white" stroke-linecap="round" />
  <path d="M33.4483 25.0638C34.1225 25.6503 34.6511 26.3855 34.9923 27.2114" stroke="white" stroke-linecap="round" />
  <path d="M35.3504 28.4636C35.5637 29.7421 35.3398 31.0552 34.7148 32.1908C34.0899 33.3264 33.1003 34.2182 31.9061 34.7221" stroke="white" stroke-linecap="round" />
  <path d="M30.0223 35.1643C28.5982 35.2526 27.192 34.8094 26.0758 33.9207" stroke="white" stroke-linecap="round" />
  <path d="M25.0615 32.8785C24.3453 31.9272 23.9413 30.7774 23.9051 29.5872C23.8689 28.3971 24.2023 27.2249 24.8593 26.2318" stroke="white" stroke-linecap="round" />
  <path d="M26.6197 24.5195C27.2388 24.1341 27.9255 23.8696 28.6433 23.7402" stroke="white" stroke-linecap="round" />
  <path d="M29.7051 41.9346L29.693 41.4347L28.1894 41.4711L29.4155 42.3422L29.7051 41.9346ZM41.1515 25.0735L40.7283 24.8071L40.5971 25.0156L40.6824 25.2467L41.1515 25.0735ZM43.4117 21.4837L43.8349 21.7501V21.7501L43.4117 21.4837ZM29.0831 16.8853V16.3853H27.5161L28.7935 17.2928L29.0831 16.8853ZM29.0883 16.889L29.1004 17.3888L30.604 17.3525L29.3779 16.4814L29.0883 16.889ZM17.6418 33.7507L18.0649 34.0171L18.1962 33.8086L18.1109 33.5775L17.6418 33.7507ZM15.3819 37.34L14.9588 37.0736H14.9588L15.3819 37.34ZM29.7106 41.9384V42.4384H31.2777L30.0001 41.5308L29.7106 41.9384ZM29.7172 42.4344C36.7635 42.264 42.423 36.4989 42.423 29.4118H41.423C41.423 35.9547 36.198 41.2774 29.693 41.4347L29.7172 42.4344ZM42.423 29.4118C42.423 27.8267 42.1397 26.3067 41.6205 24.9004L40.6824 25.2467C41.1613 26.5438 41.423 27.9467 41.423 29.4118H42.423ZM41.5746 25.34L43.8349 21.7501L42.9886 21.2173L40.7283 24.8071L41.5746 25.34ZM43.8349 21.7501C45.3023 19.4194 43.6273 16.3853 40.873 16.3853V17.3853C42.8404 17.3853 44.0368 19.5525 42.9886 21.2173L43.8349 21.7501ZM40.873 16.3853H29.3965V17.3853H40.873V16.3853ZM29.3965 16.3853H29.0831V17.3853H29.3965V16.3853ZM28.7935 17.2928L28.7987 17.2966L29.3779 16.4814L29.3727 16.4777L28.7935 17.2928ZM29.0762 16.3891C22.0297 16.5593 16.37 22.3245 16.37 29.4118H17.37C17.37 22.8687 22.5953 17.5459 29.1004 17.3888L29.0762 16.3891ZM16.37 29.4118C16.37 30.9971 16.6534 32.5174 17.1728 33.9239L18.1109 33.5775C17.6318 32.2802 17.37 30.8771 17.37 29.4118H16.37ZM17.2187 33.4843L14.9588 37.0736L15.805 37.6064L18.0649 34.0171L17.2187 33.4843ZM14.9588 37.0736C13.4913 39.4043 15.1663 42.4384 17.9206 42.4384V41.4384C15.9533 41.4384 14.7568 39.2712 15.805 37.6064L14.9588 37.0736ZM17.9206 42.4384H29.7106V41.4384H17.9206V42.4384ZM30.0001 41.5308L29.9947 41.527L29.4155 42.3422L29.421 42.346L30.0001 41.5308Z" fill="white" />
</svg>
