<svg width="70" height="70" viewBox="0 0 60 60" fill="none" xmlns="http://www.w3.org/2000/svg">
  <circle opacity="0.5" cx="30.2025" cy="29.7973" r="29.2973" stroke="white" />
  <mask id="path-2-inside-1" fill="white">
    <path fill-rule="evenodd" clip-rule="evenodd" d="M32.4303 16.8851H19.2775V43.1908H32.4303C39.6944 43.1908 45.5832 37.3021 45.5832 30.038C45.5832 22.7739 39.6944 16.8851 32.4303 16.8851ZM23.6615 24.3146C23.6615 23.9131 23.8208 23.528 24.1044 23.2438C24.3886 22.9602 24.7737 22.8009 25.1753 22.8009C25.5768 22.8009 25.9619 22.9602 26.2461 23.2438L28.5322 25.5299C28.6837 25.668 28.8056 25.8353 28.8906 26.0219C28.9755 26.2084 29.0218 26.4103 29.0265 26.6152C29.0313 26.8202 28.9944 27.0239 28.9182 27.2142C28.8419 27.4045 28.7279 27.5773 28.5829 27.7223C28.438 27.8672 28.2651 27.9813 28.0748 28.0575C27.8845 28.1338 27.6808 28.1707 27.4758 28.1659C27.2709 28.1612 27.0691 28.1149 26.8825 28.0299C26.6959 27.945 26.5286 27.823 26.3905 27.6715L24.1044 25.3855C23.8208 25.1013 23.6615 24.7162 23.6615 24.3146ZM38.6525 24.3146C38.6525 23.9131 38.4932 23.528 38.2096 23.2438C37.9254 22.9602 37.5402 22.8009 37.1387 22.8009C36.7372 22.8009 36.3521 22.9602 36.0679 23.2438L33.7818 25.5299C33.6303 25.668 33.5084 25.8353 33.4234 26.0219C33.3385 26.2084 33.2922 26.4103 33.2875 26.6152C33.2827 26.8202 33.3196 27.0239 33.3958 27.2142C33.4721 27.4045 33.5861 27.5773 33.7311 27.7223C33.876 27.8672 34.0489 27.9813 34.2392 28.0575C34.4294 28.1338 34.6332 28.1707 34.8382 28.1659C35.0431 28.1612 35.2449 28.1149 35.4315 28.0299C35.618 27.945 35.7854 27.823 35.9235 27.6715L38.2096 25.3855C38.4932 25.1013 38.6525 24.7162 38.6525 24.3146ZM34.8772 32.3691C34.4757 32.3691 34.0906 32.5284 33.8064 32.812C33.5227 33.0962 33.3635 33.4814 33.3635 33.8829C33.3635 34.2844 33.5227 34.6695 33.8064 34.9537L36.0924 37.2398C36.3806 37.5024 36.7589 37.644 37.1487 37.6349C37.5385 37.6259 37.9099 37.467 38.1856 37.1913C38.4613 36.9156 38.6202 36.5442 38.6292 36.1544C38.6383 35.7646 38.4967 35.3863 38.2341 35.0981L35.948 32.812C35.6638 32.5284 35.2787 32.3691 34.8772 32.3691ZM28.5076 32.812C28.2234 32.5284 27.8383 32.3691 27.4368 32.3691C27.0353 32.3691 26.6502 32.5284 26.366 32.812L24.0799 35.0981C23.8172 35.3863 23.6757 35.7646 23.6847 36.1544C23.6938 36.5442 23.8527 36.9156 24.1284 37.1913C24.4041 37.467 24.7754 37.6259 25.1653 37.6349C25.5551 37.644 25.9334 37.5024 26.2216 37.2398L28.5076 34.9537C28.7913 34.6695 28.9505 34.2844 28.9505 33.8829C28.9505 33.4814 28.7913 33.0962 28.5076 32.812ZM32.2371 28.9904L32.7906 29.5439C32.9186 29.6694 33.0204 29.8191 33.0898 29.9844C33.1593 30.1497 33.1951 30.3272 33.1951 30.5064C33.1951 30.6857 33.1593 30.8632 33.0898 31.0285C33.0204 31.1938 32.9186 31.3435 32.7906 31.469L32.2371 32.0225C32.1117 32.1505 31.9619 32.2522 31.7966 32.3217C31.6313 32.3912 31.4539 32.4269 31.2746 32.4269C31.0953 32.4269 30.9178 32.3912 30.7525 32.3217C30.5873 32.2522 30.4375 32.1505 30.312 32.0225L29.7586 31.469C29.6305 31.3435 29.5288 31.1938 29.4593 31.0285C29.3899 30.8632 29.3541 30.6857 29.3541 30.5064C29.3541 30.3272 29.3899 30.1497 29.4593 29.9844C29.5288 29.8191 29.6305 29.6694 29.7586 29.5439L30.312 28.9904C30.4375 28.8624 30.5873 28.7606 30.7525 28.6912C30.9178 28.6217 31.0953 28.586 31.2746 28.586C31.4539 28.586 31.6313 28.6217 31.7966 28.6912C31.9619 28.7606 32.1117 28.8624 32.2371 28.9904Z" />
  </mask>
  <path d="M19.2775 16.8851V15.8851H18.2775V16.8851H19.2775ZM19.2775 43.1908H18.2775V44.1908H19.2775V43.1908ZM24.1044 23.2438L23.3981 22.5359L23.3966 22.5375L24.1044 23.2438ZM26.2461 23.2438L26.9532 22.5367L26.9524 22.5359L26.2461 23.2438ZM28.5322 25.5299L27.825 26.237L27.8414 26.2533L27.8585 26.2689L28.5322 25.5299ZM29.0265 26.6152L30.0263 26.5921V26.5921L29.0265 26.6152ZM27.4758 28.1659L27.4527 29.1657H27.4527L27.4758 28.1659ZM26.8825 28.0299L27.297 27.1199L27.297 27.1199L26.8825 28.0299ZM26.3905 27.6715L27.1296 26.9979L27.114 26.9808L27.0976 26.9644L26.3905 27.6715ZM24.1044 25.3855L23.3966 26.0918L23.3973 26.0926L24.1044 25.3855ZM38.2096 23.2438L38.9174 22.5375L38.9159 22.5359L38.2096 23.2438ZM36.0679 23.2438L35.3616 22.5359L35.3608 22.5367L36.0679 23.2438ZM33.7818 25.5299L34.4555 26.2689L34.4726 26.2533L34.4889 26.237L33.7818 25.5299ZM33.4234 26.0219L34.3335 26.4364L34.3335 26.4364L33.4234 26.0219ZM33.2875 26.6152L32.2877 26.5921V26.5921L33.2875 26.6152ZM33.3958 27.2142L34.3241 26.8423L34.3241 26.8422L33.3958 27.2142ZM34.8382 28.1659L34.8613 29.1657H34.8613L34.8382 28.1659ZM35.4315 28.0299L35.017 27.1199V27.1199L35.4315 28.0299ZM35.9235 27.6715L35.2164 26.9644L35.2 26.9808L35.1844 26.9979L35.9235 27.6715ZM38.2096 25.3855L38.9167 26.0926L38.9174 26.0918L38.2096 25.3855ZM33.8064 32.812L33.1 32.1042L33.0985 32.1057L33.8064 32.812ZM33.8064 34.9537L33.0985 35.66L33.0992 35.6608L33.8064 34.9537ZM36.0924 37.2398L35.3853 37.9469L35.4017 37.9632L35.4188 37.9788L36.0924 37.2398ZM38.1856 37.1913L37.4785 36.4842L37.4785 36.4842L38.1856 37.1913ZM38.6292 36.1544L37.6295 36.1313L38.6292 36.1544ZM38.2341 35.0981L38.9732 34.4245L38.9576 34.4073L38.9412 34.391L38.2341 35.0981ZM35.948 32.812L36.6551 32.1049L36.6544 32.1042L35.948 32.812ZM28.5076 32.812L29.2155 32.1057L29.214 32.1042L28.5076 32.812ZM26.366 32.812L25.6596 32.1042L25.6589 32.1049L26.366 32.812ZM24.0799 35.0981L23.3728 34.391L23.3564 34.4073L23.3408 34.4245L24.0799 35.0981ZM23.6847 36.1544L22.685 36.1775V36.1775L23.6847 36.1544ZM24.1284 37.1913L24.8355 36.4842L24.8355 36.4842L24.1284 37.1913ZM25.1653 37.6349L25.1421 38.6347L25.1653 37.6349ZM26.2216 37.2398L26.8952 37.9788L26.9123 37.9632L26.9287 37.9469L26.2216 37.2398ZM28.5076 34.9537L29.2148 35.6608L29.2155 35.6601L28.5076 34.9537ZM32.7906 29.5439L32.0834 30.251L32.0907 30.2582L32.7906 29.5439ZM32.2371 28.9904L31.5228 29.6903L31.53 29.6975L32.2371 28.9904ZM33.0898 29.9844L34.0118 29.597L34.0117 29.597L33.0898 29.9844ZM33.0898 31.0285L34.0117 31.4159L34.0118 31.4159L33.0898 31.0285ZM32.7906 31.469L32.0907 30.7547L32.0835 30.7619L32.7906 31.469ZM32.2371 32.0225L31.53 31.3153L31.5228 31.3226L32.2371 32.0225ZM31.7966 32.3217L31.4092 31.3998L31.4092 31.3998L31.7966 32.3217ZM30.7525 32.3217L31.1399 31.3998L31.1399 31.3998L30.7525 32.3217ZM30.312 32.0225L31.0263 31.3226L31.0191 31.3154L30.312 32.0225ZM29.7586 31.469L30.4657 30.7618L30.4584 30.7547L29.7586 31.469ZM29.4593 31.0285L28.5374 31.4159L28.5374 31.4159L29.4593 31.0285ZM29.4593 29.9844L30.3812 30.3718L30.3812 30.3718L29.4593 29.9844ZM29.7586 29.5439L30.4584 30.2582L30.4657 30.251L29.7586 29.5439ZM30.312 28.9904L31.0192 29.6976L31.0263 29.6903L30.312 28.9904ZM30.7525 28.6912L31.1399 29.6131L31.1399 29.6131L30.7525 28.6912ZM19.2775 17.8851H32.4303V15.8851H19.2775V17.8851ZM20.2775 43.1908V16.8851H18.2775V43.1908H20.2775ZM32.4303 42.1908H19.2775V44.1908H32.4303V42.1908ZM44.5832 30.038C44.5832 36.7498 39.1421 42.1908 32.4303 42.1908V44.1908C40.2467 44.1908 46.5832 37.8544 46.5832 30.038H44.5832ZM32.4303 17.8851C39.1422 17.8851 44.5832 23.3261 44.5832 30.038H46.5832C46.5832 22.2216 40.2467 15.8851 32.4303 15.8851V17.8851ZM23.3966 22.5375C22.9259 23.0091 22.6615 23.6483 22.6615 24.3146H24.6615C24.6615 24.178 24.7158 24.0469 24.8123 23.9502L23.3966 22.5375ZM25.1753 21.8009C24.5089 21.8009 23.8698 22.0653 23.3981 22.5359L24.8108 23.9517C24.9075 23.8551 25.0386 23.8009 25.1753 23.8009V21.8009ZM26.9524 22.5359C26.4808 22.0653 25.8416 21.8009 25.1753 21.8009V23.8009C25.3119 23.8009 25.443 23.8551 25.5397 23.9517L26.9524 22.5359ZM29.2393 24.8228L26.9532 22.5367L25.539 23.9509L27.825 26.237L29.2393 24.8228ZM29.8006 25.6074C29.6596 25.2978 29.4572 25.02 29.2058 24.7908L27.8585 26.2689C27.9101 26.3159 27.9516 26.3729 27.9805 26.4364L29.8006 25.6074ZM30.0263 26.5921C30.0184 26.252 29.9416 25.917 29.8006 25.6074L27.9805 26.4364C28.0094 26.4999 28.0252 26.5686 28.0268 26.6384L30.0263 26.5921ZM29.8464 27.5862C29.973 27.2704 30.0341 26.9322 30.0263 26.5921L28.0268 26.6384C28.0284 26.7081 28.0159 26.7775 27.9899 26.8422L29.8464 27.5862ZM29.29 28.4294C29.5306 28.1888 29.7199 27.902 29.8464 27.5862L27.9899 26.8422C27.964 26.907 27.9251 26.9659 27.8758 27.0152L29.29 28.4294ZM28.4468 28.9858C28.7626 28.8592 29.0495 28.67 29.29 28.4294L27.8758 27.0152C27.8265 27.0645 27.7676 27.1033 27.7029 27.1293L28.4468 28.9858ZM27.4527 29.1657C27.7928 29.1735 28.131 29.1123 28.4468 28.9858L27.7029 27.1293C27.6381 27.1553 27.5687 27.1678 27.499 27.1662L27.4527 29.1657ZM26.468 28.94C26.7776 29.081 27.1126 29.1578 27.4527 29.1657L27.499 27.1662C27.4292 27.1646 27.3605 27.1488 27.297 27.1199L26.468 28.94ZM25.6514 28.3452C25.8806 28.5966 26.1584 28.799 26.468 28.94L27.297 27.1199C27.2335 27.091 27.1766 27.0495 27.1296 26.9979L25.6514 28.3452ZM23.3973 26.0926L25.6834 28.3786L27.0976 26.9644L24.8115 24.6784L23.3973 26.0926ZM22.6615 24.3146C22.6615 24.981 22.9259 25.6201 23.3966 26.0918L24.8123 24.6791C24.7158 24.5824 24.6615 24.4513 24.6615 24.3146H22.6615ZM37.5017 23.9502C37.5982 24.0469 37.6525 24.178 37.6525 24.3146H39.6525C39.6525 23.6483 39.3881 23.0091 38.9174 22.5375L37.5017 23.9502ZM37.1387 23.8009C37.2754 23.8009 37.4065 23.8551 37.5032 23.9517L38.9159 22.5359C38.4442 22.0653 37.8051 21.8009 37.1387 21.8009V23.8009ZM36.7742 23.9517C36.871 23.8551 37.0021 23.8009 37.1387 23.8009V21.8009C36.4724 21.8009 35.8332 22.0653 35.3616 22.5359L36.7742 23.9517ZM34.4889 26.237L36.775 23.9509L35.3608 22.5367L33.0747 24.8228L34.4889 26.237ZM34.3335 26.4364C34.3624 26.3729 34.4039 26.3159 34.4555 26.2689L33.1082 24.7908C32.8568 25.02 32.6544 25.2978 32.5134 25.6074L34.3335 26.4364ZM34.2872 26.6384C34.2888 26.5686 34.3046 26.4999 34.3335 26.4364L32.5134 25.6074C32.3724 25.917 32.2956 26.252 32.2877 26.5921L34.2872 26.6384ZM34.3241 26.8422C34.2981 26.7775 34.2856 26.7081 34.2872 26.6384L32.2877 26.5921C32.2799 26.9322 32.341 27.2704 32.4676 27.5862L34.3241 26.8422ZM34.4382 27.0152C34.3889 26.9659 34.35 26.907 34.3241 26.8423L32.4676 27.5862C32.5941 27.902 32.7834 28.1888 33.024 28.4294L34.4382 27.0152ZM34.6111 27.1293C34.5464 27.1033 34.4875 27.0645 34.4382 27.0152L33.024 28.4294C33.2645 28.67 33.5514 28.8592 33.8672 28.9858L34.6111 27.1293ZM34.815 27.1662C34.7453 27.1678 34.6759 27.1553 34.6111 27.1293L33.8672 28.9858C34.183 29.1123 34.5212 29.1735 34.8613 29.1657L34.815 27.1662ZM35.017 27.1199C34.9535 27.1488 34.8848 27.1646 34.815 27.1662L34.8613 29.1657C35.2014 29.1578 35.5364 29.081 35.846 28.94L35.017 27.1199ZM35.1844 26.9979C35.1374 27.0495 35.0805 27.091 35.017 27.1199L35.846 28.94C36.1556 28.799 36.4334 28.5966 36.6626 28.3452L35.1844 26.9979ZM37.5025 24.6784L35.2164 26.9644L36.6306 28.3786L38.9167 26.0926L37.5025 24.6784ZM37.6525 24.3146C37.6525 24.4513 37.5982 24.5824 37.5017 24.6791L38.9174 26.0918C39.3881 25.6201 39.6525 24.981 39.6525 24.3146H37.6525ZM34.5127 33.5199C34.6094 33.4234 34.7405 33.3691 34.8772 33.3691V31.3691C34.2108 31.3691 33.5717 31.6335 33.1 32.1042L34.5127 33.5199ZM34.3635 33.8829C34.3635 33.7462 34.4177 33.6151 34.5142 33.5184L33.0985 32.1057C32.6278 32.5774 32.3635 33.2165 32.3635 33.8829H34.3635ZM34.5142 34.2474C34.4177 34.1506 34.3635 34.0195 34.3635 33.8829H32.3635C32.3635 34.5492 32.6278 35.1884 33.0985 35.66L34.5142 34.2474ZM36.7995 36.5327L34.5135 34.2466L33.0992 35.6608L35.3853 37.9469L36.7995 36.5327ZM37.1256 36.6352C36.9929 36.6383 36.8641 36.5901 36.766 36.5007L35.4188 37.9788C35.8971 38.4148 36.5249 38.6496 37.1719 38.6347L37.1256 36.6352ZM37.4785 36.4842C37.3847 36.578 37.2583 36.6321 37.1256 36.6352L37.1719 38.6347C37.8188 38.6197 38.4351 38.356 38.8927 37.8984L37.4785 36.4842ZM37.6295 36.1313C37.6264 36.2639 37.5724 36.3903 37.4785 36.4842L38.8927 37.8984C39.3503 37.4408 39.614 36.8245 39.629 36.1775L37.6295 36.1313ZM37.495 35.7717C37.5844 35.8698 37.6326 35.9986 37.6295 36.1313L39.629 36.1775C39.644 35.5306 39.4091 34.9027 38.9732 34.4245L37.495 35.7717ZM35.2409 33.5191L37.527 35.8052L38.9412 34.391L36.6551 32.1049L35.2409 33.5191ZM34.8772 33.3691C35.0139 33.3691 35.1449 33.4234 35.2417 33.5199L36.6544 32.1042C36.1827 31.6335 35.5435 31.3691 34.8772 31.3691V33.3691ZM27.4368 33.3691C27.5735 33.3691 27.7046 33.4234 27.8013 33.5199L29.214 32.1042C28.7423 31.6335 28.1032 31.3691 27.4368 31.3691V33.3691ZM27.0723 33.5199C27.1691 33.4234 27.3001 33.3691 27.4368 33.3691V31.3691C26.7705 31.3691 26.1313 31.6335 25.6596 32.1042L27.0723 33.5199ZM24.787 35.8052L27.0731 33.5191L25.6589 32.1049L23.3728 34.391L24.787 35.8052ZM24.6845 36.1313C24.6814 35.9986 24.7296 35.8698 24.819 35.7717L23.3408 34.4245C22.9049 34.9027 22.67 35.5306 22.685 36.1775L24.6845 36.1313ZM24.8355 36.4842C24.7416 36.3903 24.6876 36.2639 24.6845 36.1313L22.685 36.1775C22.7 36.8245 22.9637 37.4408 23.4213 37.8984L24.8355 36.4842ZM25.1884 36.6352C25.0557 36.6321 24.9293 36.578 24.8355 36.4842L23.4213 37.8984C23.8789 38.356 24.4952 38.6197 25.1421 38.6347L25.1884 36.6352ZM25.548 36.5007C25.4499 36.5901 25.3211 36.6383 25.1884 36.6352L25.1421 38.6347C25.7891 38.6496 26.4169 38.4148 26.8952 37.9788L25.548 36.5007ZM27.8005 34.2466L25.5145 36.5327L26.9287 37.9469L29.2148 35.6608L27.8005 34.2466ZM27.9505 33.8829C27.9505 34.0195 27.8963 34.1506 27.7998 34.2474L29.2155 35.6601C29.6862 35.1884 29.9505 34.5492 29.9505 33.8829H27.9505ZM27.7998 33.5184C27.8963 33.6151 27.9505 33.7462 27.9505 33.8829H29.9505C29.9505 33.2165 29.6862 32.5774 29.2155 32.1057L27.7998 33.5184ZM33.4977 28.8368L32.9442 28.2833L31.53 29.6975L32.0835 30.251L33.4977 28.8368ZM34.0117 29.597C33.8908 29.3091 33.7135 29.0482 33.4904 28.8296L32.0907 30.2582C32.1238 30.2905 32.15 30.3292 32.1679 30.3718L34.0117 29.597ZM34.1951 30.5064C34.1951 30.1941 34.1327 29.8849 34.0118 29.597L32.1679 30.3718C32.1858 30.4144 32.1951 30.4602 32.1951 30.5064H34.1951ZM34.0118 31.4159C34.1327 31.1279 34.1951 30.8188 34.1951 30.5064H32.1951C32.1951 30.5527 32.1858 30.5985 32.1679 30.6411L34.0118 31.4159ZM33.4904 32.1833C33.7135 31.9647 33.8908 31.7038 34.0117 31.4159L32.1679 30.6411C32.15 30.6837 32.1238 30.7223 32.0907 30.7547L33.4904 32.1833ZM32.9442 32.7296L33.4977 32.1761L32.0835 30.7619L31.53 31.3154L32.9442 32.7296ZM32.184 33.2436C32.4719 33.1226 32.7328 32.9454 32.9514 32.7223L31.5228 31.3226C31.4905 31.3556 31.4518 31.3819 31.4092 31.3998L32.184 33.2436ZM31.2746 33.4269C31.5869 33.4269 31.8961 33.3646 32.184 33.2436L31.4092 31.3998C31.3666 31.4177 31.3208 31.4269 31.2746 31.4269V33.4269ZM30.3651 33.2436C30.6531 33.3646 30.9623 33.4269 31.2746 33.4269V31.4269C31.2283 31.4269 31.1826 31.4177 31.1399 31.3998L30.3651 33.2436ZM29.5977 32.7223C29.8163 32.9454 30.0772 33.1226 30.3651 33.2436L31.1399 31.3998C31.0973 31.3819 31.0587 31.3556 31.0263 31.3226L29.5977 32.7223ZM29.0514 32.1761L29.6049 32.7296L31.0191 31.3154L30.4657 30.7619L29.0514 32.1761ZM28.5374 31.4159C28.6584 31.7038 28.8356 31.9647 29.0587 32.1833L30.4584 30.7547C30.4254 30.7223 30.3991 30.6837 30.3812 30.6411L28.5374 31.4159ZM28.3541 30.5064C28.3541 30.8188 28.4164 31.1279 28.5374 31.4159L30.3812 30.6411C30.3633 30.5985 30.3541 30.5527 30.3541 30.5064H28.3541ZM28.5374 29.597C28.4164 29.8849 28.3541 30.1941 28.3541 30.5064H30.3541C30.3541 30.4602 30.3633 30.4144 30.3812 30.3718L28.5374 29.597ZM29.0587 28.8296C28.8356 29.0482 28.6584 29.3091 28.5374 29.597L30.3812 30.3718C30.3991 30.3292 30.4254 30.2905 30.4584 30.2582L29.0587 28.8296ZM29.6049 28.2833L29.0514 28.8368L30.4657 30.251L31.0191 29.6975L29.6049 28.2833ZM30.3651 27.7693C30.0772 27.8903 29.8163 28.0675 29.5977 28.2906L31.0263 29.6903C31.0587 29.6572 31.0973 29.631 31.1399 29.6131L30.3651 27.7693ZM31.2746 27.586C30.9623 27.586 30.6531 27.6483 30.3651 27.7693L31.1399 29.6131C31.1826 29.5952 31.2283 29.586 31.2746 29.586V27.586ZM32.184 27.7693C31.8961 27.6483 31.5869 27.586 31.2746 27.586V29.586C31.3208 29.586 31.3666 29.5952 31.4092 29.6131L32.184 27.7693ZM32.9514 28.2906C32.7328 28.0675 32.4719 27.8903 32.184 27.7693L31.4092 29.6131C31.4518 29.631 31.4905 29.6572 31.5228 29.6903L32.9514 28.2906Z" fill="white" mask="url(#path-2-inside-1)" />
</svg>
