<svg width="60" height="60" viewBox="0 0 60 64" fill="none" xmlns="http://www.w3.org/2000/svg">
  <circle opacity="0.1" cx="30" cy="30" r="29.5" fill="#0097FF" stroke="#0097FF" />
  <mask id="path-2-inside-1" fill="white">
    <path fill-rule="evenodd" clip-rule="evenodd" d="M45 30.5C45 38.5081 38.5081 45 30.5 45C22.4919 45 16 38.5081 16 30.5C16 22.4919 22.4919 16 30.5 16C38.5081 16 45 22.4919 45 30.5ZM33.5008 37.1321C32.9965 37.2582 32.7947 37.8382 33.0973 38.2417L34.3582 39.8808C33.173 40.3599 31.8617 40.6373 30.5 40.6373C24.6747 40.6373 20.0095 35.7199 20.413 29.7938C20.766 24.8008 24.8008 20.766 29.7939 20.413C35.72 19.9843 40.6373 24.6747 40.6373 30.4999C40.6373 34.9382 35.72 36.6025 33.5008 37.1321Z" />
  </mask>
  <path d="M33.0973 38.2417L32.2973 38.8417L32.3047 38.8514L33.0973 38.2417ZM33.5008 37.1321L33.2687 36.1593L33.2583 36.162L33.5008 37.1321ZM34.3582 39.8808L34.733 40.8079L35.9535 40.3145L35.1508 39.2711L34.3582 39.8808ZM20.413 29.7938L19.4155 29.7233L19.4153 29.7259L20.413 29.7938ZM29.7939 20.413L29.8644 21.4105L29.866 21.4104L29.7939 20.413ZM30.5 46C39.0604 46 46 39.0604 46 30.5H44C44 37.9558 37.9558 44 30.5 44V46ZM15 30.5C15 39.0604 21.9396 46 30.5 46V44C23.0442 44 17 37.9558 17 30.5H15ZM30.5 15C21.9396 15 15 21.9396 15 30.5H17C17 23.0442 23.0442 17 30.5 17V15ZM46 30.5C46 21.9396 39.0604 15 30.5 15V17C37.9558 17 44 23.0442 44 30.5H46ZM33.8973 37.6417C34.0279 37.8157 33.9263 38.0565 33.7434 38.1022L33.2583 36.162C32.0667 36.4599 31.5616 37.8606 32.2973 38.8417L33.8973 37.6417ZM35.1508 39.2711L33.89 37.6319L32.3047 38.8514L33.5656 40.4905L35.1508 39.2711ZM30.5 41.6373C31.9973 41.6373 33.4355 41.3324 34.733 40.8079L33.9834 38.9537C32.9105 39.3874 31.7261 39.6373 30.5 39.6373V41.6373ZM19.4153 29.7259C18.9724 36.2315 24.0976 41.6373 30.5 41.6373V39.6373C25.2519 39.6373 21.0467 35.2083 21.4107 29.8618L19.4153 29.7259ZM29.7233 19.4155C24.2336 19.8036 19.8036 24.2336 19.4155 29.7233L21.4105 29.8644C21.7284 25.368 25.368 21.7284 29.8644 21.4105L29.7233 19.4155ZM41.6373 30.4999C41.6373 24.1017 36.2346 18.9444 29.7217 19.4156L29.866 21.4104C35.2053 21.0241 39.6373 25.2477 39.6373 30.4999H41.6373ZM33.7329 38.1048C34.89 37.8287 36.8129 37.2449 38.4682 36.1055C40.1433 34.9526 41.6373 33.1559 41.6373 30.4999H39.6373C39.6373 32.2822 38.6727 33.5368 37.3343 34.458C35.9762 35.3928 34.3308 35.906 33.2687 36.1594L33.7329 38.1048Z" fill="#0097FF" mask="url(#path-2-inside-1)" />
</svg>
