<svg width="60" height="60" viewBox="0 0 70 70" fill="none" xmlns="http://www.w3.org/2000/svg">
  <circle opacity="0.5" cx="35" cy="35" r="34.5" stroke="white" />
  <path d="M39.334 44.5429L39.334 44.543L39.343 44.541C40.8072 44.2019 43.1152 43.4591 45.0693 42.0689C47.0327 40.672 48.6814 38.5856 48.6814 35.5843H48.6814L48.6814 35.5784C48.6504 32.9775 47.8528 30.4435 46.3885 28.2937C44.9242 26.144 42.8582 24.474 40.4494 23.493C38.0405 22.5119 35.3957 22.2633 32.8462 22.7784C30.2968 23.2934 27.9559 24.5492 26.1167 26.3885C24.2775 28.2278 23.0218 30.5688 22.5068 33.1184C21.9918 35.668 22.2403 38.3129 23.2213 40.7219C24.2024 43.1309 25.8722 45.1969 28.0218 46.6613C30.1715 48.1257 32.7053 48.9233 35.3061 48.9543L35.3081 48.9544C37.0896 48.9684 38.8561 48.6279 40.5047 47.9526L41.1149 47.7026L40.7095 47.1825L39.1147 45.1363C39.1144 45.1359 39.1141 45.1354 39.1137 45.135C39.0759 45.0851 39.0512 45.0266 39.0419 44.9647C39.0324 44.9022 39.039 44.8384 39.0609 44.7792C39.0827 44.7199 39.1193 44.6672 39.167 44.6259C39.2148 44.5846 39.2722 44.5561 39.334 44.5429ZM53.1667 35.5843C53.1663 39.0508 52.1413 42.4399 50.2207 45.3257C48.3 48.2114 45.5693 50.465 42.3717 51.8034C39.1741 53.1417 35.6523 53.505 32.2489 52.8476C28.8454 52.1902 25.7122 50.5414 23.243 48.1085C20.7737 45.6756 19.0786 42.5671 18.3706 39.1737C17.6627 35.7802 17.9735 32.2532 19.264 29.0358C20.5545 25.8184 22.7671 23.0543 25.6237 21.0908C28.4794 19.128 31.8512 18.0527 35.3158 18C39.9779 18.001 44.4487 19.8535 47.7454 23.1503C51.0567 26.4619 53.1667 30.9391 53.1667 35.5843Z" stroke="white" />
</svg>
