<svg width="60" height="60" viewBox="0 0 60 60" fill="none" xmlns="http://www.w3.org/2000/svg">
  <circle opacity="0.1" cx="30" cy="30" r="29.5" fill="#06387B" stroke="#06387B" />
  <path d="M42.7235 19.1774V36.3184H18.5V19.1774C18.663 19.1318 18.88 19.0728 19.1454 19.0043C19.7917 18.8375 20.7249 18.6146 21.868 18.3916C24.1561 17.9451 27.2755 17.5 30.6117 17.5C33.948 17.5 37.0673 17.9451 39.3554 18.3916C40.4985 18.6146 41.4318 18.8375 42.078 19.0043C42.3435 19.0728 42.5604 19.1318 42.7235 19.1774Z" stroke="#06387B" />
  <path d="M22.5042 21.7751C22.5042 21.7751 25.2067 20.4238 31.0621 20.4238C36.9176 20.4238 39.6201 21.7751 39.6201 21.7751" stroke="#06387B" />
  <line x1="18" y1="39.0205" x2="43.2235" y2="39.0205" stroke="#06387B" />
  <line x1="22.905" y1="42.2236" x2="22.905" y2="39.5211" stroke="#06387B" />
  <line x1="39.1201" y1="42.2236" x2="39.1201" y2="39.5211" stroke="#06387B" />
</svg>
