<svg width="70" height="70" viewBox="0 0 60 60" fill="none" xmlns="http://www.w3.org/2000/svg">
	<circle opacity="0.5" cx="30.0684" cy="29.7973" r="29.2973" stroke="white" />
	<path d="M42.7022 19.0504V36.0697H18.6491V19.0504C18.8108 19.0052 19.0254 18.9469 19.2877 18.8792C19.9295 18.7135 20.8564 18.4921 21.9917 18.2706C24.2642 17.8272 27.3622 17.3851 30.6757 17.3851C33.9891 17.3851 37.0871 17.8272 39.3597 18.2706C40.4949 18.4921 41.4218 18.7135 42.0637 18.8792C42.326 18.9469 42.5406 19.0052 42.7022 19.0504Z" stroke="white" />
	<path d="M22.6222 21.6274C22.6222 21.6274 25.3064 20.2853 31.1223 20.2853C36.9382 20.2853 39.6225 21.6274 39.6225 21.6274" stroke="white" />
	<line x1="18.148" y1="38.7542" x2="43.2011" y2="38.7542" stroke="white" />
	<line x1="23.0166" y1="41.938" x2="23.0166" y2="39.2537" stroke="white" />
	<line x1="39.1224" y1="41.938" x2="39.1224" y2="39.2537" stroke="white" />
</svg>
