<?xml version="1.0" encoding="utf-8"?>
<!-- Generator: Adobe Illustrator 19.2.0, SVG Export Plug-In . SVG Version: 6.00 Build 0)  -->
<!DOCTYPE svg PUBLIC "-//W3C//DTD SVG 1.1//EN" "http://www.w3.org/Graphics/SVG/1.1/DTD/svg11.dtd">
<svg version="1.1" xmlns="http://www.w3.org/2000/svg" xmlns:xlink="http://www.w3.org/1999/xlink" x="0px" y="0px"
	 viewBox="0 0 70 70" style="enable-background:new 0 0 70 70;" xml:space="preserve" fill="white">
<desc>Created with Sketch.</desc>
<path id="Oval-1" d="M35,65c17.1,0,31-13.9,31-31S52.1,3,35,3S4,16.9,4,34S17.9,65,35,65L35,65z M35,63C19,63,6,50,6,34S19,5,35,5
	s29,13,29,29S51,63,35,63L35,63z"/>
<path d="M45,22v-6H25v6H13v26h12v4h20v-4h12V22H45z M15,46V24h10v22H15z M43,48v2H27v-2V22v-4h16v4V48z M55,46H45V24h10V46z"/>
</svg>
