<svg width="3355" height="1019" viewBox="0 0 3355 1019" fill="none" xmlns="http://www.w3.org/2000/svg">
<g clip-path="url(#clip0_320_11)">
<mask id="mask0_320_11" style="mask-type:luminance" maskUnits="userSpaceOnUse" x="77" y="179" width="3200" height="1020">
<path d="M3277 179H77V1199H3277V179Z" fill="white"/>
</mask>
<g mask="url(#mask0_320_11)">
<path d="M390 675.758V378.846H481.583L554.595 518.818L627.608 378.846H719.191V675.758H650.821V473.433L553.751 654.55L456.682 472.585V675.758H390ZM875.973 680C853.182 680 832.643 674.91 814.355 664.729C796.066 654.267 781.576 640.269 770.885 622.738C760.193 605.206 754.847 585.553 754.847 563.78C754.847 542.006 760.193 522.353 770.885 504.821C781.576 487.006 796.066 473.009 814.355 462.829C832.643 452.367 853.182 447.135 875.973 447.135C898.763 447.135 919.302 452.367 937.59 462.829C955.879 473.009 970.369 487.006 981.06 504.821C991.752 522.353 997.098 542.006 997.098 563.78C997.098 585.553 991.752 605.206 981.06 622.738C970.369 640.269 955.879 654.267 937.59 664.729C919.302 674.91 898.763 680 875.973 680ZM875.973 620.617C886.383 620.617 895.668 618.072 903.827 612.982C911.987 607.892 918.458 601.105 923.241 592.622C928.024 583.856 930.416 574.242 930.416 563.78C930.416 553.034 928.024 543.42 923.241 534.936C918.458 526.171 911.846 519.243 903.405 514.153C895.246 509.063 886.102 506.518 875.973 506.518C865.844 506.518 856.559 509.063 848.118 514.153C839.958 519.243 833.487 526.171 828.704 534.936C823.921 543.42 821.529 553.034 821.529 563.78C821.529 574.242 823.921 583.856 828.704 592.622C833.487 601.105 839.958 607.892 848.118 612.982C856.559 618.072 865.844 620.617 875.973 620.617ZM1137.2 680C1114.98 680 1094.86 674.91 1076.85 664.729C1059.13 654.55 1045.06 640.694 1034.65 623.162C1024.24 605.347 1019.03 585.553 1019.03 563.78C1019.03 541.723 1024.24 521.929 1034.65 504.397C1045.06 486.865 1059.13 473.009 1076.85 462.829C1094.86 452.367 1114.98 447.135 1137.2 447.135C1155.49 447.135 1172.94 450.811 1189.54 458.163C1206.14 465.233 1220.2 475.413 1231.74 488.703L1189.96 532.392C1182.08 523.343 1174.06 516.839 1165.9 512.88C1157.74 508.639 1148.74 506.518 1138.89 506.518C1129.05 506.518 1120.18 509.063 1112.3 514.153C1104.43 518.96 1098.24 525.746 1093.73 534.512C1089.23 542.995 1086.98 552.751 1086.98 563.78C1086.98 574.525 1089.23 584.28 1093.73 593.046C1098.52 601.53 1104.99 608.316 1113.15 613.407C1121.31 618.213 1130.45 620.617 1140.58 620.617C1149.87 620.617 1158.45 618.637 1166.33 614.679C1174.2 610.72 1181.8 604.64 1189.12 596.44L1229.63 638.856C1218.38 651.863 1204.59 662.043 1188.27 669.395C1171.95 676.465 1154.93 680 1137.2 680ZM1256.67 675.758V378.846L1325.04 368.242V542.996L1414.09 451.377H1490.48L1391.3 552.751L1497.23 675.758H1410.71L1325.04 575.232V675.758H1256.67ZM1589.67 680C1572.23 680 1556.76 676.183 1543.25 668.547C1530.03 660.912 1519.62 650.308 1512.02 636.735C1504.42 622.879 1500.62 607.185 1500.62 589.653V451.377H1568.99V580.322C1568.99 592.481 1572.65 602.378 1579.97 610.013C1587.56 617.365 1597.41 621.041 1609.51 621.041C1618.23 621.041 1625.97 619.486 1632.72 616.375C1639.47 613.265 1645.1 608.882 1649.6 603.226V451.377H1717.97V675.758H1649.6V660.488C1632.72 673.495 1612.75 680 1589.67 680ZM1763.69 675.758V378.846H1919.42C1938.83 378.846 1956 383.087 1970.91 391.57C1986.1 399.771 1998.06 411.082 2006.78 425.503C2015.5 439.925 2019.86 456.467 2019.86 475.13C2019.86 492.945 2015.5 509.063 2006.78 523.484C1998.06 537.623 1986.1 548.792 1970.91 556.993C1955.71 565.193 1938.55 569.293 1919.42 569.293H1836.28V675.758H1763.69ZM1836.28 509.063H1910.98C1921.67 509.063 1930.25 505.952 1936.72 499.731C1943.19 493.51 1946.43 485.451 1946.43 475.554C1946.43 465.374 1943.19 457.174 1936.72 450.953C1930.25 444.449 1921.67 441.197 1910.98 441.197H1836.28V509.063ZM2053.76 675.758V378.846L2122.13 364V466.647C2139.01 453.639 2158.99 447.135 2182.06 447.135C2199.5 447.135 2214.84 450.953 2228.06 458.588C2241.57 466.223 2252.12 476.827 2259.72 490.4C2267.31 503.973 2271.11 519.667 2271.11 537.481V675.758H2202.74V546.813C2202.74 534.371 2199.08 524.474 2191.77 517.122C2184.45 509.77 2174.6 506.094 2162.22 506.094C2153.5 506.094 2145.76 507.649 2139.01 510.759C2132.54 513.87 2126.91 518.253 2122.13 523.908V675.758H2053.76ZM2422.76 680C2399.97 680 2379.43 674.91 2361.15 664.729C2342.86 654.267 2328.37 640.269 2317.67 622.738C2306.98 605.206 2301.64 585.553 2301.64 563.78C2301.64 542.006 2306.98 522.353 2317.67 504.821C2328.37 487.006 2342.86 473.009 2361.15 462.829C2379.43 452.367 2399.97 447.135 2422.76 447.135C2445.55 447.135 2466.09 452.367 2484.38 462.829C2502.67 473.009 2517.16 487.006 2527.85 504.821C2538.54 522.353 2543.89 542.006 2543.89 563.78C2543.89 585.553 2538.54 605.206 2527.85 622.738C2517.16 640.269 2502.67 654.267 2484.38 664.729C2466.09 674.91 2445.55 680 2422.76 680ZM2422.76 620.617C2433.17 620.617 2442.46 618.072 2450.62 612.982C2458.78 607.892 2465.25 601.105 2470.03 592.622C2474.81 583.856 2477.21 574.242 2477.21 563.78C2477.21 553.034 2474.81 543.42 2470.03 534.936C2465.25 526.171 2458.64 519.243 2450.2 514.153C2442.04 509.063 2432.89 506.518 2422.76 506.518C2412.63 506.518 2403.35 509.063 2394.91 514.153C2386.75 519.243 2380.28 526.171 2375.49 534.936C2370.71 543.42 2368.32 553.034 2368.32 563.78C2368.32 574.242 2370.71 583.856 2375.49 592.622C2380.28 601.105 2386.75 607.892 2394.91 612.982C2403.35 618.072 2412.63 620.617 2422.76 620.617ZM2575.95 675.758V451.377H2644.33V466.647C2661.21 453.639 2681.18 447.135 2704.25 447.135C2721.7 447.135 2737.03 450.953 2750.26 458.588C2763.76 466.223 2774.31 476.827 2781.91 490.4C2789.51 503.973 2793.3 519.667 2793.3 537.481V675.758H2724.93V546.813C2724.93 534.371 2721.28 524.474 2713.96 517.122C2706.65 509.77 2696.8 506.094 2684.42 506.094C2675.7 506.094 2667.96 507.649 2661.21 510.759C2654.74 513.87 2649.11 518.253 2644.33 523.908V675.758H2575.95ZM2945.38 680C2922.59 680 2901.91 674.91 2883.34 664.729C2865.05 654.267 2850.56 640.269 2839.87 622.738C2829.18 605.206 2823.83 585.553 2823.83 563.78C2823.83 542.006 2828.9 522.353 2839.03 504.821C2849.44 487.289 2863.5 473.433 2881.23 463.253C2898.96 452.791 2918.65 447.559 2940.32 447.559C2962.26 447.559 2981.68 452.932 2998.56 463.678C3015.44 474.14 3028.66 488.562 3038.23 506.942C3048.08 525.322 3053 546.389 3053 570.142V587.108H2893.89C2896.99 594.177 2901.07 600.398 2906.13 605.771C2911.48 611.144 2917.81 615.385 2925.12 618.496C2932.44 621.324 2940.32 622.738 2948.76 622.738C2958.04 622.738 2966.48 621.324 2974.08 618.496C2981.68 615.385 2988.15 611.144 2993.49 605.771L3038.65 646.066C3024.58 657.943 3010.09 666.567 2995.18 671.94C2980.55 677.314 2963.95 680 2945.38 680ZM2892.62 539.178H2985.9C2983.64 531.826 2980.13 525.605 2975.34 520.515C2970.84 515.142 2965.5 511.042 2959.31 508.214C2953.12 505.104 2946.36 503.549 2939.05 503.549C2931.45 503.549 2924.56 504.962 2918.37 507.79C2912.18 510.618 2906.83 514.718 2902.33 520.091C2898.11 525.181 2894.88 531.543 2892.62 539.178Z" fill="black"/>
</g>
</g>
<defs>
<clipPath id="clip0_320_11">
<rect width="3355" height="1019" fill="white"/>
</clipPath>
</defs>
</svg>
