<svg width="114" height="25" viewBox="0 0 114 25" fill="none" xmlns="http://www.w3.org/2000/svg">
<path d="M1.03313 18.4219V5.95312H4.89844L7.98 11.8312L11.0616 5.95312H14.9269V18.4219H12.0413V9.92531L7.94438 17.5312L3.8475 9.88969V18.4219H1.03313ZM21.5439 18.6C20.5821 18.6 19.7152 18.3863 18.9433 17.9587C18.1714 17.5194 17.5599 16.9316 17.1086 16.1953C16.6574 15.4591 16.4318 14.6337 16.4318 13.7194C16.4318 12.805 16.6574 11.9797 17.1086 11.2434C17.5599 10.4953 18.1714 9.9075 18.9433 9.48C19.7152 9.04062 20.5821 8.82094 21.5439 8.82094C22.5058 8.82094 23.3727 9.04062 24.1446 9.48C24.9164 9.9075 25.528 10.4953 25.9793 11.2434C26.4305 11.9797 26.6561 12.805 26.6561 13.7194C26.6561 14.6337 26.4305 15.4591 25.9793 16.1953C25.528 16.9316 24.9164 17.5194 24.1446 17.9587C23.3727 18.3863 22.5058 18.6 21.5439 18.6ZM21.5439 16.1062C21.9833 16.1062 22.3752 15.9994 22.7196 15.7856C23.0639 15.5719 23.3371 15.2869 23.5389 14.9306C23.7408 14.5625 23.8418 14.1587 23.8418 13.7194C23.8418 13.2681 23.7408 12.8644 23.5389 12.5081C23.3371 12.14 23.058 11.8491 22.7018 11.6353C22.3574 11.4216 21.9714 11.3147 21.5439 11.3147C21.1164 11.3147 20.7246 11.4216 20.3683 11.6353C20.0239 11.8491 19.7508 12.14 19.5489 12.5081C19.3471 12.8644 19.2461 13.2681 19.2461 13.7194C19.2461 14.1587 19.3471 14.5625 19.5489 14.9306C19.7508 15.2869 20.0239 15.5719 20.3683 15.7856C20.7246 15.9994 21.1164 16.1062 21.5439 16.1062ZM32.5695 18.6C31.6313 18.6 30.7823 18.3863 30.0223 17.9587C29.2741 17.5312 28.6804 16.9494 28.241 16.2131C27.8016 15.465 27.582 14.6337 27.582 13.7194C27.582 12.7931 27.8016 11.9619 28.241 11.2256C28.6804 10.4894 29.2741 9.9075 30.0223 9.48C30.7823 9.04062 31.6313 8.82094 32.5695 8.82094C33.3413 8.82094 34.0776 8.97531 34.7782 9.28406C35.4788 9.58094 36.0726 10.0084 36.5595 10.5666L34.796 12.4012C34.4635 12.0212 34.1251 11.7481 33.7807 11.5819C33.4363 11.4037 33.0563 11.3147 32.6407 11.3147C32.2251 11.3147 31.851 11.4216 31.5185 11.6353C31.186 11.8372 30.9248 12.1222 30.7348 12.4903C30.5448 12.8466 30.4498 13.2562 30.4498 13.7194C30.4498 14.1706 30.5448 14.5803 30.7348 14.9484C30.9366 15.3047 31.2098 15.5897 31.5541 15.8034C31.8985 16.0053 32.2845 16.1062 32.712 16.1062C33.1038 16.1062 33.466 16.0231 33.7985 15.8569C34.131 15.6906 34.4516 15.4353 34.7604 15.0909L36.4704 16.8722C35.9954 17.4184 35.4135 17.8459 34.7248 18.1547C34.036 18.4516 33.3176 18.6 32.5695 18.6ZM37.6115 18.4219V5.95312L40.4971 5.50781V12.8466L44.2556 8.99906H47.4796L43.2937 13.2562L47.7646 18.4219H44.1131L40.4971 14.2003V18.4219H37.6115ZM51.6661 18.6C50.9299 18.6 50.2768 18.4397 49.7068 18.1191C49.1486 17.7984 48.7093 17.3531 48.3886 16.7831C48.068 16.2012 47.9077 15.5422 47.9077 14.8059V8.99906H50.7933V14.4141C50.7933 14.9247 50.9477 15.3403 51.2564 15.6609C51.5771 15.9697 51.9927 16.1241 52.5033 16.1241C52.8714 16.1241 53.198 16.0587 53.483 15.9281C53.768 15.7975 54.0055 15.6134 54.1955 15.3759V8.99906H57.0811V18.4219H54.1955V17.7806C53.483 18.3269 52.6399 18.6 51.6661 18.6ZM59.0107 18.4219V5.95312H65.5835C66.4029 5.95312 67.1273 6.13125 67.7567 6.4875C68.3979 6.83187 68.9026 7.30687 69.2707 7.9125C69.6389 8.51812 69.8229 9.21281 69.8229 9.99656C69.8229 10.7447 69.6389 11.4216 69.2707 12.0272C68.9026 12.6209 68.3979 13.09 67.7567 13.4344C67.1154 13.7787 66.391 13.9509 65.5835 13.9509H62.0745V18.4219H59.0107ZM62.0745 11.4216H65.2273C65.6785 11.4216 66.0407 11.2909 66.3139 11.0297C66.587 10.7684 66.7235 10.43 66.7235 10.0144C66.7235 9.58687 66.587 9.2425 66.3139 8.98125C66.0407 8.70812 65.6785 8.57156 65.2273 8.57156H62.0745V11.4216ZM71.2535 18.4219V5.95312L74.1391 5.32969V9.64031C74.8516 9.09406 75.6947 8.82094 76.6685 8.82094C77.4047 8.82094 78.0519 8.98125 78.61 9.30187C79.18 9.6225 79.6254 10.0678 79.946 10.6378C80.2666 11.2078 80.4269 11.8669 80.4269 12.615V18.4219H77.5413V13.0069C77.5413 12.4844 77.3869 12.0687 77.0782 11.76C76.7694 11.4512 76.3538 11.2969 75.8313 11.2969C75.4632 11.2969 75.1366 11.3622 74.8516 11.4928C74.5785 11.6234 74.341 11.8075 74.1391 12.045V18.4219H71.2535ZM86.8274 18.6C85.8656 18.6 84.9987 18.3863 84.2268 17.9587C83.4549 17.5194 82.8434 16.9316 82.3921 16.1953C81.9409 15.4591 81.7153 14.6337 81.7153 13.7194C81.7153 12.805 81.9409 11.9797 82.3921 11.2434C82.8434 10.4953 83.4549 9.9075 84.2268 9.48C84.9987 9.04062 85.8656 8.82094 86.8274 8.82094C87.7893 8.82094 88.6562 9.04062 89.4281 9.48C90.1999 9.9075 90.8115 10.4953 91.2628 11.2434C91.714 11.9797 91.9396 12.805 91.9396 13.7194C91.9396 14.6337 91.714 15.4591 91.2628 16.1953C90.8115 16.9316 90.1999 17.5194 89.4281 17.9587C88.6562 18.3863 87.7893 18.6 86.8274 18.6ZM86.8274 16.1062C87.2668 16.1062 87.6587 15.9994 88.0031 15.7856C88.3474 15.5719 88.6206 15.2869 88.8224 14.9306C89.0243 14.5625 89.1253 14.1587 89.1253 13.7194C89.1253 13.2681 89.0243 12.8644 88.8224 12.5081C88.6206 12.14 88.3415 11.8491 87.9853 11.6353C87.6409 11.4216 87.2549 11.3147 86.8274 11.3147C86.3999 11.3147 86.0081 11.4216 85.6518 11.6353C85.3074 11.8491 85.0343 12.14 84.8324 12.5081C84.6306 12.8644 84.5296 13.2681 84.5296 13.7194C84.5296 14.1587 84.6306 14.5625 84.8324 14.9306C85.0343 15.2869 85.3074 15.5719 85.6518 15.7856C86.0081 15.9994 86.3999 16.1062 86.8274 16.1062ZM93.293 18.4219V8.99906H96.1786V9.64031C96.8911 9.09406 97.7342 8.82094 98.708 8.82094C99.4442 8.82094 100.091 8.98125 100.65 9.30187C101.22 9.6225 101.665 10.0678 101.985 10.6378C102.306 11.2078 102.466 11.8669 102.466 12.615V18.4219H99.5808V13.0069C99.5808 12.4844 99.4264 12.0687 99.1177 11.76C98.8089 11.4512 98.3933 11.2969 97.8708 11.2969C97.5027 11.2969 97.1761 11.3622 96.8911 11.4928C96.618 11.6234 96.3805 11.8075 96.1786 12.045V18.4219H93.293ZM108.885 18.6C107.923 18.6 107.05 18.3863 106.266 17.9587C105.494 17.5194 104.883 16.9316 104.432 16.1953C103.98 15.4591 103.755 14.6337 103.755 13.7194C103.755 12.805 103.969 11.9797 104.396 11.2434C104.835 10.5072 105.429 9.92531 106.177 9.49781C106.925 9.05844 107.757 8.83875 108.671 8.83875C109.597 8.83875 110.417 9.06437 111.129 9.51562C111.842 9.955 112.4 10.5606 112.804 11.3325C113.219 12.1044 113.427 12.9891 113.427 13.9866V14.6991H106.712C106.842 14.9959 107.014 15.2572 107.228 15.4828C107.454 15.7084 107.721 15.8866 108.03 16.0172C108.339 16.1359 108.671 16.1953 109.027 16.1953C109.419 16.1953 109.775 16.1359 110.096 16.0172C110.417 15.8866 110.69 15.7084 110.915 15.4828L112.821 17.175C112.228 17.6737 111.616 18.0359 110.987 18.2616C110.369 18.4872 109.669 18.6 108.885 18.6ZM106.658 12.6862H110.595C110.5 12.3775 110.351 12.1162 110.149 11.9025C109.959 11.6769 109.734 11.5047 109.473 11.3859C109.211 11.2553 108.926 11.19 108.618 11.19C108.297 11.19 108.006 11.2494 107.745 11.3681C107.484 11.4869 107.258 11.6591 107.068 11.8847C106.89 12.0984 106.753 12.3656 106.658 12.6862Z" fill="black"/>
</svg>
