<svg width="117" height="25" viewBox="0 0 117 25" fill="none" xmlns="http://www.w3.org/2000/svg">
<path d="M1.03313 18.4219V5.95312H4.89844L7.98 11.8312L11.0616 5.95312H14.9269V18.4219H12.0413V9.92531L7.94438 17.5312L3.8475 9.88969V18.4219H1.03313ZM21.5439 18.6C20.5821 18.6 19.7152 18.3863 18.9433 17.9587C18.1714 17.5194 17.5599 16.9316 17.1086 16.1953C16.6574 15.4591 16.4318 14.6337 16.4318 13.7194C16.4318 12.805 16.6574 11.9797 17.1086 11.2434C17.5599 10.4953 18.1714 9.9075 18.9433 9.48C19.7152 9.04062 20.5821 8.82094 21.5439 8.82094C22.5058 8.82094 23.3727 9.04062 24.1446 9.48C24.9164 9.9075 25.528 10.4953 25.9793 11.2434C26.4305 11.9797 26.6561 12.805 26.6561 13.7194C26.6561 14.6337 26.4305 15.4591 25.9793 16.1953C25.528 16.9316 24.9164 17.5194 24.1446 17.9587C23.3727 18.3863 22.5058 18.6 21.5439 18.6ZM21.5439 16.1062C21.9833 16.1062 22.3752 15.9994 22.7196 15.7856C23.0639 15.5719 23.3371 15.2869 23.5389 14.9306C23.7408 14.5625 23.8418 14.1587 23.8418 13.7194C23.8418 13.2681 23.7408 12.8644 23.5389 12.5081C23.3371 12.14 23.058 11.8491 22.7018 11.6353C22.3574 11.4216 21.9714 11.3147 21.5439 11.3147C21.1164 11.3147 20.7246 11.4216 20.3683 11.6353C20.0239 11.8491 19.7508 12.14 19.5489 12.5081C19.3471 12.8644 19.2461 13.2681 19.2461 13.7194C19.2461 14.1587 19.3471 14.5625 19.5489 14.9306C19.7508 15.2869 20.0239 15.5719 20.3683 15.7856C20.7246 15.9994 21.1164 16.1062 21.5439 16.1062ZM32.5695 18.6C31.6313 18.6 30.7823 18.3863 30.0223 17.9587C29.2741 17.5312 28.6804 16.9494 28.241 16.2131C27.8016 15.465 27.582 14.6337 27.582 13.7194C27.582 12.7931 27.8016 11.9619 28.241 11.2256C28.6804 10.4894 29.2741 9.9075 30.0223 9.48C30.7823 9.04062 31.6313 8.82094 32.5695 8.82094C33.3413 8.82094 34.0776 8.97531 34.7782 9.28406C35.4788 9.58094 36.0726 10.0084 36.5595 10.5666L34.796 12.4012C34.4635 12.0212 34.1251 11.7481 33.7807 11.5819C33.4363 11.4037 33.0563 11.3147 32.6407 11.3147C32.2251 11.3147 31.851 11.4216 31.5185 11.6353C31.186 11.8372 30.9248 12.1222 30.7348 12.4903C30.5448 12.8466 30.4498 13.2562 30.4498 13.7194C30.4498 14.1706 30.5448 14.5803 30.7348 14.9484C30.9366 15.3047 31.2098 15.5897 31.5541 15.8034C31.8985 16.0053 32.2845 16.1062 32.712 16.1062C33.1038 16.1062 33.466 16.0231 33.7985 15.8569C34.131 15.6906 34.4516 15.4353 34.7604 15.0909L36.4704 16.8722C35.9954 17.4184 35.4135 17.8459 34.7248 18.1547C34.036 18.4516 33.3176 18.6 32.5695 18.6ZM37.6115 18.4219V5.95312L40.4971 5.50781V12.8466L44.2556 8.99906H47.4796L43.2937 13.2562L47.7646 18.4219H44.1131L40.4971 14.2003V18.4219H37.6115ZM53.8686 18.6C52.7167 18.6 51.7133 18.3744 50.8583 17.9231C50.0152 17.46 49.3621 16.8069 48.8989 15.9637C48.4358 15.1206 48.2042 14.1291 48.2042 12.9891V5.95312H51.268V12.9891C51.268 13.5472 51.3749 14.04 51.5886 14.4675C51.8024 14.8831 52.1052 15.2037 52.4971 15.4294C52.9008 15.655 53.3639 15.7678 53.8864 15.7678C54.4208 15.7678 54.878 15.655 55.258 15.4294C55.6499 15.2037 55.9527 14.8831 56.1664 14.4675C56.3802 14.04 56.4871 13.5472 56.4871 12.9891V5.95312H59.5508V12.9891C59.5508 14.1172 59.3133 15.1028 58.8383 15.9459C58.3752 16.7891 57.7161 17.4422 56.8611 17.9053C56.018 18.3684 55.0205 18.6 53.8686 18.6ZM61.446 18.4219V5.95312H68.0188C68.8382 5.95312 69.5626 6.13125 70.192 6.4875C70.8332 6.83187 71.3379 7.30687 71.706 7.9125C72.0742 8.51812 72.2582 9.21281 72.2582 9.99656C72.2582 10.7447 72.0742 11.4216 71.706 12.0272C71.3379 12.6209 70.8332 13.09 70.192 13.4344C69.5507 13.7787 68.8263 13.9509 68.0188 13.9509H64.5098V18.4219H61.446ZM64.5098 11.4216H67.6626C68.1138 11.4216 68.476 11.2909 68.7492 11.0297C69.0223 10.7684 69.1588 10.43 69.1588 10.0144C69.1588 9.58687 69.0223 9.2425 68.7492 8.98125C68.476 8.70812 68.1138 8.57156 67.6626 8.57156H64.5098V11.4216ZM73.6888 18.4219V5.95312L76.5744 5.32969V9.64031C77.2869 9.09406 78.13 8.82094 79.1038 8.82094C79.84 8.82094 80.4872 8.98125 81.0453 9.30187C81.6153 9.6225 82.0607 10.0678 82.3813 10.6378C82.7019 11.2078 82.8622 11.8669 82.8622 12.615V18.4219H79.9766V13.0069C79.9766 12.4844 79.8222 12.0687 79.5135 11.76C79.2047 11.4512 78.7891 11.2969 78.2666 11.2969C77.8985 11.2969 77.5719 11.3622 77.2869 11.4928C77.0138 11.6234 76.7763 11.8075 76.5744 12.045V18.4219H73.6888ZM89.2628 18.6C88.3009 18.6 87.434 18.3863 86.6621 17.9587C85.8903 17.5194 85.2787 16.9316 84.8274 16.1953C84.3762 15.4591 84.1506 14.6337 84.1506 13.7194C84.1506 12.805 84.3762 11.9797 84.8274 11.2434C85.2787 10.4953 85.8903 9.9075 86.6621 9.48C87.434 9.04062 88.3009 8.82094 89.2628 8.82094C90.2246 8.82094 91.0915 9.04062 91.8634 9.48C92.6353 9.9075 93.2468 10.4953 93.6981 11.2434C94.1493 11.9797 94.3749 12.805 94.3749 13.7194C94.3749 14.6337 94.1493 15.4591 93.6981 16.1953C93.2468 16.9316 92.6353 17.5194 91.8634 17.9587C91.0915 18.3863 90.2246 18.6 89.2628 18.6ZM89.2628 16.1062C89.7021 16.1062 90.094 15.9994 90.4384 15.7856C90.7828 15.5719 91.0559 15.2869 91.2578 14.9306C91.4596 14.5625 91.5606 14.1587 91.5606 13.7194C91.5606 13.2681 91.4596 12.8644 91.2578 12.5081C91.0559 12.14 90.7768 11.8491 90.4206 11.6353C90.0762 11.4216 89.6903 11.3147 89.2628 11.3147C88.8353 11.3147 88.4434 11.4216 88.0871 11.6353C87.7428 11.8491 87.4696 12.14 87.2678 12.5081C87.0659 12.8644 86.9649 13.2681 86.9649 13.7194C86.9649 14.1587 87.0659 14.5625 87.2678 14.9306C87.4696 15.2869 87.7428 15.5719 88.0871 15.7856C88.4434 15.9994 88.8353 16.1062 89.2628 16.1062ZM95.7283 18.4219V8.99906H98.6139V9.64031C99.3264 9.09406 100.17 8.82094 101.143 8.82094C101.88 8.82094 102.527 8.98125 103.085 9.30187C103.655 9.6225 104.1 10.0678 104.421 10.6378C104.741 11.2078 104.902 11.8669 104.902 12.615V18.4219H102.016V13.0069C102.016 12.4844 101.862 12.0687 101.553 11.76C101.244 11.4512 100.829 11.2969 100.306 11.2969C99.938 11.2969 99.6114 11.3622 99.3264 11.4928C99.0533 11.6234 98.8158 11.8075 98.6139 12.045V18.4219H95.7283ZM111.32 18.6C110.358 18.6 109.485 18.3863 108.702 17.9587C107.93 17.5194 107.318 16.9316 106.867 16.1953C106.416 15.4591 106.19 14.6337 106.19 13.7194C106.19 12.805 106.404 11.9797 106.831 11.2434C107.271 10.5072 107.864 9.92531 108.613 9.49781C109.361 9.05844 110.192 8.83875 111.106 8.83875C112.033 8.83875 112.852 9.06437 113.564 9.51562C114.277 9.955 114.835 10.5606 115.239 11.3325C115.654 12.1044 115.862 12.9891 115.862 13.9866V14.6991H109.147C109.278 14.9959 109.45 15.2572 109.663 15.4828C109.889 15.7084 110.156 15.8866 110.465 16.0172C110.774 16.1359 111.106 16.1953 111.463 16.1953C111.854 16.1953 112.211 16.1359 112.531 16.0172C112.852 15.8866 113.125 15.7084 113.351 15.4828L115.257 17.175C114.663 17.6737 114.051 18.0359 113.422 18.2616C112.804 18.4872 112.104 18.6 111.32 18.6ZM109.093 12.6862H113.03C112.935 12.3775 112.787 12.1162 112.585 11.9025C112.395 11.6769 112.169 11.5047 111.908 11.3859C111.647 11.2553 111.362 11.19 111.053 11.19C110.732 11.19 110.441 11.2494 110.18 11.3681C109.919 11.4869 109.693 11.6591 109.503 11.8847C109.325 12.0984 109.188 12.3656 109.093 12.6862Z" fill="black"/>
</svg>
