<?xml version="1.0" encoding="utf-8"?>
<!-- Generator: Adobe Illustrator 19.2.0, SVG Export Plug-In . SVG Version: 6.00 Build 0)  -->
<!DOCTYPE svg PUBLIC "-//W3C//DTD SVG 1.1//EN" "http://www.w3.org/Graphics/SVG/1.1/DTD/svg11.dtd">
<svg version="1.1" xmlns="http://www.w3.org/2000/svg" xmlns:xlink="http://www.w3.org/1999/xlink" x="0px" y="0px"
	 viewBox="0 0 70 70" style="enable-background:new 0 0 70 70;" xml:space="preserve" fill="white">
<desc>Created with Sketch.</desc>
<path id="Oval-1" d="M35,65c17.1,0,31-13.9,31-31S52.1,3,35,3S4,16.9,4,34S17.9,65,35,65L35,65z M35,63C19,63,6,50,6,34S19,5,35,5
	s29,13,29,29S51,63,35,63L35,63z"/>
<path d="M47.1,12.7l-23.7,8.8l-0.7,0.2v0.2l0,0v1.4v12.8v0.7l0.7,0.2l4.2,1.3l-4.3,1.6l-0.6,0.2V41v11.9v1.4l1.3-0.5l23.6-8.5
	l0.7-0.2V45l0,0v-1.4V31.2v-0.7l-0.7-0.2l-4-1.3l4.2-1.6l0.6-0.2v-0.7V13.6v-1.4L47.1,12.7z M24.8,24.7L37.7,29l-12.9,4.8V24.7z
	 M46.3,42.3l-12.5-4l12.5-4.7V42.3z M45.3,44.1l-20.7,7.4v-9.8l6.1-2.3L45.3,44.1z M45.5,31.7l-14.9,5.6l-5-1.6L40.7,30L45.5,31.7z
	 M25.5,22.8l21-7.8v10.7l-5.8,2.2L25.5,22.8z"/>
</svg>
