<?xml version="1.0" encoding="utf-8"?>
<!-- Generator: Adobe Illustrator 19.2.0, SVG Export Plug-In . SVG Version: 6.00 Build 0)  -->
<!DOCTYPE svg PUBLIC "-//W3C//DTD SVG 1.1//EN" "http://www.w3.org/Graphics/SVG/1.1/DTD/svg11.dtd">
<svg version="1.1" xmlns="http://www.w3.org/2000/svg" xmlns:xlink="http://www.w3.org/1999/xlink" x="0px" y="0px"
	 viewBox="0 0 70 70" style="enable-background:new 0 0 70 70;" xml:space="preserve" fill="white">
<desc>Created with Sketch.</desc>
<path id="Oval-1" d="M35,65c17.1,0,31-13.9,31-31S52.1,3,35,3S4,16.9,4,34S17.9,65,35,65L35,65z M35,63C19,63,6,50,6,34S19,5,35,5
	s29,13,29,29S51,63,35,63L35,63z"/>
<path id="Fill-1" d="M55.6,20H35.7c-7.3,0-13.7,6.1-13.9,13.5c-0.1,2.9,0.7,5.7,2.1,8l-9.6,6.1l-0.2,0.1C13.9,47.7,14,48,14.2,48
	h0.3h21.1c7.6,0,13.8-6.3,13.8-14c0-0.8-0.1-1.6-0.2-2.4l-8.5,0c0.4,0.5,0.6,1,0.7,1.6c0.1,0.3,0.1,0.6,0.1,0.8c0,0.2,0,0.4-0.1,0.6
	c-0.3,3-2.8,5.3-5.8,5.3c-0.1,0-0.1,0-0.2,0c-3-0.1-5.5-2.6-5.6-5.7c-0.1-2.4,1.2-4.5,3.2-5.5c0.8-0.5,1.8-0.7,2.8-0.7
	c0.1,0,7.6,0,9.2,0h0c0.2,0,0.4-0.1,0.5-0.2L55.9,21l1-0.7c0.2-0.1,0.1-0.3-0.1-0.3L55.6,20z M51.8,21.7l-7.1,4.6l-1.2,0
	c-2.7,0-7.7,0-7.8,0c-1.3,0-2.5,0.3-3.6,0.9c-1.2,0.6-2.3,1.6-3,2.8c-0.8,1.3-1.1,2.7-1.1,4.2c0.1,1.9,0.8,3.7,2.2,5.1
	c1.4,1.4,3.2,2.2,5.1,2.2c0.1,0,0.2,0,0.2,0c1.9,0,3.7-0.7,5.1-2c1.4-1.3,2.2-3,2.4-4.8c0-0.2,0.1-0.5,0.1-0.7c0-0.3,0-0.5,0-0.8
	l4.7,0c0,0.2,0,0.5,0,0.7c0,1.7-0.3,3.3-1,4.8c-0.6,1.5-1.5,2.8-2.6,3.9c-1.1,1.1-2.4,2-3.9,2.6c-1.5,0.6-3.1,1-4.7,1H19.4l5.4-3.4
	l1.4-0.9l-0.9-1.4c-1.3-2.1-1.9-4.5-1.8-7c0.1-1.6,0.4-3.1,1.1-4.6c0.7-1.4,1.6-2.7,2.7-3.8c1.1-1.1,2.4-2,3.9-2.6
	c1.5-0.6,3-0.9,4.6-0.9H51.8L51.8,21.7z"/>
</svg>
