<svg width="4747" height="374" viewBox="0 0 4747 374" fill="none" xmlns="http://www.w3.org/2000/svg">
<path d="M896.114 278.96C907.172 285.205 918.362 290.864 929.682 295.938C941.126 300.882 952.971 305.111 965.202 308.623C977.425 312.006 990.245 314.607 1003.64 316.429C1017.17 318.25 1031.55 319.161 1046.77 319.161C1065.12 319.161 1080.73 317.99 1093.61 315.648C1106.49 313.177 1116.96 309.859 1125.03 305.696C1133.23 301.402 1139.14 296.329 1142.79 290.474C1146.56 284.619 1148.45 278.244 1148.45 271.349C1148.45 260.29 1143.83 251.573 1134.59 245.198C1125.36 238.693 1111.11 235.44 1091.85 235.44C1083.39 235.44 1074.48 236.026 1065.12 237.196C1055.75 238.237 1046.25 239.409 1036.63 240.71C1027.13 242.011 1017.69 243.246 1008.33 244.417C999.09 245.458 990.376 245.978 982.179 245.978C968.514 245.978 955.374 244.222 942.757 240.71C930.265 237.196 919.141 231.928 909.385 224.902C899.754 217.876 892.081 209.095 886.359 198.556C880.629 188.018 877.768 175.723 877.768 161.672C877.768 153.345 878.875 145.084 881.088 136.887C883.432 128.691 887.072 120.885 892.015 113.469C897.089 105.923 903.598 98.9625 911.533 92.5873C919.468 86.0826 929.027 80.4879 940.216 75.8046C951.537 71.1206 964.546 67.4777 979.252 64.8758C994.082 62.1436 1010.93 60.7771 1029.8 60.7771C1043.45 60.7771 1057.18 61.5583 1070.97 63.1191C1084.76 64.5504 1098.16 66.6317 1111.17 69.3639C1124.31 72.0962 1136.93 75.4137 1149.03 79.3172C1161.13 83.0898 1172.38 87.318 1182.8 92.002L1155.67 141.961C1147.08 138.188 1137.84 134.741 1127.95 131.618C1118.07 128.366 1107.72 125.568 1096.93 123.227C1086.13 120.885 1074.94 119.063 1063.36 117.763C1051.91 116.331 1040.2 115.616 1028.23 115.616C1011.19 115.616 997.139 116.852 986.081 119.323C975.153 121.796 966.432 124.983 959.931 128.886C953.422 132.659 948.872 136.953 946.266 141.766C943.798 146.45 942.561 151.134 942.561 155.818C942.561 164.924 946.659 172.405 954.857 178.26C963.054 183.985 975.539 186.847 992.327 186.847C999.09 186.847 1006.83 186.392 1015.55 185.481C1024.4 184.44 1033.63 183.334 1043.26 182.163C1053.01 180.992 1062.91 179.952 1072.92 179.041C1083.07 178 1092.89 177.479 1102.39 177.479C1120.35 177.479 1136.22 179.496 1150.01 183.529C1163.93 187.562 1175.57 193.352 1184.94 200.898C1194.31 208.314 1201.4 217.356 1206.22 228.024C1211.03 238.563 1213.44 250.402 1213.44 263.542C1213.44 281.106 1209.34 296.784 1201.14 310.574C1193.07 324.235 1181.49 335.814 1166.4 345.312C1151.44 354.679 1133.36 361.835 1112.15 366.779C1090.94 371.593 1067.33 374 1041.31 374C1024.13 374 1007.35 372.894 990.958 370.682C974.564 368.6 958.824 365.608 943.733 361.705C928.772 357.672 914.46 352.923 900.795 347.459C887.269 341.864 874.71 335.749 863.135 329.114L896.114 278.96Z" fill="white"/>
<path d="M1361.48 64.6807H1423.34V222.56L1584.34 64.6807H1663.58L1513.31 210.265L1663.58 369.707H1581.22L1468.81 253.394L1423.34 297.304V369.707H1361.48V64.6807Z" fill="white"/>
<path d="M1867.43 294.182L1734.14 64.6807H1804.21L1898.08 238.173L1990.77 64.6807H2060.83L1929.3 293.792V369.707H1867.43V294.182Z" fill="white"/>
<path d="M2187.8 64.6807H2249.66L2360.51 175.919L2471.36 64.6807H2533.22V369.707H2471.36V150.353L2360.51 257.102L2249.66 150.353V369.707H2187.8V64.6807Z" fill="white"/>
<path d="M2804.01 64.6807H2869.59L3017.12 369.707H2952.14L2927.75 318.381H2749.57L2725.96 369.707H2660.77L2804.01 64.6807ZM2903.35 267.446L2837.39 128.886L2773.18 267.446H2903.35Z" fill="white"/>
<path d="M3144.48 64.6807H3206.35V222.56L3367.35 64.6807H3446.58L3296.31 210.265L3446.58 369.707H3364.23L3251.82 253.394L3206.35 297.304V369.707H3144.48V64.6807Z" fill="white"/>
<path d="M3556.96 64.6807H3816.71V118.933H3618.82V179.821H3794.07V230.756H3618.82V315.648H3820.81V369.707H3556.96V64.6807Z" fill="white"/>
<path d="M3969.44 64.6807H4124.59C4148 64.6807 4168.3 67.1522 4185.47 72.0961C4202.65 76.9104 4216.89 83.9357 4228.21 93.1726C4239.53 102.41 4247.92 113.664 4253.39 126.935C4258.98 140.205 4261.78 155.232 4261.78 172.015C4261.78 183.334 4260.41 194.133 4257.68 204.411C4254.95 214.559 4250.72 223.926 4244.99 232.513C4239.4 241.1 4232.31 248.776 4223.72 255.541C4215.14 262.176 4205.06 267.706 4193.47 272.129L4259.83 369.707H4184.11L4126.73 283.058H4124.97L4031.3 282.863V369.707H3969.44V64.6807ZM4126.15 229.391C4137.85 229.391 4148.07 228.024 4156.79 225.292C4165.63 222.56 4172.99 218.722 4178.84 213.778C4184.82 208.834 4189.25 202.85 4192.11 195.824C4195.1 188.668 4196.6 180.732 4196.6 172.015C4196.6 154.972 4190.74 141.831 4179.04 132.594C4167.32 123.227 4149.7 118.543 4126.15 118.543H4031.3V229.391H4126.15Z" fill="white"/>
<path d="M4429.34 278.96C4440.4 285.205 4451.59 290.864 4462.91 295.938C4474.35 300.882 4486.19 305.111 4498.42 308.623C4510.65 312.006 4523.47 314.607 4536.87 316.429C4550.4 318.25 4564.78 319.161 4580 319.161C4598.34 319.161 4613.95 317.99 4626.83 315.648C4639.71 313.177 4650.19 309.859 4658.25 305.696C4666.45 301.402 4672.37 296.329 4676.01 290.474C4679.79 284.619 4681.67 278.244 4681.67 271.349C4681.67 260.29 4677.05 251.573 4667.82 245.198C4658.58 238.693 4644.33 235.44 4625.08 235.44C4616.62 235.44 4607.71 236.026 4598.34 237.196C4588.98 238.237 4579.48 239.409 4569.85 240.71C4560.35 242.011 4550.92 243.246 4541.55 244.417C4532.32 245.458 4523.59 245.978 4515.4 245.978C4501.74 245.978 4488.6 244.222 4475.98 240.71C4463.49 237.196 4452.37 231.928 4442.61 224.902C4432.98 217.876 4425.31 209.095 4419.58 198.556C4413.85 188.018 4410.99 175.723 4410.99 161.672C4410.99 153.345 4412.1 145.084 4414.31 136.887C4416.65 128.691 4420.3 120.885 4425.24 113.469C4430.32 105.923 4436.82 98.9625 4444.76 92.5873C4452.69 86.0826 4462.25 80.4879 4473.44 75.8046C4484.76 71.1206 4497.77 67.4777 4512.47 64.8758C4527.31 62.1436 4544.15 60.7771 4563.02 60.7771C4576.68 60.7771 4590.4 61.5583 4604.2 63.1191C4617.99 64.5504 4631.39 66.6317 4644.4 69.3639C4657.54 72.0962 4670.16 75.4137 4682.26 79.3172C4694.36 83.0898 4705.61 87.318 4716.02 92.002L4688.9 141.961C4680.3 138.188 4671.07 134.741 4661.18 131.618C4651.29 128.366 4640.95 125.568 4630.15 123.227C4619.36 120.885 4608.17 119.063 4596.58 117.763C4585.13 116.331 4573.43 115.616 4561.46 115.616C4544.42 115.616 4530.37 116.852 4519.31 119.323C4508.38 121.796 4499.66 124.983 4493.16 128.886C4486.65 132.659 4482.1 136.953 4479.49 141.766C4477.02 146.45 4475.79 151.134 4475.79 155.818C4475.79 164.924 4479.88 172.405 4488.08 178.26C4496.27 183.985 4508.76 186.847 4525.55 186.847C4532.32 186.847 4540.05 186.392 4548.77 185.481C4557.62 184.44 4566.86 183.334 4576.48 182.163C4586.24 180.992 4596.13 179.952 4606.15 179.041C4616.3 178 4626.12 177.479 4635.61 177.479C4653.57 177.479 4669.44 179.496 4683.23 183.529C4697.15 187.562 4708.8 193.352 4718.17 200.898C4727.53 208.314 4734.62 217.356 4739.44 228.024C4744.25 238.563 4746.66 250.402 4746.66 263.542C4746.66 281.106 4742.56 296.784 4734.37 310.574C4726.3 324.235 4714.72 335.814 4699.63 345.312C4684.67 354.679 4666.58 361.835 4645.38 366.779C4624.17 371.593 4600.55 374 4574.53 374C4557.36 374 4540.58 372.894 4524.18 370.682C4507.79 368.6 4492.05 365.608 4476.96 361.705C4461.99 357.672 4447.69 352.923 4434.02 347.459C4420.49 341.864 4407.94 335.749 4396.35 329.114L4429.34 278.96Z" fill="white"/>
<path d="M215.37 239.394L318.833 332.544C324.37 337.53 332.779 337.53 338.317 332.544L441.78 239.394" stroke="#004BE0" stroke-width="57.6978" stroke-linecap="round"/>
<path d="M628.149 173.145C557.823 85.2683 449.759 29 328.575 29C207.391 29 99.3261 85.2683 29 173.145" stroke="#004BE0" stroke-width="57.6978" stroke-linecap="round"/>
</svg>
