<svg width="54" height="61" viewBox="0 0 54 61" fill="none" xmlns="http://www.w3.org/2000/svg">
  <path fill-rule="evenodd" clip-rule="evenodd" d="M34.9923 5.09973L35.6693 4.10407L36.3465 3.12273L37.8552 0.916516C38.0429 0.644319 37.9656 0.278998 37.6859 0.0999233C37.41 -0.0827304 37.0309 -0.00751406 36.8506 0.264671L34.547 3.62056L33.8551 4.63056C31.6656 3.80323 29.2258 3.34121 26.6499 3.34121C24.0776 3.34121 21.6341 3.80323 19.4446 4.63056L18.7564 3.62056L18.0757 2.62848L16.4565 0.264671C16.2688 -0.00751406 15.8935 -0.0791517 15.6138 0.0999233C15.3378 0.278998 15.2605 0.644319 15.4445 0.916516L16.9533 3.12273L17.6304 4.10407L18.3112 5.09973C13.1703 7.4313 9.69282 11.8473 9.69282 16.9009H43.6069C43.6069 11.8473 40.1294 7.4313 34.9923 5.09973ZM17.5641 10.4148C17.5641 11.3925 18.3774 12.184 19.382 12.184C20.3866 12.184 21.1999 11.3925 21.1999 10.4148C21.1999 9.43702 20.3866 8.64909 19.382 8.64909C18.3774 8.64909 17.5641 9.43702 17.5641 10.4148ZM32.0998 10.4148C32.0998 11.3925 32.9131 12.184 33.9177 12.184C34.9223 12.184 35.7356 11.3925 35.7356 10.4148C35.7356 9.43702 34.9223 8.64909 33.9177 8.64909C32.9131 8.64909 32.0998 9.43702 32.0998 10.4148ZM9.69282 19.2577H9.95409H43.6069V45.1951C43.6069 47.2544 41.8921 48.9306 39.7725 48.9306H37.0015C37.0972 49.2422 37.1524 49.5681 37.1524 49.9119V57.3794C37.1524 59.3313 35.5222 60.9144 33.5129 60.9144C31.5074 60.9144 29.8808 59.3313 29.8808 57.3794V49.9119C29.8808 49.5681 29.9324 49.2422 30.0244 48.9306H23.2754C23.3674 49.2422 23.4226 49.5681 23.4226 49.9119V57.3794C23.4226 59.3313 21.7924 60.9144 19.7868 60.9144C17.7813 60.9144 16.1511 59.3313 16.1511 57.3794V49.9119C16.1511 49.5681 16.2026 49.2422 16.2983 48.9306H13.531C11.4113 48.9306 9.69282 47.2544 9.69282 45.1951V19.2577ZM3.63576 19.2577C1.62652 19.2577 0 20.8407 0 22.7926V37.9246C0 39.8765 1.62652 41.4595 3.63576 41.4595C5.64131 41.4595 7.26784 39.8765 7.26784 37.9246V22.7926C7.26784 20.8407 5.64131 19.2577 3.63576 19.2577ZM46.0321 22.7926C46.0321 20.8407 47.6586 19.2577 49.6678 19.2577C51.6734 19.2577 53.2999 20.8407 53.2999 22.7926V37.9246C53.2999 39.8765 51.6734 41.4595 49.6678 41.4595C47.6586 41.4595 46.0321 39.8765 46.0321 37.9246V22.7926Z" fill="#333333" />
</svg>
