<svg width="20" height="11" viewBox="0 0 20 11" fill="none" xmlns="http://www.w3.org/2000/svg">
  <path d="M14.3828 8.15234C14.8145 8.15234 15.1797 7.82031 15.1797 7.35547C15.1797 6.92383 14.8145 6.55859 14.3828 6.55859C13.9512 6.55859 13.5859 6.92383 13.5859 7.35547C13.5859 7.82031 13.9512 8.15234 14.3828 8.15234ZM5.58398 8.15234C6.01562 8.15234 6.38086 7.82031 6.38086 7.35547C6.38086 6.92383 6.01562 6.55859 5.58398 6.55859C5.15234 6.55859 4.78711 6.92383 4.78711 7.35547C4.78711 7.82031 5.15234 8.15234 5.58398 8.15234ZM14.6816 3.37109C17.4043 4.86523 19.2637 7.62109 19.5625 10.875H0.4375C0.703125 7.62109 2.5625 4.86523 5.28516 3.37109L3.69141 0.615234C3.6582 0.548828 3.6582 0.482422 3.6582 0.416016C3.6582 0.25 3.79102 0.0839844 3.99023 0.0839844C4.12305 0.0839844 4.22266 0.183594 4.28906 0.283203L5.88281 3.07227C7.14453 2.50781 8.53906 2.20898 10 2.20898C11.4609 2.20898 12.8223 2.50781 14.084 3.07227L15.6777 0.283203C15.7441 0.183594 15.8438 0.0839844 15.9766 0.0839844C16.1758 0.0839844 16.3086 0.25 16.3086 0.416016C16.3086 0.482422 16.3086 0.548828 16.2754 0.615234L14.6816 3.37109Z" fill="white" />
</svg>
