<svg width="54" height="63" viewBox="0 0 54 63" fill="none" xmlns="http://www.w3.org/2000/svg">
  <path fill-rule="evenodd" clip-rule="evenodd" d="M38.3469 0C38.9049 3.79012 37.3622 7.5032 35.3271 10.1302C33.1498 12.9481 29.397 15.1275 25.7608 15.0137C25.097 11.385 26.7966 7.64629 28.8645 5.13299C31.133 2.3592 35.0208 0.23115 38.3469 0ZM49.2699 53.3482C51.1445 50.4753 51.8447 49.026 53.2999 45.7826C42.7161 41.7577 41.0202 26.7109 51.4946 20.9358C48.2998 16.9292 43.8102 14.6067 39.5723 14.6067C36.5187 14.6067 34.4265 15.4036 32.5245 16.128C30.9394 16.7317 29.4865 17.2851 27.7193 17.2851C25.8096 17.2851 24.1185 16.6788 22.3477 16.0439C20.4019 15.3462 18.36 14.6141 15.8262 14.6141C11.0704 14.6141 6.00821 17.5199 2.79878 22.4878C-1.71266 29.4847 -0.943122 42.6382 6.37292 53.8435C8.98788 57.8538 12.4818 62.3593 17.0516 62.3997C18.9477 62.4185 20.2095 61.8526 21.575 61.2402C23.1378 60.5392 24.8365 59.7773 27.7776 59.7617C30.7361 59.7439 32.408 60.5151 33.9501 61.2264C35.2805 61.84 36.5143 62.4091 38.3943 62.3887C42.9677 62.352 46.6549 57.3584 49.2699 53.3482Z" fill="#333333" />
</svg>
