<svg width="13" height="16" viewBox="0 0 13 16" fill="none" xmlns="http://www.w3.org/2000/svg">
  <path d="M10.6836 8.05664C10.6836 6.82812 11.248 5.93164 12.3438 5.23438C11.7129 4.33789 10.7832 3.87305 9.55469 3.77344C8.35938 3.67383 7.06445 4.4375 6.59961 4.4375C6.10156 4.4375 4.97266 3.80664 4.07617 3.80664C2.2168 3.83984 0.257812 5.26758 0.257812 8.22266C0.257812 9.08594 0.390625 9.98242 0.722656 10.9121C1.1543 12.1406 2.68164 15.1289 4.27539 15.0625C5.10547 15.0625 5.70312 14.4648 6.79883 14.4648C7.86133 14.4648 8.39258 15.0625 9.32227 15.0625C10.9492 15.0625 12.3438 12.3398 12.7422 11.1113C10.584 10.082 10.6836 8.12305 10.6836 8.05664ZM8.82422 2.61133C9.7207 1.54883 9.62109 0.552734 9.62109 0.1875C8.82422 0.253906 7.89453 0.751953 7.36328 1.34961C6.76562 2.01367 6.43359 2.84375 6.5 3.74023C7.36328 3.80664 8.16016 3.375 8.82422 2.61133Z" fill="white" />
</svg>
