<svg width="20" height="32" viewBox="0 0 20 32" fill="none" xmlns="http://www.w3.org/2000/svg">
<path d="M18.0027 2.73103L18.7023 2.01652L18.0027 2.73103C18.5523 3.26922 18.8571 3.99462 18.8571 4.74646V27.9107C18.8571 28.6626 18.5523 29.388 18.0027 29.9262C17.4523 30.4651 16.7015 30.7715 15.9143 30.7715H4.08568C3.29848 30.7715 2.54764 30.4651 1.99728 29.9262C1.44764 29.388 1.14282 28.6626 1.14282 27.9107V4.74646C1.14282 3.99462 1.44764 3.26922 1.99728 2.73103C2.54764 2.19214 3.29847 1.88574 4.08568 1.88574H15.9143C16.7015 1.88574 17.4523 2.19214 18.0027 2.73103ZM12.9714 25.9804C12.9714 25.1963 12.6531 24.4488 12.0936 23.9009C11.5348 23.3538 10.7813 23.05 9.99998 23.05C9.21862 23.05 8.46513 23.3538 7.90634 23.9009C7.34684 24.4488 7.02855 25.1963 7.02855 25.9804C7.02855 26.7644 7.34684 27.512 7.90634 28.0599C8.46513 28.607 9.21862 28.9107 9.99998 28.9107C10.7813 28.9107 11.5348 28.607 12.0936 28.0599C12.6531 27.512 12.9714 26.7644 12.9714 25.9804Z" fill="white" stroke="white" stroke-width="2"/>
</svg>
