<svg width="42" height="62" viewBox="0 0 42 62" fill="none" xmlns="http://www.w3.org/2000/svg">
  <circle cx="20" cy="31" r="18" stroke="#333333" stroke-width="4" />
  <path d="M10 29.4009C9.99975 27.9513 10.5824 26.5624 11.6168 25.5468C12.6512 24.5311 14.0506 23.9741 15.5 24.0009C17.2173 23.9918 18.856 24.7201 20 26.0009C21.144 24.7201 22.7827 23.9918 24.5 24.0009C25.9494 23.9741 27.3488 24.5311 28.3832 25.5468C29.4176 26.5624 30.0002 27.9513 30 29.4009C30 34.7569 23.621 38.8009 20 42.0009C16.387 38.7739 10 34.7609 10 29.4009Z" fill="#333333" />
  <path d="M10.6529 2.60351C10.8516 1.11309 12.1229 0 13.6265 0H26.3735C27.8771 0 29.1484 1.11309 29.3471 2.60351L31 15H9L10.6529 2.60351Z" fill="#333333" />
  <path d="M10.6529 59.3965C10.8516 60.8869 12.1229 62 13.6265 62H26.3735C27.8771 62 29.1484 60.8869 29.3471 59.3965L31 47H9L10.6529 59.3965Z" fill="#333333" />
  <rect x="37" y="27" width="5" height="7" rx="2.5" fill="#333333" />
</svg>
