<svg width="60" height="60" viewBox="0 0 60 60" fill="none" xmlns="http://www.w3.org/2000/svg">
  <circle opacity="0.1" cx="30" cy="30" r="29.5" fill="#4BBAA6" stroke="#4BBAA6" />
  <mask id="path-2-inside-1" fill="white">
    <path fill-rule="evenodd" clip-rule="evenodd" d="M32.2423 17H19V43.4846H32.2423C39.5558 43.4846 45.4846 37.5558 45.4846 30.2423C45.4846 22.9288 39.5558 17 32.2423 17ZM23.4141 24.4807C23.4141 24.0764 23.5744 23.6887 23.86 23.4025C24.1461 23.117 24.5339 22.9566 24.9381 22.9566C25.3423 22.9566 25.7301 23.117 26.0162 23.4025L28.3178 25.7041C28.4704 25.8432 28.5931 26.0117 28.6787 26.1995C28.7642 26.3873 28.8108 26.5905 28.8156 26.7969C28.8204 27.0032 28.7832 27.2084 28.7065 27.3999C28.6297 27.5915 28.5149 27.7655 28.3689 27.9115C28.223 28.0574 28.049 28.1722 27.8574 28.249C27.6658 28.3258 27.4607 28.3629 27.2543 28.3581C27.048 28.3533 26.8448 28.3068 26.657 28.2212C26.4691 28.1357 26.3006 28.0129 26.1616 27.8604L23.86 25.5588C23.5744 25.2726 23.4141 24.8849 23.4141 24.4807ZM38.5069 24.4807C38.5069 24.0764 38.3465 23.6887 38.061 23.4025C37.7749 23.117 37.3871 22.9566 36.9829 22.9566C36.5786 22.9566 36.1909 23.117 35.9048 23.4025L33.6031 25.7041C33.4506 25.8432 33.3279 26.0117 33.2423 26.1995C33.1568 26.3873 33.1102 26.5905 33.1054 26.7969C33.1006 27.0032 33.1377 27.2084 33.2145 27.3999C33.2913 27.5915 33.4061 27.7655 33.552 27.9115C33.698 28.0574 33.872 28.1722 34.0636 28.249C34.2552 28.3258 34.4603 28.3629 34.6667 28.3581C34.873 28.3533 35.0762 28.3068 35.264 28.2212C35.4518 28.1357 35.6204 28.0129 35.7594 27.8604L38.061 25.5588C38.3465 25.2726 38.5069 24.8849 38.5069 24.4807ZM34.7055 32.5898C34.3012 32.5898 33.9135 32.7501 33.6273 33.0357C33.3418 33.3218 33.1814 33.7095 33.1814 34.1138C33.1814 34.518 33.3418 34.9058 33.6273 35.1919L35.9289 37.4935C36.2191 37.758 36.6 37.9005 36.9924 37.8914C37.3849 37.8823 37.7588 37.7223 38.0364 37.4447C38.314 37.1671 38.474 36.7933 38.483 36.4008C38.4921 36.0083 38.3496 35.6274 38.0852 35.3373L35.7836 33.0357C35.4974 32.7501 35.1097 32.5898 34.7055 32.5898ZM28.2936 33.0357C28.0074 32.7501 27.6197 32.5898 27.2154 32.5898C26.8112 32.5898 26.4235 32.7501 26.1373 33.0357L23.8357 35.3373C23.5713 35.6274 23.4288 36.0083 23.4378 36.4008C23.4469 36.7933 23.6069 37.1671 23.8845 37.4447C24.1621 37.7223 24.536 37.8823 24.9284 37.8914C25.3209 37.9005 25.7018 37.758 25.9919 37.4935L28.2936 35.1919C28.5791 34.9058 28.7394 34.518 28.7394 34.1138C28.7394 33.7095 28.5791 33.3218 28.2936 33.0357ZM32.0476 29.188L32.6048 29.7452C32.7338 29.8716 32.8362 30.0223 32.9061 30.1887C32.976 30.3552 33.012 30.5338 33.012 30.7143C33.012 30.8948 32.976 31.0735 32.9061 31.2399C32.8362 31.4063 32.7338 31.5571 32.6048 31.6834L32.0476 32.2407C31.9213 32.3696 31.7705 32.472 31.6041 32.5419C31.4377 32.6119 31.259 32.6479 31.0785 32.6479C30.898 32.6479 30.7193 32.6119 30.5529 32.5419C30.3865 32.472 30.2357 32.3696 30.1094 32.2407L29.5522 31.6834C29.4232 31.5571 29.3208 31.4063 29.2509 31.2399C29.181 31.0735 29.1449 30.8948 29.1449 30.7143C29.1449 30.5338 29.181 30.3552 29.2509 30.1887C29.3208 30.0223 29.4232 29.8716 29.5522 29.7452L30.1094 29.188C30.2357 29.0591 30.3865 28.9567 30.5529 28.8867C30.7193 28.8168 30.898 28.7808 31.0785 28.7808C31.259 28.7808 31.4377 28.8168 31.6041 28.8867C31.7705 28.9567 31.9213 29.0591 32.0476 29.188Z" />
  </mask>
  <path d="M19 17V16H18V17H19ZM19 43.4846H18V44.4846H19V43.4846ZM23.86 23.4025L23.1536 22.6947L23.1521 22.6962L23.86 23.4025ZM26.0162 23.4025L26.7233 22.6954L26.7226 22.6947L26.0162 23.4025ZM28.3178 25.7041L27.6107 26.4112L27.6271 26.4276L27.6442 26.4432L28.3178 25.7041ZM28.8156 26.7969L27.8158 26.82V26.82L28.8156 26.7969ZM28.7065 27.3999L29.6347 27.7719L29.6347 27.7719L28.7065 27.3999ZM28.3689 27.9115L27.6618 27.2044L27.6618 27.2044L28.3689 27.9115ZM27.8574 28.249L27.4854 27.3208L27.4854 27.3208L27.8574 28.249ZM26.657 28.2212L27.0715 27.3112L27.0715 27.3112L26.657 28.2212ZM26.1616 27.8604L26.9007 27.1868L26.8851 27.1696L26.8687 27.1533L26.1616 27.8604ZM23.86 25.5588L23.1521 26.2651L23.1529 26.2659L23.86 25.5588ZM38.061 23.4025L38.7689 22.6962L38.7673 22.6947L38.061 23.4025ZM35.9048 23.4025L35.1984 22.6947L35.1976 22.6954L35.9048 23.4025ZM33.6031 25.7041L34.2768 26.4432L34.2939 26.4276L34.3103 26.4112L33.6031 25.7041ZM33.2423 26.1995L32.3323 25.785L32.3323 25.785L33.2423 26.1995ZM33.2145 27.3999L32.2863 27.7719L32.2863 27.7719L33.2145 27.3999ZM34.0636 28.249L34.4356 27.3208L34.4355 27.3208L34.0636 28.249ZM35.264 28.2212L34.8495 27.3112L34.8495 27.3112L35.264 28.2212ZM35.7594 27.8604L35.0523 27.1533L35.0359 27.1696L35.0203 27.1868L35.7594 27.8604ZM38.061 25.5588L38.7681 26.2659L38.7689 26.2651L38.061 25.5588ZM33.6273 33.0357L32.921 32.3278L32.9195 32.3293L33.6273 33.0357ZM33.6273 35.1919L32.9195 35.8983L32.9202 35.899L33.6273 35.1919ZM35.9289 37.4935L35.2218 38.2006L35.2382 38.217L35.2553 38.2326L35.9289 37.4935ZM38.483 36.4008L39.4828 36.4239V36.4239L38.483 36.4008ZM38.0852 35.3373L38.8243 34.6637L38.8087 34.6465L38.7923 34.6302L38.0852 35.3373ZM35.7836 33.0357L36.4907 32.3286L36.4899 32.3278L35.7836 33.0357ZM28.2936 33.0357L29.0014 32.3293L28.9999 32.3278L28.2936 33.0357ZM26.1373 33.0357L25.431 32.3278L25.4302 32.3286L26.1373 33.0357ZM23.8357 35.3373L23.1286 34.6302L23.1122 34.6465L23.0966 34.6636L23.8357 35.3373ZM23.4378 36.4008L22.4381 36.4239V36.4239L23.4378 36.4008ZM23.8845 37.4447L24.5916 36.7376L24.5916 36.7376L23.8845 37.4447ZM24.9284 37.8914L24.9053 38.8911L24.9284 37.8914ZM25.9919 37.4935L26.6656 38.2326L26.6827 38.217L26.6991 38.2006L25.9919 37.4935ZM28.2936 35.1919L29.0007 35.899L29.0014 35.8983L28.2936 35.1919ZM32.6048 29.7452L31.8977 30.4524L31.905 30.4595L32.6048 29.7452ZM32.0476 29.188L31.3333 29.8879L31.3405 29.8951L32.0476 29.188ZM32.9061 30.1887L33.828 29.8014L33.828 29.8014L32.9061 30.1887ZM32.9061 31.2399L31.9842 30.8525L31.9842 30.8525L32.9061 31.2399ZM32.6048 31.6834L31.9049 30.9691L31.8977 30.9763L32.6048 31.6834ZM32.0476 32.2407L31.3404 31.5335L31.3333 31.5408L32.0476 32.2407ZM31.6041 32.5419L31.2167 31.62L31.2167 31.62L31.6041 32.5419ZM30.5529 32.5419L30.9403 31.62L30.9403 31.62L30.5529 32.5419ZM30.1094 32.2407L30.8237 31.5408L30.8165 31.5336L30.1094 32.2407ZM29.5522 31.6834L30.2593 30.9763L30.252 30.9691L29.5522 31.6834ZM29.2509 31.2399L28.329 31.6273L28.329 31.6273L29.2509 31.2399ZM29.2509 30.1887L28.329 29.8014L28.329 29.8014L29.2509 30.1887ZM29.5522 29.7452L30.2521 30.4596L30.2593 30.4523L29.5522 29.7452ZM30.1094 29.188L30.8165 29.8952L30.8237 29.8879L30.1094 29.188ZM30.5529 28.8867L30.9403 29.8086L30.9403 29.8086L30.5529 28.8867ZM31.6041 28.8867L31.9915 27.9648L31.9915 27.9648L31.6041 28.8867ZM19 18H32.2423V16H19V18ZM20 43.4846V17H18V43.4846H20ZM32.2423 42.4846H19V44.4846H32.2423V42.4846ZM44.4846 30.2423C44.4846 37.0036 39.0036 42.4846 32.2423 42.4846V44.4846C40.1081 44.4846 46.4846 38.1081 46.4846 30.2423H44.4846ZM32.2423 18C39.0036 18 44.4846 23.4811 44.4846 30.2423H46.4846C46.4846 22.3765 40.1081 16 32.2423 16V18ZM23.1521 22.6962C22.6795 23.1698 22.4141 23.8116 22.4141 24.4807H24.4141C24.4141 24.3413 24.4694 24.2076 24.5678 24.1089L23.1521 22.6962ZM24.9381 21.9566C24.269 21.9566 23.6273 22.2221 23.1536 22.6947L24.5663 24.1104C24.665 24.0119 24.7987 23.9566 24.9381 23.9566V21.9566ZM26.7226 22.6947C26.249 22.2221 25.6072 21.9566 24.9381 21.9566V23.9566C25.0775 23.9566 25.2112 24.0119 25.3099 24.1104L26.7226 22.6947ZM29.0249 24.997L26.7233 22.6954L25.3091 24.1096L27.6107 26.4112L29.0249 24.997ZM29.5887 25.785C29.4471 25.4741 29.2439 25.1952 28.9915 24.9651L27.6442 26.4432C27.6968 26.4912 27.7391 26.5493 27.7686 26.614L29.5887 25.785ZM29.8153 26.7737C29.8074 26.4322 29.7303 26.0959 29.5887 25.785L27.7686 26.614C27.7981 26.6788 27.8142 26.7489 27.8158 26.82L29.8153 26.7737ZM29.6347 27.7719C29.7618 27.4548 29.8232 27.1152 29.8153 26.7737L27.8158 26.82C27.8175 26.8912 27.8047 26.9619 27.7782 27.028L29.6347 27.7719ZM29.076 28.6186C29.3176 28.377 29.5076 28.089 29.6347 27.7719L27.7782 27.028C27.7517 27.094 27.7122 27.1541 27.6618 27.2044L29.076 28.6186ZM28.2294 29.1773C28.5465 29.0502 28.8345 28.8601 29.076 28.6186L27.6618 27.2044C27.6115 27.2547 27.5515 27.2943 27.4854 27.3208L28.2294 29.1773ZM27.2312 29.3579C27.5727 29.3658 27.9123 29.3043 28.2294 29.1773L27.4854 27.3208C27.4194 27.3472 27.3486 27.36 27.2775 27.3584L27.2312 29.3579ZM26.2424 29.1313C26.5533 29.2729 26.8897 29.3499 27.2312 29.3579L27.2775 27.3584C27.2063 27.3567 27.1362 27.3407 27.0715 27.3112L26.2424 29.1313ZM25.4225 28.534C25.6526 28.7865 25.9316 28.9897 26.2424 29.1313L27.0715 27.3112C27.0067 27.2817 26.9486 27.2394 26.9007 27.1868L25.4225 28.534ZM23.1529 26.2659L25.4545 28.5675L26.8687 27.1533L24.5671 24.8517L23.1529 26.2659ZM22.4141 24.4807C22.4141 25.1497 22.6795 25.7915 23.1521 26.2651L24.5678 24.8524C24.4694 24.7537 24.4141 24.62 24.4141 24.4807H22.4141ZM37.3531 24.1089C37.4516 24.2076 37.5069 24.3413 37.5069 24.4807H39.5069C39.5069 23.8116 39.2415 23.1698 38.7689 22.6962L37.3531 24.1089ZM36.9829 23.9566C37.1223 23.9566 37.256 24.0119 37.3547 24.1104L38.7673 22.6947C38.2937 22.2221 37.652 21.9566 36.9829 21.9566V23.9566ZM36.6111 24.1104C36.7098 24.0119 36.8435 23.9566 36.9829 23.9566V21.9566C36.3138 21.9566 35.672 22.2221 35.1984 22.6947L36.6111 24.1104ZM34.3103 26.4112L36.6119 24.1096L35.1976 22.6954L32.896 24.997L34.3103 26.4112ZM34.1523 26.614C34.1818 26.5493 34.2242 26.4912 34.2768 26.4432L32.9295 24.9651C32.6771 25.1952 32.4739 25.4741 32.3323 25.785L34.1523 26.614ZM34.1051 26.82C34.1068 26.7489 34.1228 26.6788 34.1523 26.614L32.3323 25.785C32.1907 26.0959 32.1136 26.4322 32.1057 26.7737L34.1051 26.82ZM34.1428 27.028C34.1163 26.9619 34.1035 26.8912 34.1051 26.82L32.1057 26.7737C32.0978 27.1152 32.1592 27.4548 32.2863 27.7719L34.1428 27.028ZM34.2592 27.2044C34.2088 27.1541 34.1692 27.094 34.1428 27.028L32.2863 27.7719C32.4133 28.089 32.6034 28.377 32.8449 28.6186L34.2592 27.2044ZM34.4355 27.3208C34.3695 27.2943 34.3095 27.2547 34.2592 27.2044L32.8449 28.6186C33.0865 28.8601 33.3745 29.0502 33.6916 29.1773L34.4355 27.3208ZM34.6435 27.3584C34.5724 27.36 34.5016 27.3472 34.4356 27.3208L33.6916 29.1773C34.0087 29.3043 34.3483 29.3658 34.6898 29.3579L34.6435 27.3584ZM34.8495 27.3112C34.7847 27.3407 34.7147 27.3567 34.6435 27.3584L34.6898 29.3579C35.0313 29.3499 35.3677 29.2729 35.6786 29.1313L34.8495 27.3112ZM35.0203 27.1868C34.9724 27.2394 34.9143 27.2817 34.8495 27.3112L35.6785 29.1313C35.9894 28.9897 36.2684 28.7865 36.4985 28.534L35.0203 27.1868ZM37.3539 24.8517L35.0523 27.1533L36.4665 28.5675L38.7681 26.2659L37.3539 24.8517ZM37.5069 24.4807C37.5069 24.62 37.4516 24.7537 37.3531 24.8524L38.7689 26.2651C39.2415 25.7915 39.5069 25.1497 39.5069 24.4807H37.5069ZM34.3337 33.7435C34.4324 33.6451 34.5661 33.5898 34.7055 33.5898V31.5898C34.0364 31.5898 33.3946 31.8552 32.921 32.3278L34.3337 33.7435ZM34.1814 34.1138C34.1814 33.9744 34.2367 33.8407 34.3352 33.742L32.9195 32.3293C32.4469 32.8029 32.1814 33.4447 32.1814 34.1138H34.1814ZM34.3352 34.4856C34.2367 34.3869 34.1814 34.2532 34.1814 34.1138H32.1814C32.1814 34.7829 32.4469 35.4246 32.9195 35.8983L34.3352 34.4856ZM36.6361 36.7864L34.3344 34.4848L32.9202 35.899L35.2218 38.2006L36.6361 36.7864ZM36.9693 36.8916C36.834 36.8948 36.7026 36.8456 36.6026 36.7544L35.2553 38.2326C35.7356 38.6703 36.366 38.9061 37.0156 38.8911L36.9693 36.8916ZM37.3293 36.7376C37.2336 36.8333 37.1046 36.8885 36.9693 36.8916L37.0156 38.8911C37.6652 38.8761 38.284 38.6113 38.7435 38.1518L37.3293 36.7376ZM37.4833 36.3776C37.4802 36.513 37.425 36.6419 37.3293 36.7376L38.7435 38.1518C39.203 37.6924 39.4677 37.0735 39.4828 36.4239L37.4833 36.3776ZM37.3461 36.0109C37.4373 36.111 37.4864 36.2423 37.4833 36.3776L39.4828 36.4239C39.4978 35.7743 39.262 35.1439 38.8243 34.6637L37.3461 36.0109ZM35.0765 33.7428L37.3781 36.0444L38.7923 34.6302L36.4907 32.3286L35.0765 33.7428ZM34.7055 33.5898C34.8449 33.5898 34.9786 33.6451 35.0772 33.7435L36.4899 32.3278C36.0163 31.8552 35.3745 31.5898 34.7055 31.5898V33.5898ZM27.2154 33.5898C27.3548 33.5898 27.4885 33.6451 27.5872 33.7435L28.9999 32.3278C28.5263 31.8552 27.8845 31.5898 27.2154 31.5898V33.5898ZM26.8437 33.7435C26.9423 33.6451 27.076 33.5898 27.2154 33.5898V31.5898C26.5463 31.5898 25.9046 31.8552 25.431 32.3278L26.8437 33.7435ZM24.5428 36.0444L26.8444 33.7428L25.4302 32.3286L23.1286 34.6302L24.5428 36.0444ZM24.4376 36.3776C24.4344 36.2423 24.4836 36.111 24.5748 36.0109L23.0966 34.6636C22.6589 35.1439 22.4231 35.7743 22.4381 36.4239L24.4376 36.3776ZM24.5916 36.7376C24.4959 36.6419 24.4407 36.513 24.4376 36.3776L22.4381 36.4239C22.4532 37.0735 22.7179 37.6924 23.1774 38.1518L24.5916 36.7376ZM24.9516 36.8916C24.8162 36.8885 24.6873 36.8333 24.5916 36.7376L23.1774 38.1518C23.6369 38.6113 24.2557 38.8761 24.9053 38.8911L24.9516 36.8916ZM25.3183 36.7544C25.2183 36.8456 25.0869 36.8948 24.9516 36.8916L24.9053 38.8911C25.5549 38.9061 26.1853 38.6703 26.6656 38.2326L25.3183 36.7544ZM27.5864 34.4848L25.2848 36.7864L26.6991 38.2006L29.0007 35.899L27.5864 34.4848ZM27.7394 34.1138C27.7394 34.2532 27.6841 34.3869 27.5857 34.4856L29.0014 35.8983C29.474 35.4246 29.7394 34.7829 29.7394 34.1138H27.7394ZM27.5857 33.742C27.6841 33.8407 27.7394 33.9744 27.7394 34.1138H29.7394C29.7394 33.4447 29.474 32.8029 29.0014 32.3293L27.5857 33.742ZM33.3119 29.0381L32.7547 28.4809L31.3405 29.8951L31.8977 30.4523L33.3119 29.0381ZM33.828 29.8014C33.7066 29.5123 33.5286 29.2504 33.3047 29.031L31.905 30.4595C31.9389 30.4927 31.9658 30.5324 31.9842 30.5761L33.828 29.8014ZM34.012 30.7143C34.012 30.4008 33.9495 30.0904 33.828 29.8014L31.9842 30.5761C32.0026 30.6199 32.012 30.6669 32.012 30.7143H34.012ZM33.828 31.6273C33.9495 31.3383 34.012 31.0279 34.012 30.7143H32.012C32.012 30.7618 32.0026 30.8088 31.9842 30.8525L33.828 31.6273ZM33.3047 32.3977C33.5286 32.1783 33.7066 31.9164 33.828 31.6273L31.9842 30.8525C31.9658 30.8963 31.9389 30.9359 31.905 30.9691L33.3047 32.3977ZM32.7547 32.9478L33.3119 32.3905L31.8977 30.9763L31.3405 31.5336L32.7547 32.9478ZM31.9915 33.4639C32.2805 33.3424 32.5424 33.1645 32.7619 32.9405L31.3333 31.5408C31.3001 31.5747 31.2604 31.6016 31.2167 31.62L31.9915 33.4639ZM31.0785 33.6479C31.392 33.6479 31.7024 33.5853 31.9915 33.4639L31.2167 31.62C31.1729 31.6384 31.126 31.6479 31.0785 31.6479V33.6479ZM30.1655 33.4639C30.4546 33.5853 30.765 33.6479 31.0785 33.6479V31.6479C31.031 31.6479 30.9841 31.6384 30.9403 31.62L30.1655 33.4639ZM29.3951 32.9405C29.6145 33.1645 29.8765 33.3424 30.1655 33.4639L30.9403 31.62C30.8965 31.6016 30.8569 31.5747 30.8237 31.5408L29.3951 32.9405ZM28.8451 32.3905L29.4023 32.9478L30.8165 31.5336L30.2593 30.9763L28.8451 32.3905ZM28.329 31.6273C28.4504 31.9164 28.6284 32.1783 28.8523 32.3977L30.252 30.9691C30.2181 30.9359 30.1912 30.8963 30.1728 30.8525L28.329 31.6273ZM28.1449 30.7143C28.1449 31.0279 28.2075 31.3383 28.329 31.6273L30.1728 30.8525C30.1544 30.8088 30.1449 30.7618 30.1449 30.7143H28.1449ZM28.329 29.8014C28.2075 30.0904 28.1449 30.4008 28.1449 30.7143H30.1449C30.1449 30.6669 30.1544 30.6199 30.1728 30.5761L28.329 29.8014ZM28.8523 29.031C28.6284 29.2504 28.4504 29.5123 28.329 29.8014L30.1728 30.5761C30.1912 30.5324 30.2181 30.4927 30.252 30.4595L28.8523 29.031ZM29.4023 28.4809L28.8451 29.0381L30.2593 30.4523L30.8165 29.8951L29.4023 28.4809ZM30.1655 27.9648C29.8765 28.0863 29.6145 28.2642 29.3951 28.4882L30.8237 29.8879C30.8569 29.854 30.8965 29.827 30.9403 29.8086L30.1655 27.9648ZM31.0785 27.7808C30.765 27.7808 30.4546 27.8434 30.1655 27.9648L30.9403 29.8086C30.984 29.7903 31.031 29.7808 31.0785 29.7808V27.7808ZM31.9915 27.9648C31.7024 27.8434 31.392 27.7808 31.0785 27.7808V29.7808C31.126 29.7808 31.1729 29.7903 31.2167 29.8086L31.9915 27.9648ZM32.7619 28.4882C32.5424 28.2642 32.2805 28.0863 31.9915 27.9648L31.2167 29.8086C31.2604 29.827 31.3001 29.854 31.3333 29.8879L32.7619 28.4882Z" fill="#4BBAA6" mask="url(#path-2-inside-1)" />
</svg>
